<?xml version="1.0" standalone="no"?>
<!DOCTYPE svg PUBLIC "-//W3C//DTD SVG 20010904//EN"
 "http://www.w3.org/TR/2001/REC-SVG-20010904/DTD/svg10.dtd">
<svg version="1.0" xmlns="http://www.w3.org/2000/svg"
 width="500.000000pt" height="500.000000pt" viewBox="0 0 500.000000 500.000000"
 preserveAspectRatio="xMidYMid meet">
<metadata>
Created by potrace 1.14, written by Peter Selinger 2001-2017
</metadata>
<g transform="translate(0.000000,500.000000) scale(0.100000,-0.100000)"
fill="#000000" stroke="none">
<path d="M2017 3536 c-307 -179 -569 -332 -582 -340 l-25 -16 0 -683 0 -683
43 -24 c23 -13 186 -108 362 -210 176 -103 340 -198 365 -212 25 -14 111 -64
192 -112 225 -132 205 -125 274 -83 33 19 75 44 94 55 19 11 157 90 305 177
149 87 291 170 316 184 25 14 123 71 217 126 l172 100 0 685 0 685 -57 33
c-90 50 -135 76 -488 282 -181 106 -348 203 -370 215 -22 13 -87 50 -145 84
-58 34 -107 61 -110 61 -3 0 -256 -146 -563 -324z"/>
<path d="M1338 3651 c-14 -5 -134 -116 -353 -326 -51 -49 -86 -83 -424 -405
-89 -85 -218 -209 -287 -275 l-124 -120 72 -77 c40 -42 128 -134 195 -205 66
-70 152 -160 190 -199 37 -39 142 -149 233 -244 91 -96 204 -215 251 -265 48
-49 114 -119 146 -153 l59 -64 32 27 c18 15 32 32 32 38 -1 14 -38 56 -189
213 -98 102 -383 401 -476 499 -82 87 -361 379 -384 402 l-23 25 57 53 c31 30
105 100 164 157 95 91 411 393 511 488 303 289 390 375 390 390 0 29 -41 52
-72 41z"/>
<path d="M3787 3622 c-15 -15 -27 -32 -27 -38 0 -5 247 -256 550 -559 l550
-550 -553 -552 c-476 -477 -550 -555 -541 -570 16 -26 55 -43 73 -33 9 5 274
266 589 582 l572 573 -587 587 c-324 324 -590 588 -594 588 -3 0 -17 -13 -32
-28z"/>
</g>
</svg>
