<svg id="svg" version="1.1" xmlns="http://www.w3.org/2000/svg" xmlns:xlink="http://www.w3.org/1999/xlink" width="400" height="400" viewBox="0, 0, 400,400"><g id="svgg"><path id="path0" d="M142.800 179.997 C 142.800 180.265,126.100 180.400,92.856 180.400 L 42.911 180.400 42.645 182.900 C 42.088 188.137,41.640 220.014,41.621 255.893 L 41.600 293.187 43.500 294.202 C 44.545 294.761,46.120 295.662,47.000 296.206 C 47.880 296.749,50.099 298.050,51.931 299.097 C 53.763 300.144,55.563 301.182,55.931 301.404 C 57.962 302.630,61.972 305.008,63.100 305.655 C 63.815 306.065,64.985 306.735,65.700 307.144 C 66.415 307.553,67.953 308.453,69.118 309.144 C 70.282 309.835,71.407 310.400,71.618 310.400 C 71.828 310.400,72.000 310.559,72.000 310.753 C 72.000 310.948,72.315 311.213,72.700 311.342 C 73.085 311.472,73.940 311.902,74.600 312.298 C 79.135 315.018,80.891 316.000,81.221 316.000 C 81.430 316.000,81.600 316.159,81.600 316.353 C 81.600 316.548,81.915 316.810,82.300 316.936 C 82.685 317.062,83.810 317.649,84.800 318.242 C 85.790 318.834,87.590 319.862,88.800 320.525 C 90.010 321.189,91.090 321.837,91.200 321.966 C 91.310 322.095,92.120 322.574,93.000 323.030 C 95.069 324.104,96.548 324.948,96.800 325.200 C 97.031 325.431,98.118 326.056,101.200 327.728 C 102.410 328.385,103.878 329.255,104.462 329.661 C 105.046 330.067,105.612 330.400,105.721 330.400 C 105.829 330.400,107.103 331.120,108.552 332.000 C 110.000 332.880,111.296 333.600,111.431 333.600 C 111.566 333.600,112.154 333.939,112.738 334.353 C 113.322 334.767,114.475 335.487,115.300 335.953 C 116.125 336.419,117.430 337.160,118.200 337.600 C 118.970 338.040,120.230 338.760,121.000 339.200 C 121.770 339.640,123.030 340.360,123.800 340.800 C 124.570 341.240,125.830 341.960,126.600 342.400 C 128.144 343.282,130.175 344.435,131.645 345.262 C 132.170 345.558,132.690 345.890,132.800 346.000 C 132.910 346.110,133.430 346.442,133.955 346.738 C 135.425 347.565,137.456 348.718,139.000 349.600 C 139.770 350.040,141.030 350.760,141.800 351.200 C 142.570 351.640,143.830 352.360,144.600 352.800 C 148.065 354.780,148.724 355.162,150.718 356.344 C 151.882 357.035,153.007 357.600,153.218 357.600 C 153.428 357.600,153.600 357.738,153.600 357.906 C 153.600 358.074,154.275 358.525,155.100 358.908 C 156.619 359.613,156.952 359.800,161.600 362.563 C 164.064 364.029,164.895 364.511,168.200 366.400 C 168.970 366.840,170.230 367.560,171.000 368.000 C 171.770 368.440,172.985 369.135,173.700 369.544 C 174.415 369.953,175.990 370.880,177.200 371.603 C 178.410 372.326,180.390 373.458,181.600 374.120 C 182.810 374.781,184.278 375.655,184.862 376.061 C 185.446 376.467,186.023 376.800,186.144 376.800 C 186.266 376.800,187.318 377.365,188.482 378.056 C 189.647 378.747,191.185 379.647,191.900 380.056 C 193.757 381.119,195.796 382.284,197.300 383.141 C 198.015 383.548,199.230 384.268,200.000 384.739 C 200.770 385.211,201.654 385.598,201.965 385.599 C 202.556 385.600,202.261 190.480,201.658 183.000 L 201.400 179.800 172.100 179.697 C 152.639 179.629,142.800 179.730,142.800 179.997 " stroke="none" fill="#343434" fill-rule="evenodd"></path><path id="path1" d="M202.949 13.700 C 202.564 14.251,202.556 21.799,202.700 237.300 L 202.800 386.800 203.912 386.800 C 204.565 386.800,205.261 386.470,205.600 386.000 C 205.917 385.560,206.424 385.200,206.727 385.200 C 207.313 385.200,209.710 383.641,209.933 383.114 C 210.007 382.942,210.286 382.800,210.554 382.800 C 211.263 382.800,213.193 381.851,213.197 381.500 C 213.199 381.335,213.560 381.200,214.000 381.200 C 214.440 381.200,214.800 381.020,214.800 380.800 C 214.800 380.580,215.120 380.400,215.512 380.400 C 215.903 380.400,216.483 380.040,216.800 379.600 C 217.117 379.160,217.697 378.800,218.088 378.800 C 218.480 378.800,218.800 378.620,218.800 378.400 C 218.800 378.180,219.120 378.000,219.512 378.000 C 219.903 378.000,220.483 377.640,220.800 377.200 C 221.117 376.760,221.697 376.400,222.088 376.400 C 222.480 376.400,222.800 376.220,222.800 376.000 C 222.800 375.780,223.087 375.600,223.438 375.600 C 223.789 375.600,224.554 375.279,225.138 374.886 C 225.722 374.493,226.695 373.922,227.300 373.618 C 227.905 373.314,228.400 372.915,228.400 372.732 C 228.400 372.550,228.760 372.400,229.200 372.400 C 229.640 372.400,230.000 372.220,230.000 372.000 C 230.000 371.780,230.294 371.600,230.653 371.600 C 231.012 371.600,231.597 371.275,231.953 370.878 C 232.309 370.481,233.230 369.906,234.000 369.600 C 234.770 369.294,235.672 368.764,236.004 368.422 C 236.824 367.578,238.258 366.800,238.995 366.800 C 239.328 366.800,239.600 366.648,239.600 366.463 C 239.600 366.277,240.410 365.709,241.400 365.200 C 242.390 364.691,243.200 364.123,243.200 363.937 C 243.200 363.752,243.549 363.600,243.976 363.600 C 244.403 363.600,244.864 363.420,245.000 363.200 C 245.136 362.980,245.514 362.800,245.840 362.800 C 246.167 362.800,246.820 362.440,247.292 362.000 C 247.764 361.560,248.387 361.200,248.675 361.200 C 248.964 361.200,249.200 361.041,249.200 360.847 C 249.200 360.652,249.515 360.393,249.900 360.271 C 250.596 360.051,252.818 358.787,253.200 358.395 C 253.310 358.282,254.255 357.758,255.300 357.232 C 256.345 356.705,257.200 356.123,257.200 355.937 C 257.200 355.752,257.560 355.600,258.000 355.600 C 258.440 355.600,258.800 355.420,258.800 355.200 C 258.800 354.980,259.083 354.800,259.429 354.800 C 259.774 354.800,260.329 354.528,260.661 354.196 C 260.993 353.864,261.458 353.712,261.694 353.858 C 261.949 354.015,262.007 353.936,261.838 353.662 C 261.669 353.388,261.807 353.200,262.176 353.200 C 262.519 353.200,262.800 353.020,262.800 352.800 C 262.800 352.580,263.160 352.400,263.600 352.400 C 264.040 352.400,264.400 352.220,264.400 352.000 C 264.400 351.780,264.760 351.600,265.200 351.600 C 265.640 351.600,266.000 351.420,266.000 351.200 C 266.000 350.980,266.236 350.800,266.525 350.800 C 266.813 350.800,267.436 350.440,267.908 350.000 C 268.380 349.560,269.043 349.200,269.380 349.200 C 269.717 349.200,270.218 348.840,270.493 348.400 C 270.768 347.960,271.365 347.600,271.821 347.600 C 272.276 347.600,273.036 347.240,273.508 346.800 C 273.980 346.360,274.562 346.000,274.800 346.000 C 275.038 346.000,275.620 345.640,276.092 345.200 C 276.564 344.760,277.187 344.400,277.475 344.400 C 277.764 344.400,278.000 344.220,278.000 344.000 C 278.000 343.780,278.345 343.600,278.767 343.600 C 279.188 343.600,279.593 343.465,279.667 343.300 C 279.740 343.135,280.655 342.567,281.700 342.037 C 282.745 341.508,283.600 340.923,283.600 340.737 C 283.600 340.552,283.945 340.400,284.367 340.400 C 284.788 340.400,285.193 340.265,285.267 340.100 C 285.435 339.721,288.734 338.000,289.291 338.000 C 289.519 338.000,289.999 337.685,290.357 337.300 C 290.716 336.915,291.367 336.403,291.804 336.162 C 293.789 335.071,294.615 334.585,294.800 334.400 C 295.278 333.922,296.839 333.200,297.395 333.200 C 297.728 333.200,298.000 333.020,298.000 332.800 C 298.000 332.580,298.236 332.400,298.525 332.400 C 298.813 332.400,299.398 332.085,299.825 331.699 C 300.251 331.314,301.455 330.566,302.500 330.037 C 303.545 329.507,304.400 328.923,304.400 328.737 C 304.400 328.552,304.760 328.400,305.200 328.400 C 305.640 328.400,306.000 328.220,306.000 328.000 C 306.000 327.780,306.225 327.596,306.500 327.591 C 306.775 327.586,307.450 327.230,308.000 326.800 C 308.550 326.370,309.405 326.014,309.900 326.009 C 310.395 326.004,310.800 325.850,310.800 325.668 C 310.800 325.485,311.295 325.081,311.900 324.770 C 312.505 324.460,313.270 323.934,313.600 323.603 C 314.137 323.063,316.177 321.877,318.697 320.640 C 319.190 320.398,319.595 320.065,319.597 319.900 C 319.599 319.735,319.960 319.600,320.400 319.600 C 320.840 319.600,321.200 319.420,321.200 319.200 C 321.200 318.980,321.571 318.800,322.024 318.800 C 322.477 318.800,322.736 318.620,322.600 318.400 C 322.464 318.180,322.616 318.000,322.939 318.000 C 323.713 318.000,326.800 316.342,326.800 315.926 C 326.800 315.747,327.171 315.600,327.624 315.600 C 328.077 315.600,328.336 315.420,328.200 315.200 C 328.064 314.980,328.261 314.800,328.639 314.800 C 329.016 314.800,329.904 314.358,330.613 313.817 C 331.321 313.277,332.013 312.947,332.151 313.084 C 332.288 313.221,332.400 313.123,332.400 312.867 C 332.400 312.610,332.760 312.400,333.200 312.400 C 333.640 312.400,334.000 312.220,334.000 312.000 C 334.000 311.780,334.236 311.600,334.525 311.600 C 334.813 311.600,335.436 311.240,335.908 310.800 C 336.380 310.360,337.044 310.000,337.383 310.000 C 337.722 310.000,338.000 309.820,338.000 309.600 C 338.000 309.380,338.360 309.200,338.800 309.200 C 339.240 309.200,339.600 309.020,339.600 308.800 C 339.600 308.580,339.960 308.400,340.400 308.400 C 340.840 308.400,341.200 308.250,341.200 308.068 C 341.200 307.885,341.695 307.480,342.300 307.168 C 342.905 306.855,343.749 306.285,344.175 305.900 C 344.602 305.515,345.181 305.200,345.463 305.200 C 346.205 305.200,348.873 303.638,349.639 302.755 C 349.999 302.340,350.588 302.000,350.947 302.000 C 351.306 302.000,351.600 301.820,351.600 301.600 C 351.600 301.380,351.883 301.200,352.229 301.200 C 352.574 301.200,353.129 300.928,353.461 300.596 C 353.793 300.264,354.258 300.112,354.494 300.258 C 354.749 300.415,354.807 300.336,354.638 300.062 C 354.469 299.788,354.607 299.600,354.976 299.600 C 355.319 299.600,355.600 299.420,355.600 299.200 C 355.600 298.980,355.834 298.800,356.120 298.800 C 356.856 298.800,358.793 297.859,358.797 297.500 C 358.799 297.335,359.160 297.200,359.600 297.200 C 360.040 297.200,360.400 297.020,360.400 296.800 C 360.400 296.580,360.720 296.400,361.112 296.400 C 361.503 296.400,362.083 296.040,362.400 295.600 C 362.717 295.160,363.297 294.800,363.688 294.800 C 364.369 294.800,364.400 290.636,364.400 200.571 C 364.400 100.129,364.494 105.200,362.629 105.200 C 362.283 105.200,362.000 105.020,362.000 104.800 C 362.000 104.580,361.640 104.400,361.200 104.400 C 360.760 104.400,360.400 104.220,360.400 104.000 C 360.400 103.780,360.080 103.600,359.688 103.600 C 359.297 103.600,358.717 103.240,358.400 102.800 C 358.083 102.360,357.383 102.000,356.845 102.000 C 356.307 102.000,355.984 101.883,356.127 101.739 C 356.409 101.457,354.605 100.400,353.843 100.400 C 353.586 100.400,353.117 100.040,352.800 99.600 C 352.483 99.160,351.991 98.800,351.706 98.800 C 351.078 98.800,349.721 98.047,348.645 97.100 C 348.207 96.715,347.613 96.400,347.325 96.400 C 347.036 96.400,346.800 96.220,346.800 96.000 C 346.800 95.780,346.517 95.600,346.172 95.600 C 345.827 95.600,344.759 95.060,343.800 94.400 C 342.841 93.740,341.908 93.196,341.728 93.191 C 341.548 93.186,340.950 92.830,340.400 92.400 C 339.850 91.970,339.125 91.614,338.788 91.609 C 338.452 91.604,337.917 91.240,337.600 90.800 C 337.283 90.360,336.703 90.000,336.312 90.000 C 335.920 90.000,335.600 89.820,335.600 89.600 C 335.600 89.380,335.240 89.200,334.800 89.200 C 334.360 89.200,334.000 89.020,334.000 88.800 C 334.000 88.580,333.719 88.400,333.376 88.400 C 333.007 88.400,332.869 88.212,333.038 87.938 C 333.207 87.664,333.149 87.585,332.894 87.742 C 332.658 87.888,332.193 87.736,331.861 87.404 C 331.529 87.072,330.989 86.800,330.662 86.800 C 330.335 86.800,330.007 86.665,329.933 86.500 C 329.860 86.335,328.945 85.767,327.900 85.237 C 326.855 84.708,326.000 84.123,326.000 83.937 C 326.000 83.752,325.640 83.600,325.200 83.600 C 324.760 83.600,324.400 83.420,324.400 83.200 C 324.400 82.980,324.164 82.800,323.875 82.800 C 323.587 82.800,322.964 82.440,322.492 82.000 C 322.020 81.560,321.356 81.200,321.017 81.200 C 320.678 81.200,320.400 81.020,320.400 80.800 C 320.400 80.580,320.040 80.400,319.600 80.400 C 319.160 80.400,318.800 80.220,318.800 80.000 C 318.800 79.780,318.504 79.600,318.143 79.600 C 317.782 79.600,316.971 79.060,316.340 78.400 C 315.709 77.740,314.827 77.200,314.380 77.200 C 313.933 77.200,313.180 76.840,312.708 76.400 C 312.236 75.960,311.613 75.600,311.325 75.600 C 311.036 75.600,310.800 75.420,310.800 75.200 C 310.800 74.980,310.522 74.800,310.183 74.800 C 309.844 74.800,309.180 74.440,308.708 74.000 C 308.236 73.560,307.613 73.200,307.325 73.200 C 307.036 73.200,306.800 73.020,306.800 72.800 C 306.800 72.580,306.440 72.400,306.000 72.400 C 305.560 72.400,305.200 72.220,305.200 72.000 C 305.200 71.780,304.880 71.600,304.488 71.600 C 304.097 71.600,303.517 71.240,303.200 70.800 C 302.883 70.360,302.303 70.000,301.912 70.000 C 301.520 70.000,301.200 69.820,301.200 69.600 C 301.200 69.380,300.917 69.200,300.572 69.200 C 300.227 69.200,299.159 68.660,298.200 68.000 C 297.241 67.340,296.263 66.800,296.028 66.800 C 295.793 66.800,295.600 66.620,295.600 66.400 C 295.600 66.180,295.240 66.000,294.800 66.000 C 294.360 66.000,294.000 65.848,294.000 65.663 C 294.000 65.477,293.145 64.892,292.100 64.363 C 291.055 63.833,290.140 63.265,290.067 63.100 C 289.993 62.935,289.588 62.800,289.167 62.800 C 288.745 62.800,288.400 62.648,288.400 62.463 C 288.400 62.277,287.545 61.695,286.500 61.168 C 285.455 60.642,284.510 60.118,284.400 60.005 C 284.290 59.891,283.705 59.544,283.100 59.232 C 282.495 58.920,282.000 58.515,282.000 58.332 C 282.000 58.150,281.655 58.000,281.233 58.000 C 280.812 58.000,280.376 57.775,280.265 57.500 C 280.108 57.110,280.056 57.114,280.032 57.516 C 280.011 57.855,279.701 57.753,279.125 57.216 C 278.643 56.767,278.053 56.400,277.813 56.400 C 277.573 56.400,277.117 56.040,276.800 55.600 C 276.483 55.160,275.903 54.800,275.512 54.800 C 275.120 54.800,274.799 54.665,274.797 54.500 C 274.795 54.335,274.390 53.999,273.897 53.754 C 270.360 51.997,267.685 50.496,267.025 49.900 C 266.316 49.260,265.529 49.013,264.670 49.163 C 264.489 49.194,264.455 49.035,264.594 48.810 C 264.733 48.584,264.649 48.400,264.407 48.400 C 264.165 48.400,263.580 48.040,263.108 47.600 C 262.327 46.872,261.559 46.608,260.670 46.763 C 260.489 46.794,260.455 46.635,260.594 46.410 C 260.733 46.184,260.567 46.000,260.224 46.000 C 259.881 46.000,259.600 45.820,259.600 45.600 C 259.600 45.380,259.240 45.200,258.800 45.200 C 258.360 45.200,258.000 45.048,258.000 44.863 C 258.000 44.677,257.145 44.092,256.100 43.563 C 255.055 43.033,254.140 42.465,254.067 42.300 C 253.993 42.135,253.588 42.000,253.167 42.000 C 252.745 42.000,252.400 41.820,252.400 41.600 C 252.400 41.380,252.040 41.200,251.600 41.200 C 251.160 41.200,250.800 41.050,250.800 40.868 C 250.800 40.685,250.305 40.281,249.700 39.970 C 249.095 39.660,248.309 39.089,247.953 38.703 C 247.597 38.316,246.915 38.000,246.436 38.000 C 245.958 38.000,245.180 37.640,244.708 37.200 C 244.236 36.760,243.613 36.400,243.325 36.400 C 243.036 36.400,242.800 36.220,242.800 36.000 C 242.800 35.780,242.480 35.600,242.088 35.600 C 241.697 35.600,241.117 35.240,240.800 34.800 C 240.483 34.360,240.029 34.000,239.791 34.000 C 239.125 34.000,237.207 33.037,237.203 32.700 C 237.201 32.535,236.922 32.400,236.583 32.400 C 236.244 32.400,235.580 32.040,235.108 31.600 C 234.636 31.160,234.013 30.800,233.725 30.800 C 233.436 30.800,233.200 30.620,233.200 30.400 C 233.200 30.180,232.840 30.000,232.400 30.000 C 231.960 30.000,231.600 29.820,231.600 29.600 C 231.600 29.380,231.240 29.200,230.800 29.200 C 230.360 29.200,230.000 29.020,230.000 28.800 C 230.000 28.580,229.764 28.400,229.475 28.400 C 229.187 28.400,228.564 28.040,228.092 27.600 C 227.620 27.160,226.956 26.800,226.617 26.800 C 226.278 26.800,226.000 26.620,226.000 26.400 C 226.000 26.180,225.722 26.000,225.383 26.000 C 225.044 26.000,224.380 25.640,223.908 25.200 C 223.436 24.760,222.813 24.400,222.525 24.400 C 222.236 24.400,222.000 24.220,222.000 24.000 C 222.000 23.780,221.642 23.600,221.203 23.600 C 220.765 23.600,220.182 23.240,219.907 22.800 C 219.632 22.360,219.217 22.000,218.984 22.000 C 218.323 22.000,216.407 21.035,216.403 20.700 C 216.401 20.535,216.068 20.400,215.662 20.400 C 215.256 20.400,214.598 20.040,214.200 19.600 C 213.802 19.160,213.234 18.800,212.938 18.800 C 212.642 18.800,212.400 18.620,212.400 18.400 C 212.400 18.180,212.117 18.000,211.772 18.000 C 211.427 18.000,210.392 17.499,209.472 16.888 C 208.552 16.276,207.260 15.511,206.600 15.188 C 205.940 14.864,205.051 14.285,204.625 13.900 C 203.703 13.068,203.414 13.034,202.949 13.700 M283.748 90.282 C 283.903 90.437,284.515 90.629,285.108 90.708 C 285.700 90.787,286.278 90.989,286.393 91.155 C 286.665 91.553,287.961 92.083,289.149 92.282 C 289.671 92.369,290.369 92.712,290.700 93.043 C 291.032 93.375,291.544 93.554,291.839 93.440 C 292.133 93.327,292.481 93.407,292.611 93.617 C 292.741 93.828,293.197 94.000,293.624 94.000 C 294.051 94.000,294.400 94.180,294.400 94.400 C 294.400 94.620,294.648 94.800,294.951 94.800 C 296.288 94.800,296.364 95.776,296.443 114.019 C 296.486 124.019,296.673 132.398,296.859 132.639 C 297.064 132.906,296.883 133.363,296.399 133.801 C 295.959 134.199,295.600 134.822,295.600 135.187 C 295.600 135.551,295.285 136.207,294.900 136.645 C 294.515 137.083,293.975 137.837,293.700 138.320 C 293.425 138.804,292.975 139.596,292.700 140.080 C 292.425 140.563,291.885 141.317,291.500 141.755 C 291.115 142.193,290.800 142.787,290.800 143.075 C 290.800 143.364,290.620 143.600,290.400 143.600 C 290.180 143.600,290.000 143.878,290.000 144.217 C 290.000 144.556,289.640 145.220,289.200 145.692 C 288.760 146.164,288.400 146.787,288.400 147.075 C 288.400 147.364,288.220 147.600,288.000 147.600 C 287.780 147.600,287.600 147.878,287.600 148.217 C 287.600 148.556,287.240 149.220,286.800 149.692 C 286.360 150.164,286.000 150.787,286.000 151.075 C 286.000 151.364,285.820 151.600,285.600 151.600 C 285.380 151.600,285.200 151.836,285.200 152.125 C 285.200 152.413,284.840 153.036,284.400 153.508 C 283.960 153.980,283.600 154.644,283.600 154.983 C 283.600 155.322,283.450 155.600,283.268 155.600 C 283.085 155.600,282.680 156.095,282.368 156.700 C 282.055 157.305,281.485 158.149,281.100 158.575 C 280.715 159.002,280.400 159.587,280.400 159.875 C 280.400 160.164,280.220 160.400,280.000 160.400 C 279.780 160.400,279.600 160.678,279.600 161.017 C 279.600 161.356,279.240 162.020,278.800 162.492 C 278.360 162.964,278.000 163.587,278.000 163.875 C 278.000 164.164,277.820 164.400,277.600 164.400 C 277.380 164.400,277.200 164.678,277.200 165.017 C 277.200 165.356,276.840 166.020,276.400 166.492 C 275.934 166.992,275.600 167.904,275.600 168.675 L 275.600 170.000 286.400 170.000 L 297.200 170.000 297.247 179.100 C 297.300 189.271,297.343 190.344,297.728 191.200 C 297.876 191.530,298.043 196.930,298.099 203.200 L 298.200 214.600 301.706 214.652 C 303.635 214.680,305.310 214.545,305.430 214.352 C 305.763 213.812,308.309 213.934,308.517 214.500 C 308.663 214.900,308.806 214.900,309.230 214.500 C 309.624 214.128,312.253 214.000,319.480 214.000 C 330.270 214.000,330.336 214.019,328.000 216.463 C 327.340 217.154,326.800 217.879,326.800 218.076 C 326.800 218.273,326.440 218.820,326.000 219.292 C 325.560 219.764,325.200 220.387,325.200 220.675 C 325.200 220.964,325.050 221.200,324.868 221.200 C 324.685 221.200,324.280 221.692,323.968 222.293 C 323.655 222.894,322.905 223.911,322.300 224.552 C 321.695 225.194,321.200 225.962,321.200 226.259 C 321.200 226.557,321.020 226.800,320.800 226.800 C 320.580 226.800,320.400 226.993,320.400 227.228 C 320.400 227.703,318.235 230.965,317.117 232.175 C 316.722 232.602,316.400 233.104,316.400 233.292 C 316.400 233.480,316.040 234.020,315.600 234.492 C 315.160 234.964,314.800 235.587,314.800 235.875 C 314.800 236.164,314.620 236.400,314.400 236.400 C 314.180 236.400,314.000 236.643,314.000 236.941 C 314.000 237.238,313.460 238.046,312.800 238.737 C 312.140 239.428,311.600 240.264,311.600 240.596 C 311.600 240.928,311.450 241.200,311.268 241.200 C 311.085 241.200,310.680 241.695,310.368 242.300 C 310.055 242.905,309.305 243.877,308.700 244.460 C 308.095 245.044,307.600 245.809,307.600 246.160 C 307.600 246.512,307.420 246.800,307.200 246.800 C 306.980 246.800,306.800 247.025,306.799 247.300 C 306.799 247.575,306.259 248.430,305.600 249.200 C 304.941 249.970,304.401 250.785,304.401 251.012 C 304.400 251.238,304.040 251.683,303.600 252.000 C 303.160 252.317,302.800 252.762,302.799 252.988 C 302.799 253.215,302.259 254.030,301.600 254.800 C 300.941 255.570,300.401 256.385,300.401 256.612 C 300.400 256.838,300.040 257.283,299.600 257.600 C 299.160 257.917,298.800 258.497,298.800 258.888 C 298.800 259.280,298.636 259.600,298.435 259.600 C 298.044 259.600,298.094 260.173,298.584 261.305 C 298.768 261.730,298.673 262.273,298.345 262.670 C 297.919 263.186,297.909 263.367,298.300 263.498 C 299.293 263.833,298.996 298.000,298.000 298.000 C 297.560 298.000,297.200 298.180,297.200 298.400 C 297.200 298.620,296.851 298.800,296.424 298.800 C 295.997 298.800,295.536 298.980,295.400 299.200 C 295.264 299.420,294.713 299.600,294.176 299.600 C 293.639 299.600,293.200 299.780,293.200 300.000 C 293.200 300.220,292.761 300.400,292.224 300.400 C 291.687 300.400,291.136 300.580,291.000 300.800 C 290.864 301.020,290.403 301.200,289.976 301.200 C 289.549 301.200,289.200 301.380,289.200 301.600 C 289.200 301.820,288.761 302.000,288.224 302.000 C 287.687 302.000,287.136 302.180,287.000 302.400 C 286.864 302.620,286.403 302.800,285.976 302.800 C 285.219 302.800,285.199 302.318,285.143 283.500 C 285.076 260.851,285.085 261.354,284.700 260.967 C 284.299 260.566,284.313 252.503,284.715 252.333 C 284.888 252.260,285.653 251.394,286.415 250.410 C 287.177 249.425,288.436 247.985,289.213 247.210 C 289.990 246.434,291.067 245.170,291.607 244.400 C 292.146 243.630,293.625 241.956,294.894 240.680 C 296.162 239.404,297.200 238.208,297.200 238.021 C 297.200 237.834,298.055 236.796,299.100 235.714 C 302.377 232.323,304.400 229.279,304.400 227.740 C 304.400 227.389,295.621 227.642,295.400 228.000 C 295.255 228.235,292.929 228.400,289.776 228.400 L 284.400 228.400 284.343 215.500 C 284.276 200.449,284.269 200.208,283.849 198.484 C 283.643 197.635,283.691 196.973,283.984 196.619 C 284.297 196.243,284.308 195.990,284.019 195.812 C 283.759 195.651,283.600 193.435,283.600 189.976 L 283.600 184.400 266.800 184.400 C 248.780 184.400,249.195 184.452,250.800 182.400 C 251.230 181.850,251.586 181.175,251.591 180.900 C 251.596 180.625,251.780 180.400,252.000 180.400 C 252.220 180.400,252.400 180.212,252.400 179.982 C 252.400 179.752,253.300 178.230,254.400 176.600 C 255.500 174.970,256.400 173.525,256.400 173.390 C 256.400 173.255,256.901 172.392,257.512 171.472 C 258.124 170.552,258.874 169.305,259.180 168.700 C 259.485 168.095,259.885 167.600,260.068 167.600 C 260.250 167.600,260.400 167.313,260.400 166.962 C 260.400 166.318,261.578 164.455,262.889 163.025 C 263.280 162.598,263.600 161.957,263.600 161.600 C 263.600 161.243,263.915 160.594,264.300 160.158 C 265.188 159.153,266.383 157.209,266.671 156.300 C 266.793 155.915,267.052 155.600,267.247 155.600 C 267.441 155.600,267.600 155.368,267.600 155.085 C 267.600 154.802,268.133 153.947,268.784 153.185 C 269.435 152.423,269.975 151.556,269.984 151.258 C 269.993 150.959,270.540 150.033,271.200 149.200 C 271.860 148.367,272.400 147.486,272.400 147.242 C 272.400 146.999,272.580 146.800,272.800 146.800 C 273.020 146.800,273.200 146.440,273.200 146.000 C 273.200 145.560,273.359 145.200,273.553 145.200 C 273.748 145.200,274.010 144.885,274.136 144.500 C 274.490 143.417,276.341 140.360,277.634 138.723 C 278.275 137.911,278.800 137.044,278.800 136.796 C 278.800 136.302,280.940 133.062,282.083 131.825 C 282.753 131.100,282.800 129.698,282.800 110.525 C 282.800 99.236,282.950 90.000,283.133 90.000 C 283.317 90.000,283.593 90.127,283.748 90.282 M364.940 122.800 C 364.940 124.670,365.009 125.435,365.093 124.500 C 365.177 123.565,365.177 122.035,365.093 121.100 C 365.009 120.165,364.940 120.930,364.940 122.800 " stroke="none" fill="#fb8a34" fill-rule="evenodd"></path><path id="path2" d="M199.200 16.611 C 197.990 17.346,196.370 18.259,195.600 18.641 C 194.830 19.022,193.930 19.548,193.600 19.809 C 193.270 20.070,192.010 20.798,190.800 21.428 C 189.590 22.057,187.848 23.073,186.928 23.686 C 186.008 24.299,185.136 24.800,184.990 24.800 C 184.843 24.800,184.246 25.133,183.662 25.539 C 183.078 25.945,181.610 26.821,180.400 27.485 C 179.190 28.149,176.580 29.644,174.600 30.809 C 172.620 31.973,170.280 33.308,169.400 33.775 C 168.520 34.243,167.039 35.114,166.108 35.712 C 165.177 36.311,164.319 36.800,164.200 36.800 C 164.081 36.800,163.223 37.289,162.292 37.888 C 161.361 38.486,159.880 39.355,159.000 39.820 C 158.120 40.285,156.725 41.055,155.900 41.532 C 155.075 42.010,153.725 42.781,152.900 43.247 C 152.075 43.713,150.922 44.433,150.338 44.847 C 149.754 45.261,149.177 45.600,149.056 45.600 C 148.934 45.600,147.882 46.165,146.718 46.856 C 145.553 47.547,144.015 48.447,143.300 48.856 C 140.396 50.518,139.129 51.240,137.700 52.047 C 136.875 52.513,135.750 53.194,135.200 53.561 C 134.650 53.928,133.662 54.492,133.005 54.814 C 132.348 55.136,130.686 56.075,129.312 56.900 C 127.938 57.725,126.690 58.400,126.539 58.400 C 126.387 58.400,125.979 58.647,125.631 58.948 C 125.284 59.250,124.190 59.944,123.200 60.492 C 122.210 61.039,120.447 62.053,119.282 62.744 C 118.118 63.435,117.101 64.000,117.023 64.000 C 116.945 64.000,115.697 64.720,114.248 65.600 C 112.800 66.480,111.509 67.200,111.379 67.200 C 111.250 67.200,110.359 67.740,109.400 68.400 C 108.441 69.060,107.550 69.600,107.420 69.600 C 107.290 69.600,106.513 70.021,105.692 70.536 C 104.141 71.510,101.756 72.863,98.000 74.900 C 96.790 75.557,95.350 76.394,94.800 76.761 C 94.250 77.128,93.260 77.692,92.600 78.014 C 91.940 78.335,91.310 78.689,91.200 78.799 C 90.949 79.051,89.473 79.894,87.400 80.970 C 86.520 81.426,85.710 81.890,85.600 82.000 C 85.348 82.252,83.869 83.096,81.800 84.170 C 80.920 84.626,80.110 85.090,80.000 85.200 C 79.890 85.310,79.395 85.625,78.900 85.900 C 78.405 86.175,77.595 86.625,77.100 86.900 C 76.605 87.175,76.110 87.490,76.000 87.600 C 75.890 87.710,75.035 88.205,74.100 88.700 C 73.165 89.195,71.635 90.005,70.700 90.500 C 69.765 90.995,68.910 91.490,68.800 91.600 C 68.690 91.710,68.170 92.042,67.645 92.338 C 67.120 92.633,66.085 93.218,65.345 93.638 C 64.605 94.057,63.395 94.743,62.655 95.162 C 61.915 95.582,60.880 96.167,60.355 96.462 C 59.830 96.758,59.310 97.090,59.200 97.200 C 59.090 97.310,58.280 97.774,57.400 98.230 C 55.327 99.306,53.851 100.149,53.600 100.401 C 53.490 100.511,52.860 100.865,52.200 101.186 C 51.540 101.508,50.550 102.072,50.000 102.439 C 48.832 103.219,46.463 104.576,44.200 105.762 C 41.506 107.173,41.566 106.995,41.701 113.283 L 41.824 119.000 41.912 113.396 C 42.012 107.018,41.576 107.794,46.438 105.354 C 47.930 104.605,49.387 103.769,49.676 103.496 C 49.965 103.223,51.710 102.218,53.554 101.262 C 55.398 100.306,57.468 99.183,58.153 98.767 C 58.839 98.351,59.850 97.828,60.400 97.605 C 60.950 97.382,61.740 97.003,62.155 96.762 C 62.570 96.522,63.560 95.965,64.355 95.525 C 65.150 95.085,65.971 94.562,66.180 94.362 C 66.398 94.155,76.014 94.000,88.680 94.000 C 103.160 94.000,110.800 93.862,110.800 93.600 C 110.800 92.957,201.060 93.056,201.476 93.700 C 201.654 93.975,201.899 104.280,202.020 116.600 C 202.163 131.080,202.267 117.433,202.315 78.000 C 202.356 44.450,202.281 16.595,202.148 16.100 C 201.850 14.988,201.880 14.982,199.200 16.611 M202.594 215.200 C 202.594 245.010,202.642 257.205,202.700 242.300 C 202.758 227.395,202.758 203.005,202.700 188.100 C 202.642 173.195,202.594 185.390,202.594 215.200 M41.393 206.600 C 41.393 231.020,41.441 240.951,41.500 228.669 C 41.559 216.387,41.559 196.407,41.500 184.269 C 41.441 172.131,41.393 182.180,41.393 206.600 M48.946 298.202 C 50.405 298.963,50.775 298.968,49.776 298.213 C 49.349 297.890,48.730 297.621,48.400 297.615 C 48.070 297.610,48.316 297.874,48.946 298.202 M54.100 301.076 C 54.485 301.176,54.800 301.425,54.800 301.629 C 54.800 301.833,55.002 302.000,55.249 302.000 C 55.559 302.000,55.544 301.815,55.200 301.400 C 54.926 301.070,54.409 300.821,54.051 300.846 C 53.502 300.886,53.509 300.921,54.100 301.076 M63.700 306.676 C 64.085 306.776,64.400 307.025,64.400 307.229 C 64.400 307.433,64.602 307.600,64.849 307.600 C 65.159 307.600,65.144 307.415,64.800 307.000 C 64.526 306.670,64.009 306.421,63.651 306.446 C 63.102 306.486,63.109 306.521,63.700 306.676 M70.003 310.277 C 70.006 310.606,72.045 311.688,72.259 311.475 C 72.323 311.411,71.841 311.042,71.188 310.656 C 70.534 310.270,70.001 310.100,70.003 310.277 M72.803 311.886 C 72.805 312.059,73.255 312.408,73.804 312.663 C 74.352 312.917,74.701 312.963,74.578 312.765 C 74.252 312.237,72.799 311.518,72.803 311.886 " stroke="none" fill="#747474" fill-rule="evenodd"></path><path id="path3" d="M110.800 93.598 C 110.800 93.862,103.223 94.000,88.680 94.000 C 76.014 94.000,66.398 94.155,66.180 94.362 C 65.971 94.562,65.150 95.085,64.355 95.525 C 63.560 95.965,62.570 96.522,62.155 96.762 C 61.740 97.003,60.950 97.382,60.400 97.605 C 59.850 97.828,58.839 98.351,58.153 98.767 C 57.468 99.183,55.398 100.306,53.554 101.262 C 51.710 102.218,49.959 103.229,49.663 103.510 C 49.366 103.790,47.836 104.658,46.262 105.438 C 44.688 106.218,43.040 107.121,42.600 107.445 C 41.807 108.029,41.800 108.523,41.756 160.717 C 41.729 192.121,41.826 207.988,41.994 200.000 C 42.150 192.630,42.419 185.205,42.594 183.500 L 42.910 180.400 92.855 180.400 C 125.885 180.400,142.800 180.265,142.800 180.000 C 142.800 179.358,201.060 179.457,201.476 180.100 C 201.654 180.375,201.913 194.280,202.050 211.000 C 202.188 227.720,202.216 209.360,202.112 170.200 C 202.008 131.040,201.806 97.740,201.662 96.200 L 201.400 93.400 156.100 93.298 C 125.971 93.231,110.800 93.331,110.800 93.598 M41.386 271.800 C 41.386 283.460,41.437 288.172,41.500 282.272 C 41.562 276.371,41.562 266.831,41.500 261.072 C 41.437 255.312,41.386 260.140,41.386 271.800 M202.400 327.447 L 202.400 385.693 201.542 385.469 C 200.930 385.309,200.808 385.368,201.115 385.675 C 201.352 385.912,201.828 385.998,202.173 385.866 C 202.784 385.631,203.210 269.200,202.600 269.200 C 202.490 269.200,202.400 295.411,202.400 327.447 M42.086 293.989 C 42.365 294.436,42.775 294.741,42.997 294.667 C 43.219 294.593,44.545 295.233,45.944 296.089 C 47.343 296.945,48.574 297.560,48.678 297.455 C 48.783 297.350,48.448 297.029,47.934 296.742 C 47.420 296.454,46.710 296.035,46.356 295.809 C 43.595 294.056,41.595 293.203,42.086 293.989 M49.991 298.285 C 50.537 298.678,51.317 299.330,51.725 299.733 C 52.133 300.137,52.554 300.379,52.662 300.272 C 52.884 300.050,53.861 300.545,56.292 302.110 C 57.223 302.710,58.123 303.196,58.292 303.191 C 58.718 303.179,56.688 301.620,56.231 301.609 C 56.029 301.604,55.579 301.359,55.231 301.064 C 54.884 300.770,53.340 299.863,51.800 299.049 C 50.260 298.236,49.446 297.892,49.991 298.285 M58.954 303.526 C 59.087 303.741,59.962 304.300,60.898 304.769 C 61.933 305.287,62.287 305.370,61.800 304.980 C 60.683 304.085,58.661 303.052,58.954 303.526 M64.597 306.796 C 64.739 307.024,65.607 307.589,66.527 308.050 C 68.537 309.057,68.033 308.426,65.870 307.228 C 65.029 306.762,64.456 306.567,64.597 306.796 M68.713 309.295 C 69.179 309.856,70.800 310.538,70.800 310.173 C 70.800 310.089,70.215 309.718,69.500 309.348 C 68.401 308.780,68.279 308.772,68.713 309.295 M74.168 312.349 C 74.294 312.551,75.162 313.112,76.098 313.594 C 77.034 314.077,77.620 314.292,77.400 314.073 C 76.790 313.466,73.909 311.929,74.168 312.349 M78.257 315.005 C 78.383 315.332,78.743 315.600,79.057 315.600 C 79.371 315.600,80.072 315.891,80.614 316.246 C 81.156 316.601,81.595 316.736,81.589 316.546 C 81.583 316.356,80.780 315.797,79.804 315.305 C 78.464 314.630,78.085 314.556,78.257 315.005 M83.768 317.949 C 83.894 318.151,84.762 318.712,85.698 319.194 C 86.634 319.677,87.220 319.892,87.000 319.673 C 86.390 319.066,83.509 317.529,83.768 317.949 M87.839 320.559 C 87.957 320.866,88.447 321.203,88.927 321.307 C 89.407 321.412,90.160 321.627,90.600 321.787 C 91.040 321.946,90.617 321.609,89.659 321.038 C 87.643 319.836,87.553 319.812,87.839 320.559 M93.374 323.559 C 93.744 324.157,96.800 325.616,96.800 325.194 C 96.800 324.977,96.575 324.796,96.300 324.791 C 96.025 324.786,95.350 324.430,94.800 324.000 C 93.752 323.181,92.996 322.946,93.374 323.559 M97.671 326.100 C 97.962 326.376,99.426 327.231,100.924 328.000 C 102.423 328.770,103.990 329.715,104.408 330.100 C 104.825 330.485,105.367 330.800,105.611 330.800 C 105.856 330.800,106.841 331.340,107.800 332.000 C 108.759 332.660,109.722 333.200,109.939 333.200 C 110.156 333.200,110.393 333.335,110.467 333.500 C 110.540 333.665,111.455 334.230,112.500 334.756 C 113.545 335.281,114.400 335.866,114.400 336.056 C 114.400 336.245,114.687 336.400,115.038 336.400 C 115.389 336.400,116.185 336.762,116.807 337.205 C 117.428 337.647,118.896 338.516,120.068 339.135 C 122.746 340.548,124.143 341.343,124.400 341.600 C 124.600 341.800,127.410 343.331,129.097 344.160 C 129.590 344.402,129.995 344.735,129.997 344.900 C 129.999 345.065,130.270 345.200,130.600 345.200 C 130.930 345.200,131.200 345.380,131.200 345.600 C 131.200 345.820,131.605 345.999,132.100 345.998 C 132.984 345.995,132.982 345.985,132.000 345.460 C 131.450 345.166,130.325 344.537,129.500 344.063 C 128.675 343.588,127.370 342.840,126.600 342.400 C 125.830 341.960,124.570 341.240,123.800 340.800 C 123.030 340.360,121.770 339.640,121.000 339.200 C 120.230 338.760,118.970 338.040,118.200 337.600 C 117.430 337.160,116.125 336.419,115.300 335.953 C 114.475 335.487,113.322 334.767,112.738 334.353 C 112.154 333.939,111.566 333.600,111.431 333.600 C 111.296 333.600,110.000 332.880,108.552 332.000 C 107.103 331.120,105.865 330.400,105.800 330.400 C 105.735 330.400,104.497 329.680,103.048 328.800 C 101.600 327.920,100.276 327.196,100.107 327.191 C 99.938 327.186,99.350 326.830,98.800 326.400 C 97.696 325.537,96.834 325.308,97.671 326.100 M133.671 346.925 C 133.962 347.213,134.785 347.707,135.500 348.022 C 136.215 348.337,136.800 348.710,136.800 348.851 C 136.800 348.992,137.205 349.210,137.700 349.337 C 138.569 349.560,138.565 349.541,137.600 348.793 C 137.050 348.367,136.420 348.010,136.200 348.000 C 135.980 347.990,135.350 347.630,134.800 347.200 C 133.673 346.319,132.861 346.121,133.671 346.925 M139.700 350.303 C 140.305 350.678,140.800 351.124,140.800 351.293 C 140.800 351.462,141.124 351.600,141.520 351.600 C 141.916 351.600,142.411 351.763,142.620 351.962 C 142.988 352.314,144.594 353.253,147.710 354.941 C 148.540 355.391,149.568 356.083,149.993 356.479 C 150.419 356.876,151.033 357.200,151.360 357.200 C 151.686 357.200,152.064 357.380,152.200 357.600 C 152.336 357.820,152.749 358.000,153.118 358.000 C 153.486 358.000,153.071 357.623,152.194 357.162 C 151.317 356.701,150.206 356.075,149.726 355.770 C 149.245 355.465,148.210 354.852,147.426 354.408 C 146.641 353.963,145.370 353.240,144.600 352.800 C 143.830 352.360,142.525 351.623,141.700 351.162 C 140.875 350.702,140.029 350.162,139.820 349.962 C 139.611 349.763,139.251 349.605,139.020 349.611 C 138.789 349.616,139.095 349.928,139.700 350.303 M154.624 358.987 C 155.051 359.310,155.625 359.580,155.900 359.587 C 156.175 359.594,156.400 359.780,156.400 360.000 C 156.400 360.220,156.670 360.400,157.000 360.400 C 157.330 360.400,157.600 360.580,157.600 360.800 C 157.600 361.020,157.883 361.200,158.228 361.200 C 158.573 361.200,159.641 361.740,160.600 362.400 C 161.559 363.060,162.537 363.600,162.772 363.600 C 163.007 363.600,163.200 363.759,163.200 363.953 C 163.200 364.148,163.560 364.401,164.000 364.516 C 165.736 364.970,164.077 363.896,155.788 359.200 C 154.132 358.262,153.516 358.149,154.624 358.987 M165.811 365.352 C 166.245 365.655,167.250 366.268,168.045 366.714 C 168.840 367.160,169.920 367.767,170.445 368.062 C 170.970 368.358,171.490 368.692,171.600 368.805 C 171.710 368.918,172.647 369.438,173.682 369.959 C 174.718 370.481,175.925 371.243,176.366 371.654 C 176.806 372.064,177.399 372.404,177.683 372.409 C 177.967 372.414,178.650 372.770,179.200 373.200 C 179.750 373.630,180.425 373.986,180.700 373.991 C 180.975 373.996,181.200 374.138,181.200 374.306 C 181.200 374.474,181.875 374.918,182.700 375.294 C 184.330 376.035,186.481 377.262,186.800 377.632 C 186.910 377.760,187.585 378.119,188.300 378.430 C 189.015 378.741,189.600 379.110,189.600 379.251 C 189.600 379.392,190.005 379.610,190.500 379.737 L 191.400 379.968 190.502 379.284 C 190.008 378.908,188.748 378.159,187.702 377.621 C 186.656 377.083,185.350 376.345,184.800 375.982 C 184.250 375.619,182.810 374.781,181.600 374.120 C 180.390 373.458,178.410 372.326,177.200 371.603 C 175.990 370.880,174.415 369.953,173.700 369.544 C 170.468 367.694,169.503 367.146,168.100 366.362 C 167.275 365.902,166.429 365.362,166.220 365.162 C 166.011 364.963,165.656 364.800,165.431 364.800 C 165.206 364.800,165.377 365.048,165.811 365.352 M192.211 380.552 C 193.034 381.127,195.145 382.352,197.700 383.736 C 198.525 384.183,199.200 384.695,199.200 384.874 C 199.200 385.053,199.510 385.200,199.889 385.200 C 200.875 385.200,200.209 384.751,194.500 381.562 C 193.675 381.102,192.829 380.562,192.620 380.362 C 192.411 380.163,192.056 380.000,191.831 380.000 C 191.606 380.000,191.777 380.248,192.211 380.552 " stroke="none" fill="#636363" fill-rule="evenodd"></path><path id="path4" d="M201.200 13.600 C 201.200 13.820,200.922 14.000,200.583 14.000 C 200.244 14.000,199.580 14.360,199.108 14.800 C 198.636 15.240,198.013 15.600,197.725 15.600 C 197.436 15.600,197.200 15.780,197.200 16.000 C 197.200 16.220,196.855 16.400,196.433 16.400 C 196.012 16.400,195.607 16.535,195.533 16.700 C 195.366 17.076,193.236 18.375,192.300 18.671 C 191.915 18.793,191.600 19.052,191.600 19.247 C 191.600 19.441,191.240 19.600,190.800 19.600 C 190.360 19.600,190.000 19.780,190.000 20.000 C 190.000 20.220,189.680 20.400,189.288 20.400 C 188.897 20.400,188.317 20.760,188.000 21.200 C 187.683 21.640,187.103 22.000,186.712 22.000 C 186.320 22.000,186.000 22.180,186.000 22.400 C 186.000 22.620,185.640 22.800,185.200 22.800 C 184.760 22.800,184.400 22.980,184.400 23.200 C 184.400 23.420,184.164 23.600,183.875 23.600 C 183.587 23.600,182.993 23.915,182.555 24.300 C 181.430 25.289,180.114 26.000,179.405 26.000 C 179.072 26.000,178.800 26.150,178.800 26.332 C 178.800 26.515,178.305 26.920,177.700 27.232 C 177.095 27.544,176.510 27.891,176.400 28.005 C 176.290 28.118,175.345 28.642,174.300 29.168 C 173.255 29.695,172.400 30.277,172.400 30.463 C 172.400 30.648,172.040 30.800,171.600 30.800 C 171.160 30.800,170.800 30.980,170.800 31.200 C 170.800 31.420,170.455 31.600,170.033 31.600 C 169.612 31.600,169.207 31.735,169.133 31.900 C 168.966 32.276,166.836 33.575,165.900 33.871 C 165.515 33.993,165.200 34.252,165.200 34.447 C 165.200 34.641,164.840 34.800,164.400 34.800 C 163.960 34.800,163.600 34.980,163.600 35.200 C 163.600 35.420,163.364 35.600,163.075 35.600 C 162.787 35.600,162.164 35.960,161.692 36.400 C 161.220 36.840,160.556 37.200,160.217 37.200 C 159.878 37.200,159.600 37.380,159.600 37.600 C 159.600 37.820,159.240 38.000,158.800 38.000 C 158.360 38.000,158.000 38.180,158.000 38.400 C 158.000 38.620,157.764 38.800,157.475 38.800 C 157.187 38.800,156.564 39.160,156.092 39.600 C 155.620 40.040,154.956 40.400,154.617 40.400 C 154.278 40.400,154.000 40.580,154.000 40.800 C 154.000 41.020,153.764 41.200,153.475 41.200 C 153.187 41.200,152.564 41.560,152.092 42.000 C 151.620 42.440,150.956 42.800,150.617 42.800 C 150.278 42.800,150.000 42.980,150.000 43.200 C 150.000 43.420,149.640 43.600,149.200 43.600 C 148.760 43.600,148.400 43.780,148.400 44.000 C 148.400 44.220,148.164 44.400,147.875 44.400 C 147.587 44.400,146.993 44.715,146.555 45.100 C 145.539 45.993,144.132 46.800,143.589 46.800 C 143.357 46.800,142.780 47.160,142.308 47.600 C 141.836 48.040,141.213 48.400,140.925 48.400 C 140.636 48.400,140.400 48.580,140.400 48.800 C 140.400 49.020,140.040 49.200,139.600 49.200 C 139.160 49.200,138.800 49.380,138.800 49.600 C 138.800 49.820,138.564 50.000,138.275 50.000 C 137.987 50.000,137.364 50.360,136.892 50.800 C 136.420 51.240,135.756 51.600,135.417 51.600 C 135.078 51.600,134.800 51.780,134.800 52.000 C 134.800 52.220,134.455 52.400,134.033 52.400 C 133.612 52.400,133.207 52.535,133.133 52.700 C 132.966 53.076,130.836 54.375,129.900 54.671 C 129.515 54.793,129.200 55.052,129.200 55.247 C 129.200 55.441,128.840 55.600,128.400 55.600 C 127.960 55.600,127.600 55.780,127.600 56.000 C 127.600 56.220,127.364 56.400,127.075 56.400 C 126.787 56.400,126.164 56.760,125.692 57.200 C 125.220 57.640,124.556 58.000,124.217 58.000 C 123.878 58.000,123.600 58.180,123.600 58.400 C 123.600 58.620,123.240 58.800,122.800 58.800 C 122.360 58.800,122.000 58.980,122.000 59.200 C 122.000 59.420,121.764 59.600,121.475 59.600 C 121.187 59.600,120.564 59.960,120.092 60.400 C 119.620 60.840,118.956 61.200,118.617 61.200 C 118.278 61.200,118.000 61.380,118.000 61.600 C 118.000 61.820,117.680 62.000,117.288 62.000 C 116.897 62.000,116.317 62.360,116.000 62.800 C 115.683 63.240,115.103 63.600,114.712 63.600 C 114.320 63.600,114.000 63.780,114.000 64.000 C 114.000 64.220,113.640 64.400,113.200 64.400 C 112.760 64.400,112.400 64.580,112.400 64.800 C 112.400 65.020,112.164 65.200,111.875 65.200 C 111.587 65.200,110.964 65.560,110.492 66.000 C 110.020 66.440,109.356 66.800,109.017 66.800 C 108.678 66.800,108.400 66.980,108.400 67.200 C 108.400 67.420,108.080 67.600,107.688 67.600 C 107.297 67.600,106.717 67.960,106.400 68.400 C 106.083 68.840,105.503 69.200,105.112 69.200 C 104.720 69.200,104.400 69.380,104.400 69.600 C 104.400 69.820,104.040 70.000,103.600 70.000 C 103.160 70.000,102.800 70.180,102.800 70.400 C 102.800 70.620,102.564 70.800,102.275 70.800 C 101.987 70.800,101.364 71.160,100.892 71.600 C 100.420 72.040,99.756 72.400,99.417 72.400 C 99.078 72.400,98.800 72.580,98.800 72.800 C 98.800 73.020,98.440 73.200,98.000 73.200 C 97.560 73.200,97.200 73.380,97.200 73.600 C 97.200 73.820,96.964 74.000,96.675 74.000 C 96.387 74.000,95.764 74.360,95.292 74.800 C 94.820 75.240,94.156 75.600,93.817 75.600 C 93.478 75.600,93.200 75.780,93.200 76.000 C 93.200 76.220,92.840 76.400,92.400 76.400 C 91.960 76.400,91.600 76.580,91.600 76.800 C 91.600 77.020,91.364 77.200,91.075 77.200 C 90.787 77.200,90.164 77.560,89.692 78.000 C 89.220 78.440,88.571 78.800,88.250 78.800 C 87.929 78.800,87.607 78.935,87.533 79.100 C 87.460 79.265,86.545 79.833,85.500 80.363 C 84.455 80.892,83.600 81.477,83.600 81.663 C 83.600 81.848,83.240 82.000,82.800 82.000 C 82.360 82.000,82.000 82.180,82.000 82.400 C 82.000 82.620,81.680 82.800,81.288 82.800 C 80.897 82.800,80.317 83.160,80.000 83.600 C 79.683 84.040,79.118 84.400,78.745 84.400 C 78.372 84.400,78.007 84.535,77.933 84.700 C 77.860 84.865,76.945 85.433,75.900 85.963 C 74.855 86.492,74.000 87.077,74.000 87.263 C 74.000 87.448,73.640 87.600,73.200 87.600 C 72.760 87.600,72.400 87.780,72.400 88.000 C 72.400 88.220,72.040 88.400,71.600 88.400 C 71.160 88.400,70.800 88.580,70.800 88.800 C 70.800 89.020,70.564 89.200,70.275 89.200 C 69.987 89.200,69.364 89.560,68.892 90.000 C 68.420 90.440,67.756 90.800,67.417 90.800 C 67.078 90.800,66.800 90.938,66.800 91.106 C 66.800 91.274,66.104 91.713,65.253 92.082 C 64.401 92.450,63.456 92.988,63.153 93.276 C 62.652 93.750,60.458 95.004,58.103 96.160 C 57.610 96.402,57.205 96.735,57.203 96.900 C 57.201 97.065,56.840 97.200,56.400 97.200 C 55.960 97.200,55.600 97.380,55.600 97.600 C 55.600 97.820,55.280 98.000,54.888 98.000 C 54.497 98.000,53.917 98.360,53.600 98.800 C 53.283 99.240,52.703 99.600,52.312 99.600 C 51.920 99.600,51.600 99.780,51.600 100.000 C 51.600 100.220,51.240 100.400,50.800 100.400 C 50.360 100.400,50.000 100.580,50.000 100.800 C 50.000 101.020,49.764 101.200,49.475 101.200 C 49.187 101.200,48.564 101.560,48.092 102.000 C 47.620 102.440,46.956 102.800,46.617 102.800 C 46.278 102.800,46.000 102.980,46.000 103.200 C 46.000 103.420,45.680 103.600,45.288 103.600 C 44.897 103.600,44.317 103.960,44.000 104.400 C 43.683 104.840,43.103 105.200,42.712 105.200 C 42.320 105.200,42.000 105.359,42.000 105.553 C 42.000 105.748,41.640 106.001,41.199 106.116 C 40.401 106.325,40.399 106.587,40.499 200.236 L 40.600 294.146 42.200 295.054 C 43.080 295.553,44.070 296.091,44.400 296.248 C 44.730 296.406,45.752 297.044,46.672 297.667 C 47.592 298.290,48.492 298.804,48.672 298.809 C 48.852 298.814,49.450 299.170,50.000 299.600 C 51.088 300.451,52.000 300.634,52.000 300.000 C 52.000 299.780,51.730 299.600,51.400 299.600 C 51.070 299.600,50.800 299.454,50.800 299.275 C 50.800 299.096,50.170 298.702,49.400 298.400 C 48.630 298.098,48.000 297.704,48.000 297.525 C 48.000 297.346,47.640 297.200,47.200 297.200 C 46.760 297.200,46.400 297.020,46.400 296.800 C 46.400 296.580,46.130 296.400,45.800 296.400 C 45.470 296.400,45.200 296.264,45.200 296.098 C 45.200 295.931,44.615 295.536,43.900 295.220 C 43.185 294.903,42.255 294.324,41.834 293.931 C 40.852 293.016,41.099 108.018,42.084 107.088 C 42.368 106.819,43.320 106.223,44.200 105.762 C 46.463 104.576,48.832 103.219,50.000 102.439 C 50.550 102.072,51.540 101.508,52.200 101.186 C 52.860 100.865,53.490 100.511,53.600 100.401 C 53.851 100.149,55.327 99.306,57.400 98.230 C 58.280 97.774,59.090 97.310,59.200 97.200 C 59.310 97.090,59.830 96.758,60.355 96.462 C 60.880 96.167,61.915 95.582,62.655 95.162 C 63.395 94.743,64.605 94.057,65.345 93.638 C 66.085 93.218,67.120 92.633,67.645 92.338 C 68.170 92.042,68.690 91.710,68.800 91.600 C 68.910 91.490,69.765 90.995,70.700 90.500 C 71.635 90.005,73.165 89.195,74.100 88.700 C 75.035 88.205,75.890 87.710,76.000 87.600 C 76.110 87.490,76.605 87.175,77.100 86.900 C 77.595 86.625,78.405 86.175,78.900 85.900 C 79.395 85.625,79.890 85.310,80.000 85.200 C 80.110 85.090,80.920 84.626,81.800 84.170 C 83.869 83.096,85.348 82.252,85.600 82.000 C 85.710 81.890,86.520 81.426,87.400 80.970 C 89.473 79.894,90.949 79.051,91.200 78.799 C 91.310 78.689,91.940 78.335,92.600 78.014 C 93.260 77.692,94.250 77.128,94.800 76.761 C 95.350 76.394,96.790 75.557,98.000 74.900 C 101.756 72.863,104.141 71.510,105.692 70.536 C 106.513 70.021,107.290 69.600,107.420 69.600 C 107.550 69.600,108.441 69.060,109.400 68.400 C 110.359 67.740,111.250 67.200,111.379 67.200 C 111.509 67.200,112.800 66.480,114.248 65.600 C 115.697 64.720,116.945 64.000,117.023 64.000 C 117.101 64.000,118.118 63.435,119.282 62.744 C 120.447 62.053,122.210 61.039,123.200 60.492 C 124.190 59.944,125.284 59.250,125.631 58.948 C 125.979 58.647,126.387 58.400,126.539 58.400 C 126.690 58.400,127.938 57.725,129.312 56.900 C 130.686 56.075,132.348 55.136,133.005 54.814 C 133.662 54.492,134.650 53.928,135.200 53.561 C 135.750 53.194,136.875 52.513,137.700 52.047 C 139.129 51.240,140.396 50.518,143.300 48.856 C 144.015 48.447,145.553 47.547,146.718 46.856 C 147.882 46.165,148.934 45.600,149.056 45.600 C 149.177 45.600,149.754 45.261,150.338 44.847 C 150.922 44.433,152.075 43.713,152.900 43.247 C 153.725 42.781,155.075 42.010,155.900 41.532 C 156.725 41.055,158.120 40.285,159.000 39.820 C 159.880 39.355,161.361 38.486,162.292 37.888 C 163.223 37.289,164.081 36.800,164.200 36.800 C 164.319 36.800,165.177 36.311,166.108 35.712 C 167.039 35.114,168.520 34.243,169.400 33.775 C 170.280 33.308,172.620 31.973,174.600 30.809 C 176.580 29.644,179.190 28.149,180.400 27.485 C 181.610 26.821,183.078 25.945,183.662 25.539 C 184.246 25.133,184.843 24.800,184.990 24.800 C 185.136 24.800,186.008 24.299,186.928 23.686 C 187.848 23.073,189.590 22.056,190.800 21.426 C 192.010 20.796,193.239 20.094,193.530 19.866 C 193.822 19.638,194.755 19.080,195.603 18.626 C 196.452 18.172,198.179 17.216,199.441 16.502 C 200.704 15.787,201.841 15.307,201.968 15.434 C 202.096 15.562,202.300 23.076,202.423 32.133 L 202.646 48.600 202.682 31.200 C 202.709 18.072,202.833 13.827,203.188 13.910 C 203.448 13.970,203.545 13.835,203.406 13.610 C 203.080 13.082,201.200 13.074,201.200 13.600 M279.030 57.148 C 279.454 57.560,279.871 57.834,279.957 57.758 C 280.209 57.535,279.143 56.400,278.681 56.400 C 278.449 56.400,278.607 56.737,279.030 57.148 M202.592 124.600 C 202.592 144.840,202.640 153.179,202.700 143.130 C 202.759 133.082,202.759 116.522,202.700 106.330 C 202.640 96.139,202.592 104.360,202.592 124.600 M364.400 199.976 C 364.400 263.990,364.531 294.000,364.810 294.000 C 365.352 294.000,365.317 106.519,364.775 106.185 C 364.542 106.041,364.400 141.529,364.400 199.976 M296.493 125.600 C 296.493 126.370,296.575 126.685,296.676 126.300 C 296.776 125.915,296.776 125.285,296.676 124.900 C 296.575 124.515,296.493 124.830,296.493 125.600 M276.200 170.400 C 276.355 170.650,280.337 170.800,286.824 170.800 C 293.475 170.800,297.200 170.656,297.200 170.400 C 297.200 170.143,293.392 170.000,286.576 170.000 C 279.596 170.000,276.038 170.137,276.200 170.400 M297.206 192.876 C 297.209 194.044,297.387 195.270,297.600 195.600 C 297.873 196.023,297.990 195.470,297.994 193.724 C 297.997 192.362,297.820 191.136,297.600 191.000 C 297.352 190.847,297.202 191.561,297.206 192.876 M283.628 193.676 C 283.613 194.708,283.780 195.664,284.000 195.800 C 284.488 196.102,284.488 193.737,284.000 192.600 C 283.741 191.996,283.649 192.260,283.628 193.676 M283.750 196.987 C 283.626 197.310,283.707 198.075,283.931 198.687 C 284.319 199.752,284.338 199.727,284.368 198.100 C 284.401 196.370,284.156 195.929,283.750 196.987 M305.400 214.400 C 305.251 214.642,305.796 214.800,306.776 214.800 C 307.669 214.800,308.400 214.620,308.400 214.400 C 308.400 214.180,307.781 214.000,307.024 214.000 C 306.267 214.000,305.536 214.180,305.400 214.400 M309.404 214.394 C 309.252 214.640,309.655 214.694,310.480 214.537 C 312.249 214.200,312.401 214.000,310.890 214.000 C 310.207 214.000,309.538 214.177,309.404 214.394 M292.000 228.000 C 291.210 228.253,291.436 228.329,293.076 228.360 C 294.218 228.382,295.264 228.220,295.400 228.000 C 295.692 227.528,293.475 227.528,292.000 228.000 M304.046 228.667 C 304.021 228.924,303.884 229.464,303.741 229.867 C 303.540 230.436,303.594 230.497,303.979 230.142 C 304.252 229.891,304.389 229.351,304.284 228.942 C 304.179 228.534,304.072 228.410,304.046 228.667 M312.893 238.000 C 312.618 238.440,312.531 238.800,312.700 238.800 C 312.869 238.800,313.232 238.440,313.507 238.000 C 313.782 237.560,313.869 237.200,313.700 237.200 C 313.531 237.200,313.168 237.560,312.893 238.000 M293.000 242.520 C 291.696 244.118,291.590 244.454,292.715 243.425 C 293.422 242.779,294.000 242.194,294.000 242.125 C 294.000 241.822,293.365 242.074,293.000 242.520 M309.002 243.598 C 308.603 244.039,308.407 244.400,308.567 244.400 C 308.988 244.400,310.128 243.195,309.912 242.979 C 309.811 242.878,309.402 243.156,309.002 243.598 M284.428 258.676 C 284.413 259.818,284.580 260.864,284.800 261.000 C 285.290 261.303,285.290 258.541,284.800 257.400 C 284.547 256.811,284.449 257.147,284.428 258.676 M298.000 261.800 C 298.000 262.396,298.172 262.741,298.400 262.600 C 298.620 262.464,298.800 262.104,298.800 261.800 C 298.800 261.496,298.620 261.136,298.400 261.000 C 298.172 260.859,298.000 261.204,298.000 261.800 M298.040 266.500 C 298.121 272.478,298.683 274.232,298.744 268.700 C 298.779 265.529,298.649 263.600,298.400 263.600 C 298.166 263.600,298.016 264.807,298.040 266.500 M285.247 300.100 C 285.220 301.665,285.368 302.800,285.600 302.800 C 286.056 302.800,286.056 300.390,285.600 298.600 C 285.364 297.673,285.284 298.014,285.247 300.100 M52.400 300.629 C 52.400 301.098,53.565 302.000,54.171 302.000 C 54.517 302.000,54.800 302.180,54.800 302.400 C 54.800 302.620,55.070 302.800,55.400 302.800 C 55.730 302.800,56.000 302.620,56.000 302.400 C 56.000 302.180,55.730 302.000,55.400 302.000 C 55.070 302.000,54.800 301.820,54.800 301.600 C 54.800 301.380,54.530 301.200,54.200 301.200 C 53.870 301.200,53.600 301.020,53.600 300.800 C 53.600 300.580,53.330 300.400,53.000 300.400 C 52.670 300.400,52.400 300.503,52.400 300.629 M56.400 303.166 C 56.400 303.368,56.940 303.772,57.600 304.064 C 58.260 304.356,58.800 304.731,58.800 304.898 C 58.800 305.064,59.149 305.200,59.576 305.200 C 60.003 305.200,60.464 305.380,60.600 305.600 C 60.736 305.820,61.017 306.000,61.224 306.000 C 61.431 306.000,61.600 305.820,61.600 305.600 C 61.600 305.380,61.330 305.200,61.000 305.200 C 60.670 305.200,60.400 305.054,60.400 304.875 C 60.400 304.696,59.770 304.302,59.000 304.000 C 58.230 303.698,57.600 303.304,57.600 303.125 C 57.600 302.946,57.330 302.800,57.000 302.800 C 56.670 302.800,56.400 302.965,56.400 303.166 M62.600 306.800 C 62.998 307.240,63.551 307.600,63.829 307.600 C 64.106 307.600,64.404 307.812,64.491 308.072 C 64.594 308.383,64.913 308.427,65.424 308.202 C 66.159 307.877,66.152 307.851,65.300 307.702 C 64.805 307.615,64.400 307.377,64.400 307.172 C 64.400 306.967,64.130 306.800,63.800 306.800 C 63.470 306.800,63.200 306.620,63.200 306.400 C 63.200 306.180,62.902 306.000,62.538 306.000 C 61.943 306.000,61.949 306.081,62.600 306.800 M66.000 308.737 C 66.000 308.923,66.855 309.508,67.900 310.037 C 68.945 310.567,69.860 311.135,69.933 311.300 C 70.007 311.465,70.329 311.600,70.650 311.600 C 70.971 311.600,71.620 311.960,72.092 312.400 C 72.564 312.840,73.187 313.200,73.475 313.200 C 73.764 313.200,74.000 313.380,74.000 313.600 C 74.000 313.820,74.332 314.000,74.738 314.000 C 75.144 314.000,75.802 314.360,76.200 314.800 C 76.598 315.240,77.256 315.600,77.662 315.600 C 78.848 315.600,78.514 314.994,77.000 314.400 C 76.230 314.098,75.600 313.738,75.600 313.600 C 75.600 313.462,74.970 313.102,74.200 312.800 C 73.430 312.498,72.800 312.138,72.800 312.000 C 72.800 311.862,72.170 311.502,71.400 311.200 C 70.630 310.898,70.000 310.504,70.000 310.325 C 70.000 310.146,69.730 310.000,69.400 310.000 C 69.070 310.000,68.800 309.820,68.800 309.600 C 68.800 309.380,68.440 309.200,68.000 309.200 C 67.560 309.200,67.200 309.020,67.200 308.800 C 67.200 308.580,66.930 308.400,66.600 308.400 C 66.270 308.400,66.000 308.552,66.000 308.737 M79.293 316.400 C 79.568 316.840,80.109 317.200,80.496 317.200 C 80.883 317.200,81.200 317.359,81.200 317.553 C 81.200 317.748,81.515 318.007,81.900 318.129 C 82.836 318.425,84.966 319.724,85.133 320.100 C 85.332 320.547,86.400 320.463,86.400 320.000 C 86.400 319.780,86.130 319.600,85.800 319.600 C 85.470 319.600,85.200 319.420,85.200 319.200 C 85.200 318.980,84.930 318.800,84.600 318.800 C 84.270 318.800,84.000 318.620,84.000 318.400 C 84.000 318.180,83.640 318.000,83.200 318.000 C 82.760 318.000,82.400 317.820,82.400 317.600 C 82.400 317.380,82.130 317.200,81.800 317.200 C 81.470 317.200,81.200 317.020,81.200 316.800 C 81.200 316.580,80.840 316.400,80.400 316.400 C 79.960 316.400,79.600 316.220,79.600 316.000 C 79.600 315.780,79.418 315.600,79.197 315.600 C 78.957 315.600,78.997 315.926,79.293 316.400 M86.800 320.800 C 86.800 321.020,87.070 321.200,87.400 321.200 C 87.730 321.200,88.000 321.020,88.000 320.800 C 88.000 320.580,87.730 320.400,87.400 320.400 C 87.070 320.400,86.800 320.580,86.800 320.800 M88.400 321.395 C 88.400 321.892,89.545 322.800,90.171 322.800 C 90.517 322.800,90.800 322.980,90.800 323.200 C 90.800 323.420,91.070 323.600,91.400 323.600 C 91.730 323.600,92.000 323.420,92.000 323.200 C 92.000 322.980,91.730 322.800,91.400 322.800 C 91.070 322.800,90.800 322.641,90.800 322.447 C 90.800 322.252,90.485 321.982,90.100 321.846 C 89.715 321.711,89.175 321.495,88.900 321.366 C 88.625 321.238,88.400 321.251,88.400 321.395 M92.400 323.966 C 92.400 324.168,92.940 324.572,93.600 324.864 C 94.260 325.156,94.800 325.531,94.800 325.698 C 94.800 325.864,95.160 326.000,95.600 326.000 C 96.040 326.000,96.400 326.180,96.400 326.400 C 96.400 326.620,96.670 326.800,97.000 326.800 C 97.330 326.800,97.600 326.620,97.600 326.400 C 97.600 326.180,97.330 326.000,97.000 326.000 C 96.670 326.000,96.400 325.820,96.400 325.600 C 96.400 325.380,96.040 325.200,95.600 325.200 C 95.160 325.200,94.800 325.020,94.800 324.800 C 94.800 324.580,94.530 324.400,94.200 324.400 C 93.870 324.400,93.600 324.220,93.600 324.000 C 93.600 323.780,93.330 323.600,93.000 323.600 C 92.670 323.600,92.400 323.765,92.400 323.966 M98.000 327.029 C 98.000 327.498,99.165 328.400,99.771 328.400 C 100.117 328.400,100.400 328.580,100.400 328.800 C 100.400 329.020,100.670 329.200,101.000 329.200 C 101.330 329.200,101.600 329.020,101.600 328.800 C 101.600 328.580,101.330 328.400,101.000 328.400 C 100.670 328.400,100.400 328.220,100.400 328.000 C 100.400 327.780,100.130 327.600,99.800 327.600 C 99.470 327.600,99.200 327.420,99.200 327.200 C 99.200 326.980,98.930 326.800,98.600 326.800 C 98.270 326.800,98.000 326.903,98.000 327.029 M102.000 329.540 C 102.000 329.727,103.215 330.491,104.700 331.237 C 106.185 331.984,107.749 332.911,108.175 333.297 C 108.602 333.684,109.187 334.000,109.475 334.000 C 109.764 334.000,110.000 334.180,110.000 334.400 C 110.000 334.620,110.287 334.800,110.638 334.800 C 110.989 334.800,111.754 335.121,112.338 335.514 C 112.922 335.907,113.895 336.478,114.500 336.782 C 115.105 337.086,115.600 337.485,115.600 337.668 C 115.600 337.850,115.932 338.000,116.338 338.000 C 116.744 338.000,117.370 338.325,117.729 338.722 C 118.089 339.119,119.017 339.693,119.791 339.997 C 120.566 340.301,121.200 340.696,121.200 340.875 C 121.200 341.054,121.560 341.200,122.000 341.200 C 122.440 341.200,122.800 341.380,122.800 341.600 C 122.800 341.820,123.070 342.000,123.400 342.000 C 123.730 342.000,124.000 341.820,124.000 341.600 C 124.000 341.380,123.730 341.200,123.400 341.200 C 123.070 341.200,122.800 341.020,122.800 340.800 C 122.800 340.580,122.440 340.400,122.000 340.400 C 121.560 340.400,121.200 340.220,121.200 340.000 C 121.200 339.780,120.930 339.600,120.600 339.600 C 120.270 339.600,120.000 339.420,120.000 339.200 C 120.000 338.980,119.640 338.800,119.200 338.800 C 118.760 338.800,118.400 338.620,118.400 338.400 C 118.400 338.180,118.130 338.000,117.800 338.000 C 117.470 338.000,117.200 337.854,117.200 337.675 C 117.200 337.496,116.570 337.102,115.800 336.800 C 115.030 336.498,114.400 336.138,114.400 336.000 C 114.400 335.862,113.770 335.502,113.000 335.200 C 112.230 334.898,111.600 334.538,111.600 334.400 C 111.600 334.262,110.970 333.902,110.200 333.600 C 109.430 333.298,108.800 332.938,108.800 332.800 C 108.800 332.662,108.170 332.302,107.400 332.000 C 106.630 331.698,106.000 331.338,106.000 331.200 C 106.000 331.062,105.370 330.702,104.600 330.400 C 103.830 330.098,103.200 329.704,103.200 329.525 C 103.200 329.346,102.930 329.200,102.600 329.200 C 102.270 329.200,102.000 329.353,102.000 329.540 M124.400 342.229 C 124.400 342.698,125.565 343.600,126.171 343.600 C 126.517 343.600,126.800 343.780,126.800 344.000 C 126.800 344.220,127.070 344.400,127.400 344.400 C 127.730 344.400,128.000 344.220,128.000 344.000 C 128.000 343.780,127.730 343.600,127.400 343.600 C 127.070 343.600,126.800 343.420,126.800 343.200 C 126.800 342.980,126.530 342.800,126.200 342.800 C 125.870 342.800,125.600 342.620,125.600 342.400 C 125.600 342.180,125.330 342.000,125.000 342.000 C 124.670 342.000,124.400 342.103,124.400 342.229 M129.000 345.200 C 129.764 346.045,130.800 346.275,130.800 345.600 C 130.800 345.380,130.530 345.200,130.200 345.200 C 129.870 345.200,129.600 345.020,129.600 344.800 C 129.600 344.580,129.302 344.400,128.938 344.400 C 128.343 344.400,128.349 344.481,129.000 345.200 M131.908 346.800 C 132.834 347.662,133.600 347.844,133.600 347.200 C 133.600 346.980,133.330 346.800,133.000 346.800 C 132.670 346.800,132.400 346.620,132.400 346.400 C 132.400 346.180,132.096 346.000,131.725 346.000 C 131.152 346.000,131.180 346.122,131.908 346.800 M134.000 348.000 C 134.000 348.220,134.236 348.400,134.525 348.400 C 134.813 348.400,135.436 348.760,135.908 349.200 C 136.380 349.640,137.029 350.000,137.350 350.000 C 137.671 350.000,137.993 350.135,138.067 350.300 C 138.234 350.676,140.364 351.975,141.300 352.271 C 141.685 352.393,142.000 352.652,142.000 352.847 C 142.000 353.041,142.360 353.200,142.800 353.200 C 143.240 353.200,143.600 353.352,143.600 353.537 C 143.600 353.723,144.455 354.308,145.500 354.837 C 146.545 355.367,147.460 355.935,147.533 356.100 C 147.607 356.265,147.939 356.400,148.272 356.400 C 148.900 356.400,151.300 357.935,151.533 358.486 C 151.607 358.658,152.012 358.800,152.433 358.800 C 152.855 358.800,153.200 358.980,153.200 359.200 C 153.200 359.420,153.470 359.600,153.800 359.600 C 154.130 359.600,154.400 359.420,154.400 359.200 C 154.400 358.980,154.130 358.800,153.800 358.800 C 153.470 358.800,153.200 358.620,153.200 358.400 C 153.200 358.180,152.930 358.000,152.600 358.000 C 152.270 358.000,152.000 357.820,152.000 357.600 C 152.000 357.380,151.640 357.200,151.200 357.200 C 150.760 357.200,150.400 357.020,150.400 356.800 C 150.400 356.580,150.130 356.400,149.800 356.400 C 149.470 356.400,149.200 356.220,149.200 356.000 C 149.200 355.780,148.840 355.600,148.400 355.600 C 147.960 355.600,147.600 355.420,147.600 355.200 C 147.600 354.980,147.330 354.800,147.000 354.800 C 146.670 354.800,146.400 354.620,146.400 354.400 C 146.400 354.180,146.040 354.000,145.600 354.000 C 145.160 354.000,144.800 353.820,144.800 353.600 C 144.800 353.380,144.530 353.200,144.200 353.200 C 143.870 353.200,143.600 353.054,143.600 352.875 C 143.600 352.696,142.970 352.302,142.200 352.000 C 141.430 351.698,140.800 351.304,140.800 351.125 C 140.800 350.946,140.440 350.800,140.000 350.800 C 139.560 350.800,139.200 350.654,139.200 350.475 C 139.200 350.296,138.570 349.902,137.800 349.600 C 137.030 349.298,136.400 348.904,136.400 348.725 C 136.400 348.546,136.130 348.400,135.800 348.400 C 135.470 348.400,135.200 348.220,135.200 348.000 C 135.200 347.780,134.930 347.600,134.600 347.600 C 134.270 347.600,134.000 347.780,134.000 348.000 M154.800 359.966 C 154.800 360.168,155.340 360.572,156.000 360.864 C 156.660 361.156,157.200 361.531,157.200 361.698 C 157.200 361.864,157.560 362.000,158.000 362.000 C 158.440 362.000,158.800 362.180,158.800 362.400 C 158.800 362.620,159.070 362.800,159.400 362.800 C 159.730 362.800,160.000 362.620,160.000 362.400 C 160.000 362.180,159.730 362.000,159.400 362.000 C 159.070 362.000,158.800 361.820,158.800 361.600 C 158.800 361.380,158.440 361.200,158.000 361.200 C 157.560 361.200,157.200 361.020,157.200 360.800 C 157.200 360.580,156.930 360.400,156.600 360.400 C 156.270 360.400,156.000 360.220,156.000 360.000 C 156.000 359.780,155.730 359.600,155.400 359.600 C 155.070 359.600,154.800 359.765,154.800 359.966 M160.400 363.029 C 160.400 363.486,161.558 364.400,162.138 364.400 C 162.465 364.400,162.804 364.612,162.891 364.872 C 162.994 365.183,163.313 365.227,163.824 365.002 C 164.559 364.677,164.552 364.651,163.700 364.502 C 163.205 364.415,162.800 364.177,162.800 363.972 C 162.800 363.767,162.530 363.600,162.200 363.600 C 161.870 363.600,161.600 363.420,161.600 363.200 C 161.600 362.980,161.330 362.800,161.000 362.800 C 160.670 362.800,160.400 362.903,160.400 363.029 M164.400 365.553 C 164.400 365.748,164.715 366.007,165.100 366.129 C 166.036 366.425,168.166 367.724,168.333 368.100 C 168.407 368.265,168.812 368.400,169.233 368.400 C 169.655 368.400,170.000 368.553,170.000 368.740 C 170.000 368.927,171.215 369.691,172.700 370.437 C 174.185 371.184,175.749 372.111,176.175 372.497 C 176.602 372.884,177.187 373.200,177.475 373.200 C 177.764 373.200,178.000 373.380,178.000 373.600 C 178.000 373.820,178.283 374.000,178.628 374.000 C 178.973 374.000,180.041 374.540,181.000 375.200 C 181.959 375.860,182.937 376.400,183.172 376.400 C 183.407 376.400,183.600 376.580,183.600 376.800 C 183.600 377.020,183.960 377.200,184.400 377.200 C 184.840 377.200,185.200 377.380,185.200 377.600 C 185.200 377.820,185.470 378.000,185.800 378.000 C 186.130 378.000,186.400 377.820,186.400 377.600 C 186.400 377.380,186.130 377.200,185.800 377.200 C 185.470 377.200,185.200 377.020,185.200 376.800 C 185.200 376.580,184.840 376.400,184.400 376.400 C 183.960 376.400,183.600 376.220,183.600 376.000 C 183.600 375.780,183.330 375.600,183.000 375.600 C 182.670 375.600,182.400 375.420,182.400 375.200 C 182.400 374.980,182.040 374.800,181.600 374.800 C 181.160 374.800,180.800 374.620,180.800 374.400 C 180.800 374.180,180.530 374.000,180.200 374.000 C 179.870 374.000,179.600 373.854,179.600 373.675 C 179.600 373.496,178.970 373.102,178.200 372.800 C 177.430 372.498,176.800 372.104,176.800 371.925 C 176.800 371.746,176.530 371.600,176.200 371.600 C 175.870 371.600,175.600 371.420,175.600 371.200 C 175.600 370.980,175.240 370.800,174.800 370.800 C 174.360 370.800,174.000 370.620,174.000 370.400 C 174.000 370.180,173.730 370.000,173.400 370.000 C 173.070 370.000,172.800 369.820,172.800 369.600 C 172.800 369.380,172.440 369.200,172.000 369.200 C 171.560 369.200,171.200 369.020,171.200 368.800 C 171.200 368.580,170.930 368.400,170.600 368.400 C 170.270 368.400,170.000 368.254,170.000 368.075 C 170.000 367.896,169.370 367.502,168.600 367.200 C 167.830 366.898,167.200 366.504,167.200 366.325 C 167.200 366.146,166.829 366.000,166.376 366.000 C 165.923 366.000,165.664 365.820,165.800 365.600 C 165.936 365.380,165.677 365.200,165.224 365.200 C 164.771 365.200,164.400 365.359,164.400 365.553 M240.229 365.829 C 239.805 366.138,239.536 366.469,239.630 366.563 C 239.724 366.657,240.148 366.481,240.571 366.171 C 240.995 365.862,241.264 365.531,241.170 365.437 C 241.076 365.343,240.652 365.519,240.229 365.829 M186.800 378.229 C 186.800 378.698,187.965 379.600,188.571 379.600 C 188.917 379.600,189.200 379.780,189.200 380.000 C 189.200 380.220,189.478 380.400,189.817 380.400 C 190.156 380.400,190.820 380.760,191.292 381.200 C 191.764 381.640,192.387 382.000,192.675 382.000 C 192.964 382.000,193.200 382.180,193.200 382.400 C 193.200 382.620,193.560 382.800,194.000 382.800 C 194.440 382.800,194.800 382.980,194.800 383.200 C 194.800 383.420,195.160 383.600,195.600 383.600 C 196.040 383.600,196.400 383.752,196.400 383.937 C 196.400 384.123,197.255 384.708,198.300 385.237 C 199.345 385.767,200.260 386.335,200.333 386.500 C 200.407 386.665,200.724 386.800,201.039 386.800 C 201.353 386.800,201.964 387.020,202.395 387.290 C 203.015 387.677,203.283 387.677,203.670 387.290 C 204.057 386.903,204.017 386.800,203.480 386.800 C 203.106 386.800,202.800 386.561,202.800 386.269 C 202.800 385.907,202.419 385.794,201.600 385.915 C 200.880 386.020,200.400 385.913,200.400 385.645 C 200.400 385.400,200.040 385.200,199.600 385.200 C 199.160 385.200,198.800 385.020,198.800 384.800 C 198.800 384.580,198.530 384.400,198.200 384.400 C 197.870 384.400,197.599 384.265,197.597 384.100 C 197.595 383.935,197.190 383.602,196.697 383.360 C 194.289 382.178,192.187 380.970,192.067 380.700 C 191.993 380.535,191.678 380.400,191.367 380.400 C 191.055 380.400,190.800 380.220,190.800 380.000 C 190.800 379.780,190.440 379.600,190.000 379.600 C 189.560 379.600,189.200 379.420,189.200 379.200 C 189.200 378.980,188.930 378.800,188.600 378.800 C 188.270 378.800,188.000 378.620,188.000 378.400 C 188.000 378.180,187.730 378.000,187.400 378.000 C 187.070 378.000,186.800 378.103,186.800 378.229 " stroke="none" fill="#919191" fill-rule="evenodd"></path></g></svg>