<svg id="svg" version="1.1" xmlns="http://www.w3.org/2000/svg" xmlns:xlink="http://www.w3.org/1999/xlink" width="400" height="400" viewBox="0, 0, 400,400"><g id="svgg"><path id="path0" d="M191.985 0.146 C 191.867 0.266,191.102 0.409,190.285 0.464 C 189.468 0.519,188.800 0.707,188.800 0.882 C 188.800 1.057,188.455 1.200,188.033 1.200 C 187.612 1.200,187.207 1.378,187.133 1.597 C 187.060 1.815,186.518 2.033,185.929 2.081 C 185.340 2.130,184.945 2.312,185.052 2.485 C 185.160 2.658,184.967 2.800,184.624 2.800 C 184.281 2.800,184.000 2.980,184.000 3.200 C 184.000 3.420,183.640 3.600,183.200 3.600 C 182.760 3.600,182.400 3.759,182.400 3.953 C 182.400 4.148,182.085 4.410,181.700 4.536 C 181.315 4.662,180.100 5.317,179.000 5.991 C 177.900 6.666,176.730 7.336,176.400 7.480 C 176.070 7.624,175.710 7.845,175.600 7.971 C 175.161 8.474,172.838 9.600,172.238 9.600 C 171.887 9.600,171.600 9.780,171.600 10.000 C 171.600 10.220,171.358 10.400,171.062 10.400 C 170.766 10.400,170.202 10.756,169.809 11.191 C 169.415 11.625,168.958 11.897,168.792 11.795 C 168.626 11.693,168.268 11.877,167.996 12.204 C 167.724 12.532,167.247 12.800,166.934 12.800 C 166.622 12.800,165.980 13.160,165.508 13.600 C 165.036 14.040,164.413 14.400,164.125 14.400 C 163.836 14.400,163.600 14.580,163.600 14.800 C 163.600 15.020,163.240 15.200,162.800 15.200 C 162.360 15.200,162.000 15.347,162.000 15.526 C 162.000 15.705,161.325 16.214,160.500 16.656 C 158.299 17.836,157.026 18.574,156.800 18.800 C 156.167 19.433,154.063 20.335,153.792 20.089 C 153.616 19.930,153.601 20.025,153.759 20.300 C 153.937 20.609,153.809 20.800,153.424 20.800 C 153.081 20.800,152.800 20.980,152.800 21.200 C 152.800 21.420,152.440 21.600,152.000 21.600 C 151.560 21.600,151.200 21.780,151.200 22.000 C 151.200 22.220,150.964 22.400,150.675 22.400 C 150.387 22.400,149.795 22.715,149.360 23.100 C 148.925 23.485,148.307 23.859,147.988 23.932 C 147.669 24.005,147.316 24.195,147.204 24.355 C 147.092 24.515,146.415 24.882,145.700 25.171 C 144.985 25.460,144.400 25.866,144.400 26.072 C 144.400 26.278,144.220 26.336,144.000 26.200 C 143.780 26.064,143.600 26.143,143.600 26.376 C 143.600 26.609,143.317 26.800,142.971 26.800 C 142.626 26.800,142.071 27.072,141.739 27.404 C 141.407 27.736,140.970 27.905,140.768 27.780 C 140.565 27.655,140.400 27.743,140.400 27.976 C 140.400 28.209,140.145 28.400,139.833 28.400 C 139.522 28.400,139.207 28.535,139.133 28.700 C 138.978 29.048,137.206 30.137,135.200 31.117 C 134.430 31.492,133.740 31.935,133.667 32.100 C 133.593 32.265,133.278 32.400,132.967 32.400 C 132.655 32.400,132.400 32.546,132.400 32.725 C 132.400 32.904,131.770 33.298,131.000 33.600 C 130.230 33.902,129.600 34.296,129.600 34.475 C 129.600 34.654,129.330 34.800,129.000 34.800 C 128.670 34.800,128.400 34.946,128.400 35.125 C 128.400 35.304,127.770 35.698,127.000 36.000 C 126.230 36.302,125.600 36.696,125.600 36.875 C 125.600 37.054,125.364 37.200,125.075 37.200 C 124.787 37.200,124.164 37.560,123.692 38.000 C 123.220 38.440,122.556 38.800,122.217 38.800 C 121.878 38.800,121.600 38.980,121.600 39.200 C 121.600 39.420,121.240 39.600,120.800 39.600 C 120.360 39.600,120.000 39.780,120.000 40.000 C 120.000 40.220,119.730 40.400,119.400 40.400 C 119.070 40.400,118.800 40.580,118.800 40.800 C 118.800 41.020,118.530 41.200,118.200 41.200 C 117.870 41.200,117.600 41.380,117.600 41.600 C 117.600 41.820,117.345 42.000,117.032 42.000 C 116.365 42.000,113.860 43.265,113.667 43.700 C 113.593 43.865,113.278 44.000,112.967 44.000 C 112.655 44.000,112.400 44.136,112.400 44.302 C 112.400 44.617,110.447 45.590,109.870 45.563 C 109.688 45.554,109.217 45.919,108.823 46.374 C 108.429 46.828,107.812 47.200,107.453 47.200 C 107.094 47.200,106.800 47.336,106.800 47.502 C 106.800 47.865,104.340 49.021,103.870 48.879 C 103.689 48.825,103.631 48.926,103.741 49.105 C 103.852 49.284,103.370 49.679,102.671 49.983 C 101.972 50.287,101.310 50.640,101.200 50.768 C 100.867 51.154,98.647 52.434,97.900 52.671 C 97.515 52.793,97.200 53.052,97.200 53.247 C 97.200 53.441,96.840 53.600,96.400 53.600 C 95.960 53.600,95.600 53.780,95.600 54.000 C 95.600 54.220,95.330 54.400,95.000 54.400 C 94.670 54.400,94.400 54.580,94.400 54.800 C 94.400 55.020,94.029 55.200,93.576 55.200 C 93.123 55.200,92.864 55.380,93.000 55.600 C 93.136 55.820,92.967 56.000,92.624 56.000 C 92.281 56.000,92.000 56.180,92.000 56.400 C 92.000 56.620,91.655 56.800,91.233 56.800 C 90.812 56.800,90.407 56.941,90.333 57.113 C 90.260 57.285,89.120 57.960,87.800 58.612 C 86.480 59.265,84.654 60.295,83.742 60.900 C 82.830 61.505,81.810 62.000,81.475 62.000 C 81.141 62.000,80.807 62.142,80.733 62.314 C 80.494 62.880,78.092 64.400,77.438 64.400 C 77.087 64.400,76.800 64.580,76.800 64.800 C 76.800 65.020,76.530 65.200,76.200 65.200 C 75.870 65.200,75.600 65.380,75.600 65.600 C 75.600 65.820,75.364 66.000,75.075 66.000 C 74.787 66.000,74.164 66.360,73.692 66.800 C 73.220 67.240,72.556 67.600,72.217 67.600 C 71.878 67.600,71.600 67.780,71.600 68.000 C 71.600 68.220,71.240 68.400,70.800 68.400 C 70.360 68.400,70.000 68.558,70.000 68.751 C 70.000 68.945,69.460 69.327,68.800 69.600 C 68.140 69.873,67.600 70.255,67.600 70.449 C 67.600 70.642,67.240 70.800,66.800 70.800 C 66.360 70.800,66.000 70.959,66.000 71.153 C 66.000 71.348,65.685 71.610,65.300 71.736 C 64.915 71.862,63.700 72.516,62.600 73.190 C 61.500 73.864,60.212 74.581,59.739 74.783 C 59.265 74.985,58.760 75.342,58.615 75.575 C 58.471 75.809,58.003 76.000,57.576 76.000 C 57.149 76.000,56.800 76.180,56.800 76.400 C 56.800 76.620,56.455 76.800,56.033 76.800 C 55.612 76.800,55.207 76.935,55.133 77.100 C 54.958 77.494,52.914 78.859,51.400 79.594 C 50.740 79.914,49.448 80.676,48.528 81.288 C 47.608 81.899,46.563 82.400,46.204 82.400 C 45.846 82.400,45.664 82.580,45.800 82.800 C 45.936 83.020,45.677 83.200,45.224 83.200 C 44.771 83.200,44.400 83.380,44.400 83.600 C 44.400 83.820,44.164 84.000,43.875 84.000 C 43.587 84.000,42.964 84.360,42.492 84.800 C 42.020 85.240,41.371 85.600,41.050 85.600 C 40.729 85.600,40.407 85.735,40.333 85.900 C 40.166 86.276,38.036 87.575,37.100 87.871 C 36.715 87.993,36.400 88.252,36.400 88.447 C 36.400 88.641,36.143 88.800,35.829 88.800 C 35.118 88.800,28.310 95.377,28.660 95.726 C 28.800 95.866,28.619 96.095,28.257 96.233 C 27.896 96.372,27.600 96.721,27.600 97.009 C 27.600 97.298,27.456 97.593,27.279 97.667 C 26.766 97.880,24.000 103.587,24.000 104.432 C 24.000 104.854,23.820 105.200,23.600 105.200 C 23.380 105.200,23.200 105.740,23.200 106.400 C 23.200 107.060,23.020 107.600,22.800 107.600 C 22.580 107.600,22.400 108.219,22.400 108.976 C 22.400 109.733,22.220 110.464,22.000 110.600 C 21.735 110.764,21.600 140.996,21.600 200.000 C 21.600 259.004,21.735 289.236,22.000 289.400 C 22.220 289.536,22.400 290.267,22.400 291.024 C 22.400 291.781,22.580 292.400,22.800 292.400 C 23.020 292.400,23.200 292.940,23.200 293.600 C 23.200 294.260,23.380 294.800,23.600 294.800 C 23.820 294.800,24.000 295.126,24.000 295.525 C 24.000 295.924,24.453 297.188,25.006 298.335 L 26.011 300.419 27.706 299.463 C 29.072 298.691,37.370 293.898,51.200 285.893 C 51.970 285.447,53.590 284.543,54.800 283.883 C 56.010 283.224,57.180 282.550,57.400 282.385 C 57.620 282.220,58.430 281.729,59.200 281.293 C 60.454 280.583,82.030 268.127,85.000 266.398 C 93.071 261.701,96.845 259.600,97.213 259.600 C 97.463 259.600,97.387 259.330,97.038 258.981 C 96.698 258.641,96.113 257.696,95.739 256.881 C 95.364 256.067,94.730 254.922,94.329 254.338 C 93.928 253.754,93.600 252.989,93.600 252.638 C 93.600 252.287,93.420 252.000,93.200 252.000 C 92.980 252.000,92.800 251.755,92.800 251.456 C 92.800 251.157,92.236 249.762,91.547 248.356 C 90.136 245.476,90.106 245.404,88.469 241.000 C 78.407 213.934,78.981 181.780,90.004 155.000 C 92.720 148.400,99.391 136.359,103.078 131.400 C 104.059 130.080,105.253 128.473,105.731 127.829 C 106.552 126.723,107.259 125.838,109.589 123.003 C 110.874 121.440,121.440 110.874,123.003 109.589 C 125.838 107.259,126.723 106.552,127.829 105.731 C 128.473 105.253,130.080 104.058,131.400 103.075 C 134.153 101.026,140.991 96.800,141.555 96.800 C 141.763 96.800,141.993 96.654,142.067 96.475 C 142.464 95.506,156.101 89.407,162.944 87.139 C 189.512 78.329,221.569 79.587,245.800 90.389 C 263.137 98.119,276.075 107.224,287.617 119.819 C 296.053 129.024,304.274 141.198,302.057 141.200 C 301.916 141.200,300.270 142.113,298.400 143.229 C 296.530 144.344,294.100 145.760,293.000 146.374 C 288.188 149.062,283.769 151.697,283.400 152.098 C 283.013 152.517,284.659 151.639,288.400 149.428 C 289.390 148.843,290.515 148.262,290.900 148.136 C 291.285 148.010,291.600 147.748,291.600 147.553 C 291.600 147.359,291.772 147.200,291.982 147.200 C 292.193 147.200,293.318 146.635,294.482 145.944 C 296.801 144.569,298.405 143.644,300.700 142.361 C 301.525 141.900,302.560 141.210,303.000 140.829 C 303.440 140.447,304.520 139.720,305.400 139.213 C 306.280 138.706,307.585 137.956,308.300 137.546 C 310.853 136.082,312.346 135.220,323.800 128.605 C 330.180 124.920,336.210 121.452,337.200 120.899 C 338.190 120.346,339.180 119.761,339.400 119.600 C 339.620 119.439,340.610 118.858,341.600 118.310 C 343.831 117.074,345.232 116.269,349.800 113.596 C 351.780 112.438,356.370 109.785,360.000 107.701 C 363.630 105.616,367.140 103.596,367.800 103.211 C 370.968 101.365,373.415 99.901,373.552 99.772 C 374.461 98.918,365.813 88.800,364.175 88.800 C 363.859 88.800,363.600 88.620,363.600 88.400 C 363.600 88.180,363.319 88.000,362.976 88.000 C 362.633 88.000,362.467 87.816,362.606 87.590 C 362.745 87.365,362.711 87.225,362.530 87.279 C 362.060 87.421,359.600 86.265,359.600 85.902 C 359.600 85.736,359.330 85.600,359.000 85.600 C 358.670 85.600,358.400 85.454,358.400 85.275 C 358.400 85.096,357.770 84.702,357.000 84.400 C 356.230 84.098,355.600 83.738,355.600 83.600 C 355.600 83.462,354.970 83.102,354.200 82.800 C 353.430 82.498,352.800 82.140,352.800 82.004 C 352.800 81.868,351.903 81.317,350.806 80.779 C 349.710 80.240,348.810 79.665,348.806 79.500 C 348.803 79.335,348.440 79.200,348.000 79.200 C 347.560 79.200,347.200 79.042,347.200 78.849 C 347.200 78.655,346.660 78.273,346.000 78.000 C 345.340 77.727,344.800 77.334,344.800 77.128 C 344.800 76.922,344.635 76.855,344.432 76.980 C 344.230 77.105,343.802 76.945,343.481 76.623 C 343.159 76.302,342.425 75.921,341.848 75.776 C 341.272 75.632,340.800 75.386,340.800 75.231 C 340.800 75.076,340.170 74.702,339.400 74.400 C 338.630 74.098,338.000 73.704,338.000 73.525 C 338.000 73.346,337.764 73.200,337.475 73.200 C 337.187 73.200,336.564 72.840,336.092 72.400 C 335.620 71.960,334.956 71.600,334.617 71.600 C 334.278 71.600,334.000 71.420,334.000 71.200 C 334.000 70.980,333.629 70.800,333.176 70.800 C 332.723 70.800,332.445 70.650,332.558 70.468 C 332.671 70.285,332.142 69.891,331.382 69.593 C 330.622 69.295,330.000 68.904,330.000 68.725 C 330.000 68.546,329.640 68.400,329.200 68.400 C 328.760 68.400,328.400 68.241,328.400 68.047 C 328.400 67.852,328.085 67.593,327.700 67.471 C 327.013 67.254,324.794 65.995,324.400 65.599 C 324.290 65.489,323.660 65.129,323.000 64.799 C 322.340 64.470,321.451 63.885,321.025 63.500 C 320.598 63.115,320.013 62.800,319.725 62.800 C 319.436 62.800,319.200 62.620,319.200 62.400 C 319.200 62.180,318.899 62.000,318.531 62.000 C 318.164 62.000,317.579 61.753,317.231 61.452 C 316.422 60.749,312.851 58.782,312.610 58.906 C 312.509 58.958,312.058 58.685,311.608 58.300 C 311.159 57.915,310.523 57.600,310.195 57.600 C 309.868 57.600,309.600 57.420,309.600 57.200 C 309.600 56.980,309.330 56.800,309.000 56.800 C 308.670 56.800,308.400 56.620,308.400 56.400 C 308.400 56.180,308.040 56.000,307.600 56.000 C 307.160 56.000,306.800 55.820,306.800 55.600 C 306.800 55.380,306.530 55.200,306.200 55.200 C 305.870 55.200,305.600 55.020,305.600 54.800 C 305.600 54.580,305.407 54.400,305.172 54.400 C 304.937 54.400,303.992 53.889,303.072 53.265 C 302.152 52.641,300.815 51.877,300.100 51.568 C 299.385 51.258,298.800 50.869,298.800 50.702 C 298.800 50.536,298.480 50.400,298.088 50.400 C 297.697 50.400,297.117 50.040,296.800 49.600 C 296.483 49.160,295.903 48.800,295.512 48.800 C 295.120 48.800,294.800 48.620,294.800 48.400 C 294.800 48.180,294.440 48.000,294.000 48.000 C 293.560 48.000,293.200 47.820,293.200 47.600 C 293.200 47.380,292.855 47.200,292.433 47.200 C 292.012 47.200,291.607 47.059,291.533 46.887 C 291.402 46.579,289.970 45.685,286.400 43.680 C 285.410 43.124,283.880 42.241,283.000 41.717 C 282.120 41.193,281.085 40.662,280.700 40.536 C 280.315 40.410,280.000 40.148,280.000 39.953 C 280.000 39.759,279.640 39.600,279.200 39.600 C 278.760 39.600,278.400 39.420,278.400 39.200 C 278.400 38.980,278.122 38.800,277.783 38.800 C 277.444 38.800,276.780 38.440,276.308 38.000 C 275.836 37.560,275.213 37.200,274.925 37.200 C 274.636 37.200,274.400 37.054,274.400 36.875 C 274.400 36.696,273.778 36.305,273.018 36.007 C 272.258 35.709,271.729 35.315,271.842 35.132 C 271.955 34.950,271.677 34.800,271.224 34.800 C 270.771 34.800,270.400 34.654,270.400 34.475 C 270.400 34.296,269.770 33.902,269.000 33.600 C 268.230 33.298,267.600 32.940,267.600 32.804 C 267.600 32.668,266.703 32.117,265.606 31.579 C 264.510 31.040,263.610 30.465,263.606 30.300 C 263.603 30.135,263.240 30.000,262.800 30.000 C 262.360 30.000,261.997 29.865,261.994 29.700 C 261.990 29.535,261.090 28.960,259.994 28.421 C 258.897 27.883,258.000 27.287,258.000 27.098 C 258.000 26.908,257.835 26.855,257.634 26.979 C 257.433 27.103,257.208 27.063,257.134 26.889 C 256.931 26.411,254.034 24.800,253.377 24.800 C 253.060 24.800,252.800 24.641,252.800 24.447 C 252.800 24.252,252.485 23.993,252.100 23.871 C 251.415 23.654,249.196 22.396,248.800 22.000 C 248.404 21.604,246.185 20.346,245.500 20.129 C 245.115 20.007,244.800 19.748,244.800 19.553 C 244.800 19.359,244.440 19.200,244.000 19.200 C 243.560 19.200,243.200 19.020,243.200 18.800 C 243.200 18.580,242.922 18.400,242.583 18.400 C 242.244 18.400,241.580 18.040,241.108 17.600 C 240.636 17.160,240.013 16.800,239.725 16.800 C 239.436 16.800,239.200 16.654,239.200 16.475 C 239.200 16.296,238.570 15.902,237.800 15.600 C 237.030 15.298,236.400 14.947,236.400 14.821 C 236.400 14.695,235.185 13.964,233.700 13.196 C 232.215 12.429,230.774 11.587,230.498 11.327 C 230.221 11.066,229.636 10.738,229.198 10.599 C 228.759 10.460,228.400 10.178,228.400 9.973 C 228.400 9.768,228.040 9.600,227.600 9.600 C 227.160 9.600,226.795 9.465,226.790 9.300 C 226.784 9.135,225.631 8.461,224.227 7.802 C 222.823 7.143,221.758 6.468,221.860 6.302 C 221.963 6.136,221.677 6.000,221.224 6.000 C 220.771 6.000,220.400 5.820,220.400 5.600 C 220.400 5.380,220.130 5.200,219.800 5.200 C 219.470 5.200,219.200 5.020,219.200 4.800 C 219.200 4.580,218.840 4.400,218.400 4.400 C 217.960 4.400,217.600 4.220,217.600 4.000 C 217.600 3.780,217.322 3.600,216.983 3.600 C 216.644 3.600,215.980 3.240,215.508 2.800 C 215.036 2.360,214.233 2.000,213.725 2.000 C 213.216 2.000,212.800 1.820,212.800 1.600 C 212.800 1.380,212.440 1.200,212.000 1.200 C 211.560 1.200,211.200 1.050,211.200 0.867 C 211.200 0.334,192.493 -0.368,191.985 0.146 M193.400 141.646 C 188.642 142.108,186.644 142.441,186.220 142.841 C 186.011 143.038,185.483 143.200,185.047 143.200 C 184.610 143.200,183.161 143.572,181.827 144.026 C 163.974 150.105,150.105 163.974,144.026 181.827 C 143.572 183.161,143.200 184.610,143.200 185.047 C 143.200 185.483,143.038 186.011,142.841 186.220 C 141.864 187.254,141.058 198.929,141.551 204.900 C 142.250 213.360,143.402 217.787,146.726 224.800 C 147.404 226.230,148.322 228.255,148.765 229.300 C 149.209 230.345,149.674 231.200,149.800 231.200 C 149.925 231.200,149.827 230.825,149.582 230.366 C 148.995 229.270,146.543 230.860,167.500 218.751 C 168.215 218.338,169.475 217.621,170.300 217.157 C 171.125 216.694,171.980 216.180,172.200 216.015 C 172.420 215.850,173.590 215.174,174.800 214.513 C 176.010 213.852,180.960 211.013,185.800 208.205 C 197.545 201.391,197.095 201.649,199.600 200.275 C 200.810 199.611,202.943 198.377,204.341 197.534 C 205.738 196.690,206.925 196.000,206.978 196.000 C 207.032 196.000,209.758 194.445,213.038 192.545 C 216.317 190.644,219.990 188.548,221.200 187.887 C 222.410 187.226,223.580 186.550,223.800 186.385 C 224.020 186.220,224.830 185.729,225.600 185.293 C 226.370 184.857,232.345 181.417,238.878 177.650 C 245.411 173.882,250.946 170.800,251.178 170.800 C 251.410 170.800,251.320 170.485,250.977 170.100 C 250.634 169.715,249.285 167.870,247.978 166.000 C 241.149 156.224,230.141 148.044,218.600 144.169 C 216.707 143.533,215.914 143.327,211.600 142.348 C 207.227 141.355,199.474 141.056,193.400 141.646 M281.200 153.233 L 280.200 154.048 281.500 153.414 C 282.215 153.065,282.800 152.694,282.800 152.590 C 282.800 152.192,282.163 152.448,281.200 153.233 M275.900 156.229 C 275.295 156.557,274.800 156.910,274.800 157.013 C 274.800 157.399,275.432 157.157,276.400 156.400 C 277.589 155.470,277.411 155.409,275.900 156.229 M273.000 158.000 C 272.340 158.437,271.980 158.792,272.200 158.788 C 272.601 158.782,274.776 157.223,274.400 157.212 C 274.290 157.208,273.660 157.563,273.000 158.000 M270.200 159.600 C 269.540 160.037,269.180 160.392,269.400 160.388 C 269.801 160.382,271.976 158.823,271.600 158.812 C 271.490 158.808,270.860 159.163,270.200 159.600 M264.800 162.671 C 262.710 163.899,260.370 165.257,259.600 165.689 C 258.830 166.122,258.020 166.666,257.800 166.900 C 257.298 167.433,260.256 165.814,265.918 162.456 C 267.082 161.765,268.207 161.200,268.418 161.200 C 268.628 161.200,268.800 161.020,268.800 160.800 C 268.800 160.279,269.138 160.121,264.800 162.671 M255.600 168.000 C 255.050 168.430,254.780 168.782,255.000 168.782 C 255.220 168.782,255.850 168.430,256.400 168.000 C 256.950 167.570,257.220 167.218,257.000 167.218 C 256.780 167.218,256.150 167.570,255.600 168.000 M253.100 169.429 C 251.605 170.240,251.696 170.578,253.200 169.800 C 253.860 169.459,254.400 169.094,254.400 168.990 C 254.400 168.732,254.357 168.747,253.100 169.429 M292.267 180.290 C 292.161 180.461,295.028 180.547,298.637 180.481 L 305.200 180.363 305.200 186.349 C 305.200 194.356,304.487 193.600,312.043 193.600 L 318.400 193.600 318.400 200.000 L 318.400 206.400 312.224 206.400 C 308.537 206.400,305.948 206.561,305.800 206.800 C 305.529 207.238,317.054 207.384,318.167 206.957 C 318.709 206.749,318.800 205.754,318.800 200.004 C 318.800 192.042,319.603 192.813,311.310 192.805 L 305.620 192.800 305.510 186.500 L 305.400 180.200 298.930 180.090 C 295.371 180.030,292.373 180.120,292.267 180.290 M341.467 180.267 C 341.320 180.413,341.200 183.293,341.200 186.667 L 341.200 192.800 335.374 192.800 C 327.457 192.800,328.000 192.275,328.000 199.934 C 328.000 207.776,327.439 207.200,335.070 207.200 L 341.180 207.200 341.290 213.500 L 341.400 219.800 348.100 219.910 C 351.785 219.970,354.800 219.880,354.801 219.710 C 354.801 219.539,351.831 219.453,348.201 219.519 L 341.600 219.637 341.600 213.651 C 341.600 205.644,342.313 206.400,334.757 206.400 L 328.400 206.400 328.400 200.010 L 328.400 193.620 334.900 193.510 L 341.400 193.400 341.510 186.881 L 341.620 180.363 348.211 180.481 C 351.835 180.547,354.801 180.465,354.801 180.300 C 354.800 179.929,341.836 179.897,341.467 180.267 M279.290 193.136 C 278.902 193.382,278.806 195.081,278.890 200.230 L 279.000 207.000 285.500 207.110 C 289.743 207.182,292.000 207.077,292.000 206.810 C 292.000 206.547,289.703 206.400,285.600 206.400 L 279.200 206.400 279.200 200.000 L 279.200 193.600 285.600 193.600 C 289.600 193.600,292.000 193.450,292.000 193.200 C 292.000 192.716,280.047 192.655,279.290 193.136 M354.800 193.190 C 354.800 193.423,357.419 193.624,361.300 193.690 L 367.800 193.800 367.800 200.000 L 367.800 206.200 361.609 206.311 C 353.117 206.463,352.700 207.200,361.106 207.200 C 367.089 207.200,367.603 207.142,367.986 206.426 C 368.700 205.093,368.520 194.177,367.771 193.429 C 367.037 192.694,354.800 192.469,354.800 193.190 M305.200 213.619 L 305.200 219.637 298.599 219.519 C 294.969 219.453,291.999 219.535,291.999 219.700 C 292.000 219.865,295.060 220.000,298.800 220.000 L 305.600 220.000 305.600 213.800 C 305.600 210.390,305.510 207.600,305.400 207.600 C 305.290 207.600,305.200 210.308,305.200 213.619 M248.257 233.794 C 247.451 235.007,246.868 236.000,246.962 236.000 C 247.281 236.000,250.096 231.963,249.909 231.775 C 249.806 231.672,249.062 232.581,248.257 233.794 M256.000 232.156 C 256.000 232.252,256.765 232.768,257.700 233.302 C 258.635 233.835,262.280 235.942,265.800 237.983 C 269.320 240.025,272.380 241.779,272.600 241.882 C 273.521 242.314,270.884 240.380,269.600 239.683 C 268.830 239.265,267.480 238.510,266.600 238.005 C 265.720 237.500,264.190 236.634,263.200 236.080 C 262.210 235.526,260.770 234.679,260.000 234.197 C 258.121 233.021,256.000 231.938,256.000 232.156 M245.013 238.023 C 243.635 239.885,239.955 243.452,236.800 245.984 C 233.877 248.330,233.798 248.400,234.104 248.400 C 234.495 248.400,238.708 244.973,240.932 242.847 C 243.457 240.433,246.973 236.397,246.540 236.409 C 246.353 236.415,245.666 237.141,245.013 238.023 M155.526 239.000 C 157.129 240.994,159.682 243.509,161.624 245.009 C 162.188 245.444,161.665 244.883,160.463 243.761 C 159.261 242.640,157.297 240.660,156.098 239.361 C 154.156 237.257,154.094 237.218,155.526 239.000 M273.600 242.420 C 274.987 243.361,275.778 243.635,274.800 242.836 C 274.250 242.386,273.620 242.017,273.400 242.015 C 273.180 242.013,273.270 242.196,273.600 242.420 M276.000 243.790 C 276.000 243.894,276.585 244.265,277.300 244.614 L 278.600 245.248 277.600 244.433 C 276.637 243.648,276.000 243.392,276.000 243.790 M280.400 246.420 C 281.787 247.361,282.578 247.635,281.600 246.836 C 281.050 246.386,280.420 246.017,280.200 246.015 C 279.980 246.013,280.070 246.196,280.400 246.420 M285.200 249.167 C 286.163 249.952,286.800 250.208,286.800 249.810 C 286.800 249.706,286.215 249.335,285.500 248.986 L 284.200 248.352 285.200 249.167 M169.511 250.709 C 170.732 251.662,175.559 254.174,175.766 253.966 C 175.857 253.875,174.282 252.945,172.266 251.900 C 170.250 250.854,169.010 250.319,169.511 250.709 M287.400 250.312 C 287.620 250.548,290.050 252.041,292.800 253.631 C 299.919 257.745,301.454 258.582,301.000 258.100 C 300.780 257.866,299.970 257.323,299.200 256.893 C 298.430 256.462,295.550 254.802,292.800 253.204 C 286.776 249.703,286.889 249.764,287.400 250.312 M226.800 252.400 C 225.150 253.258,223.958 253.969,224.151 253.980 C 224.583 254.005,229.257 251.667,229.780 251.165 C 230.393 250.576,229.968 250.752,226.800 252.400 M176.400 254.200 C 176.400 254.620,182.783 256.950,183.091 256.643 C 183.192 256.541,182.673 256.286,181.938 256.076 C 181.202 255.866,179.655 255.316,178.500 254.853 C 177.345 254.390,176.400 254.097,176.400 254.200 M221.032 255.017 C 219.730 255.558,218.380 256.014,218.032 256.032 C 217.593 256.054,217.558 256.127,217.918 256.271 C 218.432 256.477,222.653 254.983,223.380 254.338 C 223.932 253.847,223.661 253.926,221.032 255.017 M215.280 256.795 C 214.554 256.967,213.847 257.220,213.709 257.358 C 213.371 257.696,216.044 257.176,216.800 256.757 C 217.516 256.360,217.068 256.371,215.280 256.795 M184.400 257.200 C 185.768 257.638,186.819 257.638,185.800 257.200 C 185.360 257.011,184.640 256.862,184.200 256.868 C 183.557 256.877,183.596 256.943,184.400 257.200 M186.833 257.747 C 186.925 257.828,187.720 258.004,188.600 258.138 C 189.715 258.307,189.958 258.271,189.400 258.019 C 188.632 257.671,186.490 257.444,186.833 257.747 M210.400 258.000 C 209.056 258.431,210.508 258.431,212.200 258.000 C 213.278 257.726,213.298 257.694,212.400 257.687 C 211.850 257.683,210.950 257.824,210.400 258.000 M193.000 258.818 C 194.100 258.990,195.720 259.122,196.600 259.112 C 198.151 259.094,198.139 259.084,196.200 258.782 C 195.100 258.610,193.480 258.478,192.600 258.488 C 191.049 258.506,191.061 258.516,193.000 258.818 M203.200 258.800 L 201.400 259.080 203.000 259.100 C 203.880 259.112,205.590 258.984,206.800 258.817 L 209.000 258.513 207.000 258.516 C 205.900 258.518,204.190 258.646,203.200 258.800 M98.159 261.100 C 98.889 262.484,99.970 263.899,99.987 263.491 C 100.002 263.141,97.977 260.000,97.737 260.000 C 97.650 260.000,97.840 260.495,98.159 261.100 M298.198 266.300 C 297.365 267.565,295.525 270.130,294.110 272.000 C 292.695 273.870,292.179 274.680,292.965 273.800 C 295.128 271.377,300.350 264.000,299.903 264.000 C 299.798 264.000,299.032 265.035,298.198 266.300 M103.054 268.500 C 107.197 274.213,109.600 277.142,109.600 276.478 C 109.600 276.269,109.327 275.872,108.994 275.595 C 108.660 275.318,106.927 273.136,105.142 270.746 C 103.356 268.356,101.814 266.400,101.714 266.400 C 101.614 266.400,102.217 267.345,103.054 268.500 M287.828 279.507 C 286.303 281.208,285.823 281.880,286.762 281.000 C 288.332 279.527,291.045 276.390,290.734 276.407 C 290.660 276.411,289.352 277.806,287.828 279.507 M111.499 279.000 C 112.403 280.100,114.905 282.710,117.059 284.800 C 120.588 288.225,120.485 288.087,116.013 283.400 C 109.603 276.682,109.564 276.644,111.499 279.000 M281.391 286.098 C 279.472 288.081,279.134 288.520,280.542 287.198 C 284.313 283.658,285.155 282.800,284.860 282.800 C 284.707 282.800,283.145 284.284,281.391 286.098 M121.222 288.700 C 121.234 288.865,121.819 289.438,122.522 289.974 L 123.800 290.949 122.625 289.674 C 121.403 288.349,121.185 288.197,121.222 288.700 M124.003 291.083 C 124.004 291.257,124.600 291.805,125.327 292.300 C 126.054 292.794,126.997 293.517,127.424 293.906 C 128.514 294.899,133.600 298.480,133.600 298.254 C 133.600 298.152,132.655 297.384,131.500 296.548 C 130.345 295.712,128.185 294.069,126.700 292.897 C 125.215 291.725,124.001 290.909,124.003 291.083 M273.800 292.673 C 272.195 294.121,272.813 293.813,274.931 292.109 C 275.553 291.609,275.913 291.207,275.731 291.215 C 275.549 291.223,274.680 291.880,273.800 292.673 M270.011 295.420 C 268.184 296.709,268.813 296.692,270.714 295.400 C 271.523 294.850,272.009 294.409,271.793 294.420 C 271.577 294.430,270.775 294.880,270.011 295.420 M137.000 300.643 C 137.956 301.382,140.000 302.485,140.000 302.263 C 140.000 302.023,136.859 299.998,136.509 300.013 C 136.339 300.020,136.560 300.303,137.000 300.643 M261.700 301.026 C 259.812 302.158,259.377 302.749,261.100 301.841 C 262.309 301.203,263.916 300.031,263.600 300.017 C 263.490 300.012,262.635 300.466,261.700 301.026 M258.300 303.029 C 257.695 303.357,257.200 303.710,257.200 303.813 C 257.200 304.199,257.832 303.957,258.800 303.200 C 259.989 302.270,259.811 302.209,258.300 303.029 M144.800 304.996 C 144.800 305.270,147.249 306.484,147.432 306.301 C 147.519 306.214,146.962 305.844,146.195 305.478 C 145.428 305.112,144.800 304.895,144.800 304.996 M245.000 309.578 C 244.120 309.995,243.513 310.350,243.651 310.368 C 244.040 310.418,246.800 309.214,246.800 308.995 C 246.800 308.727,246.799 308.727,245.000 309.578 M158.200 311.171 C 159.080 311.594,160.070 311.947,160.400 311.955 C 161.086 311.971,159.039 311.027,157.574 310.651 C 157.038 310.514,157.320 310.748,158.200 311.171 M161.200 312.136 C 161.200 312.387,166.491 314.042,166.682 313.851 C 166.812 313.721,165.105 313.112,162.100 312.215 C 161.605 312.067,161.200 312.031,161.200 312.136 M235.400 312.962 C 233.860 313.472,231.970 314.087,231.200 314.330 L 229.800 314.771 231.200 314.546 C 232.612 314.320,238.446 312.487,238.763 312.171 C 239.106 311.828,238.139 312.055,235.400 312.962 M168.678 314.578 C 170.634 315.189,173.491 315.759,173.200 315.479 C 172.936 315.226,168.069 313.992,167.468 314.027 C 167.210 314.041,167.755 314.290,168.678 314.578 M227.400 315.200 C 226.381 315.638,227.432 315.638,228.800 315.200 C 229.604 314.943,229.643 314.877,229.000 314.868 C 228.560 314.862,227.840 315.011,227.400 315.200 M174.400 316.000 C 175.768 316.438,176.819 316.438,175.800 316.000 C 175.360 315.811,174.640 315.662,174.200 315.668 C 173.557 315.677,173.596 315.743,174.400 316.000 M224.000 316.000 C 223.208 316.254,223.167 316.320,223.800 316.320 C 224.240 316.320,225.050 316.176,225.600 316.000 C 226.392 315.746,226.433 315.680,225.800 315.680 C 225.360 315.680,224.550 315.824,224.000 316.000 M177.300 316.676 C 177.685 316.776,178.315 316.776,178.700 316.676 C 179.085 316.575,178.770 316.493,178.000 316.493 C 177.230 316.493,176.915 316.575,177.300 316.676 M183.400 317.600 C 184.060 317.768,185.140 317.905,185.800 317.905 L 187.000 317.905 185.800 317.600 C 185.140 317.432,184.060 317.295,183.400 317.295 L 182.200 317.295 183.400 317.600 M214.200 317.600 L 213.000 317.905 214.200 317.905 C 214.860 317.905,215.940 317.768,216.600 317.600 L 217.800 317.295 216.600 317.295 C 215.940 317.295,214.860 317.432,214.200 317.600 M190.800 318.460 C 192.010 318.604,196.150 318.721,200.000 318.721 C 203.850 318.721,207.990 318.604,209.200 318.460 C 210.410 318.317,206.270 318.200,200.000 318.200 C 193.730 318.200,189.590 318.317,190.800 318.460 " stroke="none" fill="#649cd3" fill-rule="evenodd"></path><path id="path1" d="M189.800 82.255 C 181.607 83.108,174.387 84.411,168.800 86.046 C 167.370 86.464,165.480 87.006,164.600 87.249 C 163.720 87.492,162.640 87.833,162.200 88.005 C 161.760 88.178,160.770 88.539,160.000 88.807 C 159.230 89.075,157.837 89.633,156.904 90.047 C 155.972 90.461,155.044 90.800,154.842 90.800 C 154.641 90.800,153.784 91.149,152.938 91.576 C 152.092 92.003,149.780 93.133,147.800 94.087 C 141.370 97.187,132.966 102.434,127.600 106.700 C 126.390 107.662,124.680 109.016,123.800 109.709 C 121.725 111.343,111.343 121.725,109.709 123.800 C 109.016 124.680,107.657 126.390,106.689 127.600 C 100.957 134.764,93.621 147.470,90.349 155.900 C 90.157 156.395,89.838 157.205,89.640 157.700 C 89.443 158.195,89.064 159.230,88.800 160.000 C 88.536 160.770,88.176 161.760,88.000 162.200 C 80.824 180.192,80.120 211.618,86.423 232.600 C 86.886 234.140,87.355 235.760,87.466 236.200 C 87.576 236.640,87.814 237.360,87.993 237.800 C 88.172 238.240,88.536 239.230,88.800 240.000 C 89.064 240.770,89.443 241.805,89.640 242.300 C 89.838 242.795,90.162 243.605,90.359 244.100 C 92.070 248.387,95.311 255.049,97.217 258.200 C 98.994 261.136,104.083 268.925,104.405 269.200 C 104.533 269.310,105.074 270.030,105.606 270.800 C 106.138 271.570,106.807 272.441,107.093 272.735 C 107.378 273.029,108.104 273.926,108.706 274.730 C 111.571 278.554,121.326 288.290,125.600 291.590 C 126.590 292.354,127.490 293.083,127.600 293.209 C 127.710 293.335,128.430 293.871,129.200 294.400 C 129.970 294.929,130.690 295.471,130.800 295.604 C 132.269 297.386,148.864 306.741,154.300 308.851 C 157.164 309.962,159.333 310.859,160.095 311.247 C 160.477 311.441,161.141 311.600,161.571 311.600 C 162.001 311.600,162.464 311.780,162.600 312.000 C 162.736 312.220,163.276 312.400,163.800 312.400 C 164.324 312.400,164.852 312.560,164.973 312.756 C 165.094 312.951,165.779 313.207,166.496 313.324 C 167.213 313.441,169.240 313.913,171.000 314.374 C 184.510 317.908,201.463 318.904,215.600 316.993 C 223.098 315.980,234.743 313.278,237.295 311.959 C 237.677 311.762,238.264 311.600,238.600 311.600 C 238.936 311.600,239.523 311.441,239.905 311.247 C 240.287 311.052,241.050 310.716,241.600 310.500 C 242.150 310.284,243.095 309.903,243.700 309.654 C 244.305 309.404,245.205 309.039,245.700 308.843 C 247.026 308.317,255.483 304.148,257.800 302.878 C 263.962 299.502,272.947 293.204,277.593 289.005 C 283.119 284.011,289.780 276.994,292.799 272.988 C 293.788 271.674,294.706 270.510,294.839 270.400 C 295.109 270.176,299.337 263.882,300.907 261.365 C 302.163 259.354,302.191 259.402,298.600 257.438 C 298.160 257.197,297.710 256.910,297.600 256.800 C 297.490 256.690,296.680 256.213,295.800 255.740 C 293.448 254.476,291.650 253.460,289.379 252.113 C 288.267 251.453,286.557 250.464,285.579 249.914 C 284.601 249.363,283.080 248.508,282.200 248.014 C 281.320 247.519,280.420 246.973,280.200 246.800 C 279.980 246.627,279.150 246.123,278.355 245.680 C 275.460 244.068,274.996 243.796,274.800 243.599 C 274.690 243.489,274.060 243.135,273.400 242.814 C 272.740 242.492,271.750 241.928,271.200 241.561 C 270.267 240.938,269.593 240.546,265.700 238.357 C 264.875 237.893,261.362 235.885,257.894 233.896 C 254.425 231.907,251.528 230.351,251.456 230.440 C 251.383 230.528,250.544 231.770,249.592 233.200 C 248.639 234.630,247.757 235.890,247.630 236.000 C 247.504 236.110,246.410 237.370,245.201 238.800 C 242.473 242.025,242.025 242.473,238.800 245.201 C 237.370 246.410,236.110 247.512,236.000 247.649 C 235.193 248.652,228.085 252.679,223.400 254.787 C 222.300 255.282,221.087 255.848,220.705 256.044 C 220.323 256.240,219.659 256.400,219.229 256.400 C 218.799 256.400,218.336 256.580,218.200 256.800 C 218.064 257.020,217.434 257.200,216.800 257.200 C 216.166 257.200,215.548 257.361,215.426 257.558 C 215.305 257.755,214.529 258.016,213.703 258.139 C 212.876 258.262,211.030 258.584,209.600 258.856 C 205.101 259.710,188.839 259.343,187.820 258.365 C 187.611 258.164,186.857 258.000,186.144 258.000 C 185.431 258.000,184.736 257.820,184.600 257.600 C 184.464 257.380,183.834 257.200,183.200 257.200 C 182.566 257.200,181.936 257.020,181.800 256.800 C 181.664 256.580,181.231 256.400,180.838 256.400 C 180.445 256.400,179.600 256.150,178.961 255.844 C 178.323 255.538,177.080 254.984,176.200 254.614 C 162.113 248.685,151.449 237.743,145.000 222.600 C 143.865 219.936,143.677 219.441,143.406 218.400 C 143.263 217.850,142.966 216.770,142.746 216.000 C 139.931 206.134,139.784 193.427,142.390 185.200 C 142.565 184.650,142.929 183.390,143.199 182.400 C 143.718 180.501,143.908 179.972,144.994 177.400 C 150.993 163.186,163.394 150.568,176.400 145.444 C 177.390 145.053,178.740 144.502,179.400 144.219 C 180.060 143.936,181.410 143.479,182.400 143.205 C 183.390 142.931,184.650 142.565,185.200 142.390 C 190.353 140.757,200.567 139.977,205.967 140.803 C 211.004 141.573,213.807 142.078,215.000 142.429 C 230.063 146.864,241.284 154.871,249.575 167.100 C 251.618 170.113,251.241 170.091,255.740 167.457 C 257.753 166.279,260.210 164.864,261.200 164.314 C 263.715 162.915,265.461 161.913,267.918 160.456 C 269.082 159.765,270.207 159.200,270.418 159.200 C 270.628 159.200,270.800 159.041,270.800 158.847 C 270.800 158.652,271.115 158.390,271.500 158.264 C 271.885 158.138,272.920 157.601,273.800 157.070 C 278.965 153.953,292.928 146.000,293.235 146.000 C 293.436 146.000,293.600 145.841,293.600 145.647 C 293.600 145.452,293.915 145.190,294.300 145.064 C 294.685 144.938,295.765 144.377,296.700 143.818 C 297.635 143.258,299.158 142.372,300.084 141.848 C 302.333 140.577,302.337 140.660,299.773 136.575 C 293.484 126.557,280.216 112.006,272.643 106.823 C 272.179 106.506,271.710 106.129,271.600 105.986 C 271.121 105.363,261.431 99.048,257.984 97.112 C 252.191 93.859,246.192 91.039,242.000 89.600 C 241.230 89.336,240.240 88.967,239.800 88.781 C 237.853 87.958,231.478 86.047,228.000 85.243 C 225.910 84.760,223.480 84.194,222.600 83.986 C 216.720 82.594,196.701 81.538,189.800 82.255 M292.310 187.300 L 292.200 193.800 285.700 193.910 L 279.200 194.020 279.200 200.000 L 279.200 205.980 285.700 206.090 L 292.200 206.200 292.310 212.700 L 292.420 219.200 298.610 219.200 L 304.800 219.200 304.800 213.374 C 304.800 205.468,304.294 206.000,311.814 206.000 L 318.000 206.000 318.000 200.000 L 318.000 194.000 311.814 194.000 C 304.294 194.000,304.800 194.532,304.800 186.626 L 304.800 180.800 298.610 180.800 L 292.420 180.800 292.310 187.300 M341.600 187.400 L 341.600 194.000 335.200 194.000 L 328.800 194.000 328.800 199.990 L 328.800 205.980 335.100 206.090 L 341.400 206.200 341.510 212.700 L 341.620 219.200 348.000 219.200 L 354.380 219.200 354.490 212.700 L 354.600 206.200 361.100 206.090 L 367.600 205.980 367.600 200.000 L 367.600 194.020 361.100 193.910 L 354.600 193.800 354.490 187.300 L 354.380 180.800 347.990 180.800 L 341.600 180.800 341.600 187.400 " stroke="none" fill="#fbfbfb" fill-rule="evenodd"></path><path id="path2" d="M373.617 99.215 C 373.602 99.739,372.316 100.613,367.400 103.438 C 358.256 108.693,352.719 111.889,349.800 113.596 C 345.232 116.269,343.831 117.074,341.600 118.310 C 340.610 118.858,339.620 119.439,339.400 119.600 C 339.180 119.761,338.190 120.346,337.200 120.899 C 336.210 121.452,330.180 124.920,323.800 128.605 C 312.346 135.220,310.853 136.082,308.300 137.546 C 307.585 137.956,306.280 138.706,305.400 139.213 C 304.520 139.720,303.440 140.447,303.000 140.829 C 302.560 141.210,301.525 141.900,300.700 142.361 C 298.405 143.644,296.801 144.569,294.482 145.944 C 293.318 146.635,292.193 147.200,291.982 147.200 C 291.772 147.200,291.600 147.359,291.600 147.553 C 291.600 147.748,291.285 148.010,290.900 148.136 C 290.515 148.262,289.390 148.844,288.400 149.430 C 283.108 152.562,279.095 154.800,278.768 154.800 C 278.566 154.800,278.400 154.959,278.400 155.153 C 278.400 155.348,278.085 155.610,277.700 155.736 C 277.315 155.862,276.235 156.423,275.300 156.982 C 274.365 157.542,272.835 158.458,271.900 159.018 C 270.965 159.577,269.885 160.138,269.500 160.264 C 269.115 160.390,268.800 160.652,268.800 160.847 C 268.800 161.041,268.628 161.200,268.418 161.200 C 268.207 161.200,267.082 161.765,265.918 162.456 C 264.753 163.147,263.260 164.025,262.600 164.407 C 261.940 164.789,260.230 165.784,258.800 166.617 C 257.370 167.450,254.220 169.159,251.800 170.415 C 249.380 171.671,242.810 175.354,237.200 178.601 C 231.590 181.847,226.370 184.859,225.600 185.294 C 224.830 185.729,224.020 186.220,223.800 186.385 C 223.580 186.550,222.410 187.226,221.200 187.887 C 219.990 188.548,216.317 190.644,213.038 192.545 C 209.758 194.445,207.032 196.000,206.978 196.000 C 206.925 196.000,205.738 196.690,204.341 197.534 C 202.943 198.377,200.810 199.611,199.600 200.275 C 197.095 201.649,197.545 201.391,185.800 208.205 C 180.960 211.013,176.010 213.853,174.800 214.516 C 173.590 215.179,172.150 216.025,171.600 216.396 C 171.050 216.767,170.330 217.185,170.000 217.326 C 169.670 217.467,168.567 218.081,167.549 218.691 C 166.531 219.301,161.986 221.940,157.449 224.555 C 152.912 227.170,149.200 229.442,149.200 229.603 C 149.200 230.246,153.246 235.973,155.721 238.834 C 180.851 267.876,228.170 264.702,249.073 232.572 C 250.133 230.943,251.189 229.608,251.420 229.605 C 252.070 229.597,253.993 230.564,253.997 230.900 C 253.999 231.065,254.174 231.200,254.386 231.200 C 254.598 231.200,256.533 232.218,258.686 233.461 C 260.839 234.705,263.185 236.055,263.900 236.461 C 264.615 236.868,265.830 237.560,266.600 238.000 C 267.370 238.440,268.675 239.179,269.500 239.643 C 270.325 240.106,271.180 240.627,271.400 240.800 C 271.620 240.973,272.475 241.494,273.300 241.957 C 274.125 242.421,275.475 243.179,276.300 243.643 C 277.125 244.106,277.980 244.627,278.200 244.800 C 278.584 245.102,279.681 245.735,283.600 247.914 C 285.784 249.128,297.172 255.729,299.400 257.071 C 300.280 257.601,301.315 258.138,301.700 258.264 C 303.547 258.869,297.129 269.813,291.494 275.669 C 291.213 275.961,290.568 276.740,290.060 277.400 C 288.895 278.915,283.653 284.314,280.545 287.200 C 277.530 290.000,274.607 292.466,272.171 294.265 C 271.527 294.741,270.190 295.734,269.200 296.472 C 262.623 301.377,250.960 307.716,243.200 310.604 C 242.210 310.973,241.040 311.430,240.600 311.620 C 218.255 321.285,179.242 320.725,156.232 310.408 C 155.334 310.006,153.798 309.345,152.819 308.938 C 150.699 308.059,143.968 304.687,140.600 302.816 C 138.351 301.567,128.439 294.966,128.000 294.426 C 127.890 294.290,126.990 293.554,126.000 292.790 C 117.187 285.986,107.618 275.419,100.346 264.462 C 98.836 262.186,97.600 260.161,97.600 259.962 C 97.600 259.132,96.657 259.614,85.000 266.398 C 82.030 268.127,60.454 280.583,59.200 281.293 C 58.430 281.729,57.620 282.220,57.400 282.385 C 57.180 282.550,56.010 283.224,54.800 283.883 C 53.590 284.543,51.970 285.447,51.200 285.893 C 24.361 301.429,26.157 300.423,25.830 300.097 C 25.680 299.947,25.676 300.134,25.822 300.512 C 25.967 300.890,26.246 301.200,26.443 301.200 C 26.639 301.200,26.800 301.393,26.800 301.628 C 26.800 302.362,29.286 305.730,30.981 307.292 C 31.872 308.113,33.180 309.328,33.889 309.992 C 34.597 310.657,35.413 311.200,35.700 311.200 C 35.988 311.200,36.483 311.560,36.800 312.000 C 37.117 312.440,37.697 312.800,38.088 312.800 C 38.480 312.800,38.800 312.980,38.800 313.200 C 38.800 313.420,39.160 313.600,39.600 313.600 C 40.040 313.600,40.400 313.780,40.400 314.000 C 40.400 314.220,40.720 314.400,41.112 314.400 C 41.503 314.400,42.083 314.760,42.400 315.200 C 42.717 315.640,43.207 316.000,43.488 316.000 C 43.770 316.000,44.000 316.180,44.000 316.400 C 44.000 316.620,44.360 316.800,44.800 316.800 C 45.240 316.800,45.600 316.980,45.600 317.200 C 45.600 317.420,45.878 317.600,46.217 317.600 C 46.556 317.600,47.220 317.960,47.692 318.400 C 48.164 318.840,48.787 319.200,49.075 319.200 C 49.364 319.200,49.600 319.380,49.600 319.600 C 49.600 319.820,49.960 320.000,50.400 320.000 C 50.840 320.000,51.200 320.158,51.200 320.351 C 51.200 320.545,51.740 320.927,52.400 321.200 C 53.060 321.473,53.600 321.855,53.600 322.049 C 53.600 322.242,53.960 322.400,54.400 322.400 C 54.840 322.400,55.200 322.580,55.200 322.800 C 55.200 323.020,55.560 323.200,56.000 323.200 C 56.440 323.200,56.800 323.353,56.800 323.539 C 56.800 323.726,57.565 324.216,58.500 324.628 C 59.435 325.041,60.290 325.473,60.400 325.590 C 60.510 325.706,61.095 326.056,61.700 326.368 C 62.305 326.680,62.800 327.085,62.800 327.268 C 62.800 327.450,63.160 327.600,63.600 327.600 C 64.040 327.600,64.400 327.780,64.400 328.000 C 64.400 328.220,64.760 328.400,65.200 328.400 C 65.640 328.400,66.000 328.580,66.000 328.800 C 66.000 329.020,66.270 329.200,66.600 329.200 C 66.930 329.200,67.200 329.380,67.200 329.600 C 67.200 329.820,67.470 330.000,67.800 330.000 C 68.130 330.000,68.400 330.180,68.400 330.400 C 68.400 330.620,68.760 330.800,69.200 330.800 C 69.640 330.800,70.000 330.980,70.000 331.200 C 70.000 331.420,70.278 331.600,70.617 331.600 C 70.956 331.600,71.620 331.960,72.092 332.400 C 72.564 332.840,73.187 333.200,73.475 333.200 C 73.764 333.200,74.000 333.380,74.000 333.600 C 74.000 333.820,74.360 334.000,74.800 334.000 C 75.240 334.000,75.600 334.180,75.600 334.400 C 75.600 334.620,75.870 334.800,76.200 334.800 C 76.530 334.800,76.800 334.980,76.800 335.200 C 76.800 335.420,77.070 335.600,77.400 335.600 C 77.730 335.600,78.000 335.746,78.000 335.925 C 78.000 336.104,78.630 336.498,79.400 336.800 C 80.170 337.102,80.800 337.496,80.800 337.675 C 80.800 337.854,81.160 338.000,81.600 338.000 C 82.040 338.000,82.400 338.152,82.400 338.337 C 82.400 338.523,83.255 339.105,84.300 339.632 C 85.345 340.158,86.292 340.712,86.404 340.863 C 86.516 341.013,87.101 341.260,87.704 341.412 C 88.307 341.563,88.800 341.847,88.800 342.043 C 88.800 342.240,89.160 342.400,89.600 342.400 C 90.040 342.400,90.400 342.580,90.400 342.800 C 90.400 343.020,90.720 343.200,91.112 343.200 C 91.503 343.200,92.083 343.560,92.400 344.000 C 92.717 344.440,93.207 344.800,93.488 344.800 C 93.770 344.800,94.000 344.980,94.000 345.200 C 94.000 345.420,94.360 345.600,94.800 345.600 C 95.240 345.600,95.600 345.780,95.600 346.000 C 95.600 346.220,95.920 346.400,96.312 346.400 C 96.703 346.400,97.283 346.760,97.600 347.200 C 97.917 347.640,98.497 348.000,98.888 348.000 C 99.280 348.000,99.600 348.180,99.600 348.400 C 99.600 348.620,99.960 348.800,100.400 348.800 C 100.840 348.800,101.200 348.980,101.200 349.200 C 101.200 349.420,101.436 349.600,101.725 349.600 C 102.013 349.600,102.636 349.960,103.108 350.400 C 103.580 350.840,104.244 351.200,104.583 351.200 C 104.922 351.200,105.200 351.380,105.200 351.600 C 105.200 351.820,105.560 352.000,106.000 352.000 C 106.440 352.000,106.800 352.158,106.800 352.351 C 106.800 352.545,107.340 352.927,108.000 353.200 C 108.660 353.473,109.200 353.811,109.200 353.951 C 109.200 354.090,109.785 354.459,110.500 354.770 C 111.215 355.081,111.890 355.440,112.000 355.568 C 112.321 355.940,116.098 358.000,117.300 358.459 C 117.905 358.689,118.400 359.041,118.400 359.239 C 118.400 359.438,118.760 359.600,119.200 359.600 C 119.640 359.600,120.000 359.780,120.000 360.000 C 120.000 360.220,120.360 360.400,120.800 360.400 C 121.240 360.400,121.600 360.580,121.600 360.800 C 121.600 361.020,121.836 361.200,122.125 361.200 C 122.413 361.200,123.036 361.560,123.508 362.000 C 123.980 362.440,124.644 362.800,124.983 362.800 C 125.322 362.800,125.600 362.980,125.600 363.200 C 125.600 363.420,125.870 363.600,126.200 363.600 C 126.530 363.600,126.800 363.780,126.800 364.000 C 126.800 364.220,127.070 364.400,127.400 364.400 C 127.730 364.400,128.000 364.580,128.000 364.800 C 128.000 365.020,128.270 365.200,128.600 365.200 C 128.930 365.200,129.200 365.380,129.200 365.600 C 129.200 365.820,129.560 366.000,130.000 366.000 C 130.440 366.000,130.800 366.180,130.800 366.400 C 130.800 366.620,131.078 366.800,131.417 366.800 C 131.756 366.800,132.420 367.160,132.892 367.600 C 133.364 368.040,133.987 368.400,134.275 368.400 C 134.564 368.400,134.800 368.580,134.800 368.800 C 134.800 369.020,135.145 369.200,135.567 369.200 C 135.988 369.200,136.393 369.335,136.467 369.500 C 136.634 369.876,138.764 371.175,139.700 371.471 C 140.085 371.593,140.400 371.852,140.400 372.047 C 140.400 372.241,140.745 372.400,141.167 372.400 C 141.588 372.400,141.993 372.542,142.067 372.715 C 142.247 373.140,145.829 375.200,146.388 375.200 C 146.633 375.200,147.220 375.560,147.692 376.000 C 148.164 376.440,148.787 376.800,149.075 376.800 C 149.364 376.800,149.600 376.980,149.600 377.200 C 149.600 377.420,149.960 377.600,150.400 377.600 C 150.840 377.600,151.200 377.780,151.200 378.000 C 151.200 378.220,151.520 378.400,151.912 378.400 C 152.303 378.400,152.883 378.760,153.200 379.200 C 153.517 379.640,154.097 380.000,154.488 380.000 C 154.880 380.000,155.200 380.180,155.200 380.400 C 155.200 380.620,155.560 380.800,156.000 380.800 C 156.440 380.800,156.800 380.980,156.800 381.200 C 156.800 381.420,157.036 381.600,157.325 381.600 C 157.613 381.600,158.198 381.915,158.625 382.300 C 159.051 382.685,159.940 383.270,160.600 383.599 C 161.260 383.929,161.890 384.289,162.000 384.399 C 162.394 384.795,164.613 386.054,165.300 386.271 C 165.685 386.393,166.000 386.652,166.000 386.847 C 166.000 387.041,166.360 387.200,166.800 387.200 C 167.240 387.200,167.600 387.345,167.600 387.521 C 167.600 387.698,168.497 388.283,169.594 388.821 C 170.690 389.360,171.590 389.935,171.594 390.100 C 171.597 390.265,171.883 390.400,172.229 390.400 C 172.574 390.400,173.127 390.670,173.457 391.000 C 173.787 391.330,174.404 391.600,174.829 391.600 C 175.253 391.600,175.600 391.780,175.600 392.000 C 175.600 392.220,175.870 392.400,176.200 392.400 C 176.530 392.400,176.800 392.580,176.800 392.800 C 176.800 393.020,177.036 393.200,177.325 393.200 C 177.613 393.200,178.236 393.560,178.708 394.000 C 179.180 394.440,179.844 394.800,180.183 394.800 C 180.522 394.800,180.800 394.980,180.800 395.200 C 180.800 395.420,181.078 395.600,181.417 395.600 C 181.756 395.600,182.420 395.960,182.892 396.400 C 183.364 396.840,183.987 397.200,184.275 397.200 C 184.564 397.200,184.800 397.380,184.800 397.600 C 184.800 397.820,185.149 398.000,185.576 398.000 C 186.003 398.000,186.464 398.180,186.600 398.400 C 186.736 398.620,187.272 398.800,187.790 398.800 C 188.309 398.800,188.808 399.025,188.900 399.300 C 189.028 399.684,191.609 399.800,200.000 399.800 C 208.391 399.800,210.972 399.684,211.100 399.300 C 211.192 399.025,211.691 398.800,212.210 398.800 C 212.728 398.800,213.264 398.620,213.400 398.400 C 213.536 398.180,213.997 398.000,214.424 398.000 C 214.851 398.000,215.200 397.820,215.200 397.600 C 215.200 397.380,215.436 397.200,215.725 397.200 C 216.013 397.200,216.636 396.840,217.108 396.400 C 217.580 395.960,218.244 395.600,218.583 395.600 C 218.922 395.600,219.200 395.420,219.200 395.200 C 219.200 394.980,219.560 394.800,220.000 394.800 C 220.440 394.800,220.800 394.620,220.800 394.400 C 220.800 394.180,221.070 394.000,221.400 394.000 C 221.730 394.000,222.000 393.820,222.000 393.600 C 222.000 393.380,222.270 393.200,222.600 393.200 C 222.930 393.200,223.200 393.020,223.200 392.800 C 223.200 392.580,223.560 392.400,224.000 392.400 C 224.440 392.400,224.800 392.240,224.800 392.043 C 224.800 391.847,225.250 391.574,225.800 391.436 C 226.350 391.298,226.800 391.008,226.800 390.792 C 226.800 390.577,227.160 390.400,227.600 390.400 C 228.040 390.400,228.400 390.220,228.400 390.000 C 228.400 389.780,228.760 389.600,229.200 389.600 C 229.640 389.600,230.000 389.420,230.000 389.200 C 230.000 388.980,230.236 388.800,230.525 388.800 C 230.813 388.800,231.436 388.440,231.908 388.000 C 232.380 387.560,233.044 387.200,233.383 387.200 C 233.722 387.200,234.000 387.020,234.000 386.800 C 234.000 386.580,234.278 386.400,234.617 386.400 C 234.956 386.400,235.620 386.040,236.092 385.600 C 236.564 385.160,237.187 384.800,237.475 384.800 C 237.764 384.800,238.000 384.620,238.000 384.400 C 238.000 384.180,238.360 384.000,238.800 384.000 C 239.240 384.000,239.600 383.820,239.600 383.600 C 239.600 383.380,239.870 383.200,240.200 383.200 C 240.530 383.200,240.800 383.020,240.800 382.800 C 240.800 382.580,241.036 382.400,241.325 382.400 C 241.613 382.400,242.236 382.040,242.708 381.600 C 243.180 381.160,243.844 380.800,244.183 380.800 C 244.522 380.800,244.800 380.620,244.800 380.400 C 244.800 380.180,245.078 380.000,245.417 380.000 C 245.756 380.000,246.420 379.640,246.892 379.200 C 247.364 378.760,247.987 378.400,248.275 378.400 C 248.564 378.400,248.800 378.220,248.800 378.000 C 248.800 377.780,249.160 377.600,249.600 377.600 C 250.040 377.600,250.400 377.420,250.400 377.200 C 250.400 376.980,250.720 376.800,251.112 376.800 C 251.503 376.800,252.083 376.440,252.400 376.000 C 252.717 375.560,253.252 375.200,253.588 375.199 C 253.925 375.198,255.244 374.568,256.520 373.799 C 257.796 373.030,259.011 372.400,259.220 372.400 C 259.429 372.400,259.600 372.220,259.600 372.000 C 259.600 371.780,259.878 371.600,260.217 371.600 C 260.556 371.600,261.220 371.240,261.692 370.800 C 262.164 370.360,262.787 370.000,263.075 370.000 C 263.364 370.000,263.600 369.820,263.600 369.600 C 263.600 369.380,263.960 369.200,264.400 369.200 C 264.840 369.200,265.200 369.020,265.200 368.800 C 265.200 368.580,265.436 368.400,265.725 368.400 C 266.013 368.400,266.636 368.040,267.108 367.600 C 267.580 367.160,268.244 366.800,268.583 366.800 C 268.922 366.800,269.200 366.620,269.200 366.400 C 269.200 366.180,269.560 366.000,270.000 366.000 C 270.440 366.000,270.800 365.820,270.800 365.600 C 270.800 365.380,271.070 365.200,271.400 365.200 C 271.730 365.200,272.000 365.020,272.000 364.800 C 272.000 364.580,272.270 364.400,272.600 364.400 C 272.930 364.400,273.200 364.254,273.200 364.075 C 273.200 363.896,273.830 363.502,274.600 363.200 C 275.370 362.898,276.000 362.504,276.000 362.325 C 276.000 362.146,276.320 362.000,276.712 362.000 C 277.103 362.000,277.683 361.640,278.000 361.200 C 278.317 360.760,278.897 360.400,279.288 360.400 C 279.680 360.400,280.000 360.220,280.000 360.000 C 280.000 359.780,280.345 359.600,280.767 359.600 C 281.188 359.600,281.593 359.457,281.667 359.282 C 281.740 359.108,283.195 358.261,284.900 357.401 C 286.605 356.541,288.000 355.728,288.000 355.593 C 288.000 355.459,288.630 355.102,289.400 354.800 C 290.170 354.498,290.800 354.104,290.800 353.925 C 290.800 353.746,291.036 353.600,291.325 353.600 C 291.613 353.600,292.236 353.240,292.708 352.800 C 293.180 352.360,293.844 352.000,294.183 352.000 C 294.522 352.000,294.800 351.820,294.800 351.600 C 294.800 351.380,295.160 351.200,295.600 351.200 C 296.040 351.200,296.400 351.020,296.400 350.800 C 296.400 350.580,296.636 350.400,296.925 350.400 C 297.213 350.400,297.836 350.040,298.308 349.600 C 298.780 349.160,299.444 348.800,299.783 348.800 C 300.122 348.800,300.400 348.620,300.400 348.400 C 300.400 348.180,300.678 348.000,301.017 348.000 C 301.356 348.000,302.020 347.640,302.492 347.200 C 302.964 346.760,303.587 346.400,303.875 346.400 C 304.164 346.400,304.400 346.220,304.400 346.000 C 304.400 345.780,304.760 345.600,305.200 345.600 C 305.640 345.600,306.000 345.420,306.000 345.200 C 306.000 344.980,306.270 344.800,306.600 344.800 C 306.930 344.800,307.200 344.620,307.200 344.400 C 307.200 344.180,307.470 344.000,307.800 344.000 C 308.130 344.000,308.400 343.820,308.400 343.600 C 308.400 343.380,308.670 343.200,309.000 343.200 C 309.330 343.200,309.600 343.020,309.600 342.800 C 309.600 342.580,309.960 342.400,310.400 342.400 C 310.840 342.400,311.200 342.220,311.200 342.000 C 311.200 341.780,311.547 341.600,311.971 341.600 C 312.396 341.600,312.981 341.375,313.271 341.100 C 313.751 340.646,315.980 339.378,318.297 338.240 C 318.790 337.998,319.195 337.665,319.197 337.500 C 319.199 337.335,319.560 337.200,320.000 337.200 C 320.440 337.200,320.800 337.020,320.800 336.800 C 320.800 336.580,321.070 336.400,321.400 336.400 C 321.730 336.400,322.000 336.220,322.000 336.000 C 322.000 335.780,322.270 335.600,322.600 335.600 C 322.930 335.600,323.200 335.454,323.200 335.275 C 323.200 335.096,323.830 334.702,324.600 334.400 C 325.370 334.098,326.000 333.704,326.000 333.525 C 326.000 333.346,326.320 333.200,326.712 333.200 C 327.103 333.200,327.683 332.840,328.000 332.400 C 328.317 331.960,328.897 331.600,329.288 331.600 C 329.680 331.600,330.000 331.420,330.000 331.200 C 330.000 330.980,330.360 330.800,330.800 330.800 C 331.240 330.800,331.600 330.620,331.600 330.400 C 331.600 330.180,331.836 330.000,332.125 330.000 C 332.413 330.000,333.036 329.640,333.508 329.200 C 333.980 328.760,334.644 328.400,334.983 328.400 C 335.322 328.400,335.600 328.220,335.600 328.000 C 335.600 327.780,335.960 327.600,336.400 327.600 C 336.840 327.600,337.200 327.420,337.200 327.200 C 337.200 326.980,337.470 326.800,337.800 326.800 C 338.130 326.800,338.400 326.620,338.400 326.400 C 338.400 326.180,338.670 326.000,339.000 326.000 C 339.330 326.000,339.601 325.865,339.601 325.700 C 339.602 325.535,340.412 325.067,341.401 324.660 C 342.391 324.254,343.200 323.759,343.200 323.560 C 343.200 323.362,343.560 323.200,344.000 323.200 C 344.440 323.200,344.800 323.020,344.800 322.800 C 344.800 322.580,345.160 322.400,345.600 322.400 C 346.040 322.400,346.400 322.220,346.400 322.000 C 346.400 321.780,346.636 321.600,346.925 321.600 C 347.213 321.600,347.836 321.240,348.308 320.800 C 348.780 320.360,349.444 320.000,349.783 320.000 C 350.122 320.000,350.400 319.820,350.400 319.600 C 350.400 319.380,350.678 319.200,351.017 319.200 C 351.356 319.200,352.020 318.840,352.492 318.400 C 352.964 317.960,353.587 317.600,353.875 317.600 C 354.164 317.600,354.400 317.420,354.400 317.200 C 354.400 316.980,354.760 316.800,355.200 316.800 C 355.640 316.800,356.000 316.620,356.000 316.400 C 356.000 316.180,356.270 316.000,356.600 316.000 C 356.930 316.000,357.200 315.820,357.200 315.600 C 357.200 315.380,357.470 315.200,357.800 315.200 C 358.130 315.200,358.400 315.020,358.400 314.800 C 358.400 314.580,358.670 314.400,359.000 314.400 C 359.330 314.400,359.600 314.220,359.600 314.000 C 359.600 313.780,359.960 313.600,360.400 313.600 C 360.840 313.600,361.200 313.420,361.200 313.200 C 361.200 312.980,361.520 312.800,361.912 312.800 C 362.303 312.800,362.883 312.440,363.200 312.000 C 363.517 311.560,364.012 311.200,364.300 311.200 C 364.587 311.200,365.452 310.615,366.221 309.900 C 369.592 306.767,371.600 304.692,371.600 304.343 C 371.600 304.136,371.960 303.580,372.400 303.108 C 372.840 302.636,373.200 302.013,373.200 301.725 C 373.200 301.436,373.347 301.200,373.526 301.200 C 373.924 301.200,375.200 298.599,375.200 297.786 C 375.200 297.464,375.380 297.200,375.600 297.200 C 375.820 297.200,376.000 296.660,376.000 296.000 C 376.000 295.340,376.180 294.800,376.400 294.800 C 376.620 294.800,376.800 294.260,376.800 293.600 C 376.800 292.940,376.980 292.400,377.200 292.400 C 377.420 292.400,377.600 291.781,377.600 291.024 C 377.600 290.267,377.780 289.536,378.000 289.400 C 378.554 289.057,378.554 110.943,378.000 110.600 C 377.780 110.464,377.600 109.733,377.600 108.976 C 377.600 108.219,377.420 107.600,377.200 107.600 C 376.980 107.600,376.800 107.060,376.800 106.400 C 376.800 105.740,376.620 105.200,376.400 105.200 C 376.180 105.200,376.000 104.660,376.000 104.000 C 376.000 103.340,375.820 102.800,375.600 102.800 C 375.380 102.800,375.192 102.485,375.183 102.100 C 375.162 101.201,373.639 98.397,373.617 99.215 M305.510 186.500 L 305.620 192.800 311.310 192.805 C 319.603 192.813,318.800 192.042,318.800 200.004 C 318.800 207.967,319.571 207.200,311.567 207.200 L 305.600 207.200 305.600 213.600 L 305.600 220.000 298.800 220.000 L 292.000 220.000 292.000 213.610 L 292.000 207.220 285.500 207.110 L 279.000 207.000 278.890 200.230 C 278.758 192.111,278.094 192.814,285.900 192.806 L 292.000 192.800 292.000 186.667 C 292.000 183.293,292.124 180.409,292.276 180.257 C 292.428 180.105,295.443 180.030,298.976 180.090 L 305.400 180.200 305.510 186.500 M354.800 186.400 L 354.800 192.800 360.971 192.800 C 368.894 192.800,368.400 192.331,368.400 199.855 C 368.400 207.745,368.936 207.200,361.186 207.200 L 354.800 207.200 354.800 213.610 L 354.800 220.019 348.100 219.910 L 341.400 219.800 341.290 213.500 L 341.180 207.200 335.070 207.200 C 327.439 207.200,328.000 207.776,328.000 199.934 C 328.000 192.275,327.457 192.800,335.374 192.800 L 341.200 192.800 341.200 186.667 C 341.200 183.293,341.320 180.413,341.467 180.267 C 341.613 180.120,344.673 180.000,348.267 180.000 L 354.800 180.000 354.800 186.400 " stroke="none" fill="#044d8d" fill-rule="evenodd"></path><path id="path3" d="M190.400 81.606 C 189.410 81.763,190.940 81.801,193.800 81.690 C 196.660 81.580,199.075 81.424,199.167 81.345 C 199.456 81.094,192.282 81.307,190.400 81.606 M201.233 81.344 C 201.325 81.424,203.650 81.582,206.400 81.695 C 209.486 81.823,210.711 81.779,209.600 81.581 C 207.815 81.262,200.913 81.067,201.233 81.344 M183.200 82.400 L 182.200 82.720 183.200 82.713 C 183.750 82.709,184.740 82.568,185.400 82.400 L 186.600 82.095 185.400 82.087 C 184.740 82.083,183.750 82.224,183.200 82.400 M214.600 82.400 C 215.260 82.568,216.250 82.709,216.800 82.713 L 217.800 82.720 216.800 82.400 C 216.250 82.224,215.260 82.083,214.600 82.087 L 213.400 82.095 214.600 82.400 M178.000 83.200 C 176.643 83.486,176.637 83.495,177.800 83.507 C 178.460 83.515,179.450 83.376,180.000 83.200 C 181.312 82.780,179.996 82.780,178.000 83.200 M220.000 83.200 C 220.550 83.376,221.450 83.517,222.000 83.513 C 222.898 83.506,222.878 83.474,221.800 83.200 C 220.108 82.769,218.656 82.769,220.000 83.200 M174.200 84.000 C 173.111 84.277,173.093 84.307,174.000 84.325 C 174.550 84.335,175.360 84.189,175.800 84.000 C 176.786 83.576,175.866 83.576,174.200 84.000 M224.200 83.981 C 224.968 84.329,227.110 84.556,226.767 84.253 C 226.675 84.172,225.880 83.996,225.000 83.862 C 223.885 83.693,223.642 83.729,224.200 83.981 M170.800 84.800 C 169.996 85.057,169.957 85.123,170.600 85.132 C 171.040 85.138,171.760 84.989,172.200 84.800 C 173.219 84.362,172.168 84.362,170.800 84.800 M227.800 84.800 C 228.240 84.989,228.870 85.144,229.200 85.144 C 229.578 85.144,229.504 85.017,229.000 84.800 C 228.560 84.611,227.930 84.456,227.600 84.456 C 227.222 84.456,227.296 84.583,227.800 84.800 M231.633 85.744 C 231.725 85.823,232.340 86.008,233.000 86.156 C 233.876 86.352,234.038 86.315,233.600 86.018 C 233.060 85.653,231.232 85.398,231.633 85.744 M240.226 88.565 C 242.244 89.444,243.526 89.659,241.800 88.829 C 240.920 88.406,239.930 88.053,239.600 88.045 C 239.270 88.038,239.552 88.272,240.226 88.565 M152.500 91.034 C 151.785 91.346,151.200 91.694,151.200 91.807 C 151.200 92.015,154.006 90.927,154.346 90.587 C 154.686 90.247,153.820 90.457,152.500 91.034 M145.900 94.229 C 144.405 95.040,144.496 95.378,146.000 94.600 C 146.660 94.259,147.200 93.894,147.200 93.790 C 147.200 93.532,147.157 93.547,145.900 94.229 M260.000 97.779 C 260.000 97.889,260.540 98.259,261.200 98.600 C 261.860 98.941,262.400 99.131,262.400 99.021 C 262.400 98.911,261.860 98.541,261.200 98.200 C 260.540 97.859,260.000 97.669,260.000 97.779 M133.695 101.411 C 132.543 102.186,131.600 102.908,131.600 103.015 C 131.600 103.121,132.590 102.551,133.800 101.747 C 135.722 100.471,136.287 100.000,135.895 100.000 C 135.837 100.000,134.847 100.635,133.695 101.411 M264.000 100.097 C 264.000 100.202,265.035 100.970,266.300 101.806 C 267.565 102.641,269.680 104.145,271.000 105.147 C 272.320 106.150,273.180 106.694,272.911 106.357 C 272.132 105.381,264.000 99.669,264.000 100.097 M125.644 107.404 C 124.678 108.172,124.048 108.793,124.244 108.785 C 124.616 108.769,127.949 106.013,127.600 106.010 C 127.490 106.009,126.610 106.636,125.644 107.404 M117.781 114.477 C 114.791 117.380,111.610 120.665,110.711 121.777 C 109.812 122.890,110.643 122.142,112.556 120.116 C 114.470 118.089,117.781 114.804,119.914 112.816 C 122.047 110.827,123.662 109.200,123.504 109.200 C 123.346 109.200,120.770 111.575,117.781 114.477 M279.200 111.887 C 280.850 113.440,282.257 114.660,282.326 114.596 C 282.484 114.452,278.968 111.149,277.383 109.953 C 276.732 109.463,277.550 110.333,279.200 111.887 M288.989 121.700 C 290.283 123.185,291.417 124.400,291.508 124.400 C 291.773 124.400,288.583 120.681,287.562 119.800 C 287.053 119.360,287.695 120.215,288.989 121.700 M108.186 124.578 C 107.974 124.875,107.383 125.676,106.873 126.359 C 106.363 127.041,106.018 127.600,106.106 127.600 C 106.389 127.600,108.886 124.353,108.726 124.193 C 108.641 124.108,108.398 124.281,108.186 124.578 M292.006 125.033 C 292.009 125.235,292.656 126.120,293.444 127.000 L 294.876 128.600 293.561 126.800 C 292.837 125.810,292.190 124.925,292.123 124.833 C 292.055 124.742,292.003 124.832,292.006 125.033 M297.888 133.294 C 300.677 137.440,302.229 139.529,301.387 138.000 C 300.568 136.516,295.584 129.237,295.241 129.025 C 295.030 128.895,296.222 130.816,297.888 133.294 M101.687 133.300 C 100.227 135.456,99.912 136.000,100.120 136.000 C 100.212 136.000,100.944 135.010,101.747 133.800 C 102.551 132.590,103.125 131.600,103.023 131.600 C 102.922 131.600,102.320 132.365,101.687 133.300 M194.200 141.157 C 193.320 141.291,195.930 141.400,200.000 141.401 C 204.089 141.401,206.595 141.280,205.600 141.130 C 203.427 140.803,196.420 140.819,194.200 141.157 M188.400 142.000 L 187.400 142.320 188.400 142.354 C 188.950 142.373,189.670 142.213,190.000 142.000 C 190.764 141.506,189.942 141.506,188.400 142.000 M210.000 142.000 C 210.330 142.213,211.050 142.373,211.600 142.354 L 212.600 142.320 211.600 142.000 C 210.058 141.506,209.236 141.506,210.000 142.000 M185.000 142.800 C 184.229 143.131,184.231 143.145,185.076 143.172 C 185.558 143.187,186.064 143.020,186.200 142.800 C 186.492 142.327,186.101 142.327,185.000 142.800 M213.600 142.800 C 213.930 143.013,214.560 143.178,215.000 143.166 L 215.800 143.144 215.000 142.800 C 213.804 142.286,212.805 142.286,213.600 142.800 M94.200 146.000 C 93.859 146.660,93.669 147.200,93.779 147.200 C 93.889 147.200,94.259 146.660,94.600 146.000 C 94.941 145.340,95.131 144.800,95.021 144.800 C 94.911 144.800,94.541 145.340,94.200 146.000 M174.489 146.661 C 173.329 147.239,172.442 147.775,172.519 147.852 C 172.682 148.016,176.800 146.007,176.800 145.764 C 176.800 145.516,176.755 145.533,174.489 146.661 M223.200 145.741 C 223.200 145.992,227.305 148.028,227.473 147.860 C 227.581 147.753,226.337 147.076,223.500 145.698 C 223.335 145.618,223.200 145.637,223.200 145.741 M170.175 148.939 C 167.840 150.275,163.693 153.126,163.402 153.597 C 163.266 153.817,164.842 152.873,166.904 151.498 C 168.965 150.124,171.001 148.786,171.426 148.524 C 172.829 147.660,171.834 147.990,170.175 148.939 M228.000 148.179 C 228.000 148.289,228.540 148.659,229.200 149.000 C 229.860 149.341,230.400 149.531,230.400 149.421 C 230.400 149.311,229.860 148.941,229.200 148.600 C 228.540 148.259,228.000 148.069,228.000 148.179 M231.000 149.872 C 231.857 150.706,236.913 154.106,236.640 153.664 C 236.481 153.407,235.327 152.508,234.075 151.668 C 231.448 149.903,230.408 149.295,231.000 149.872 M91.000 152.661 C 90.664 153.465,90.482 154.215,90.595 154.328 C 90.708 154.441,90.800 154.435,90.800 154.316 C 90.800 154.196,91.072 153.446,91.405 152.649 C 91.738 151.852,91.921 151.200,91.811 151.200 C 91.701 151.200,91.336 151.858,91.000 152.661 M237.234 154.254 C 237.252 154.444,237.972 155.206,238.834 155.946 C 239.695 156.687,240.385 157.137,240.366 156.946 C 240.348 156.756,239.628 155.994,238.766 155.254 C 237.905 154.513,237.215 154.063,237.234 154.254 M159.600 156.931 C 158.390 158.094,156.773 159.755,156.007 160.623 C 155.240 161.490,156.275 160.584,158.307 158.608 C 160.338 156.633,162.000 154.968,162.000 154.908 C 162.000 154.661,161.698 154.915,159.600 156.931 M244.200 161.200 C 245.059 162.080,245.837 162.800,245.928 162.800 C 246.265 162.800,243.386 159.666,243.019 159.634 C 242.809 159.615,243.341 160.320,244.200 161.200 M153.121 163.900 C 152.093 165.093,149.350 169.328,148.652 170.800 C 148.287 171.570,148.216 171.852,148.494 171.426 C 148.772 171.001,150.117 168.976,151.483 166.926 C 153.906 163.290,154.344 162.480,153.121 163.900 M246.975 164.532 C 247.591 165.339,248.176 166.000,248.275 166.000 C 248.553 166.000,246.821 163.660,246.309 163.344 C 246.059 163.189,246.359 163.724,246.975 164.532 M85.849 166.615 C 85.712 166.973,85.615 167.566,85.634 167.933 C 85.653 168.300,85.827 168.069,86.021 167.420 C 86.398 166.158,86.265 165.533,85.849 166.615 M250.392 169.500 C 250.844 170.433,251.772 170.693,252.197 170.005 C 252.339 169.775,252.173 169.712,251.802 169.855 C 251.423 170.000,250.915 169.794,250.559 169.350 C 249.991 168.644,249.981 168.653,250.392 169.500 M84.650 171.250 C 84.317 172.917,84.640 173.240,85.000 171.600 C 85.152 170.909,85.193 170.259,85.091 170.158 C 84.989 170.056,84.791 170.547,84.650 171.250 M146.786 174.298 C 146.268 175.344,145.779 176.335,145.698 176.500 C 145.618 176.665,145.637 176.800,145.741 176.800 C 145.992 176.800,148.028 172.695,147.860 172.527 C 147.788 172.454,147.304 173.251,146.786 174.298 M84.049 173.800 C 84.016 174.240,83.896 175.050,83.783 175.600 L 83.577 176.600 84.006 175.619 C 84.242 175.079,84.361 174.269,84.272 173.819 C 84.113 173.021,84.107 173.021,84.049 173.800 M83.055 178.655 C 82.913 179.686,82.874 180.608,82.969 180.702 C 83.063 180.796,83.265 180.039,83.418 179.018 C 83.571 177.998,83.610 177.076,83.504 176.971 C 83.398 176.865,83.196 177.623,83.055 178.655 M292.162 187.000 C 292.162 190.520,292.224 191.906,292.298 190.081 C 292.372 188.256,292.372 185.376,292.297 183.681 C 292.222 181.986,292.161 183.480,292.162 187.000 M354.561 186.800 C 354.561 190.210,354.622 191.605,354.697 189.900 C 354.772 188.195,354.772 185.405,354.697 183.700 C 354.622 181.995,354.561 183.390,354.561 186.800 M82.182 184.182 C 82.029 185.202,81.994 186.127,82.104 186.237 C 82.214 186.347,82.429 185.602,82.582 184.582 C 82.735 183.561,82.770 182.637,82.660 182.527 C 82.550 182.417,82.335 183.161,82.182 184.182 M142.846 184.667 C 142.821 184.924,142.684 185.464,142.541 185.867 C 142.340 186.436,142.394 186.497,142.779 186.142 C 143.052 185.891,143.189 185.351,143.084 184.942 C 142.979 184.534,142.872 184.410,142.846 184.667 M142.049 188.000 C 142.016 188.330,141.889 189.050,141.767 189.600 C 141.575 190.464,141.607 190.503,141.999 189.888 C 142.248 189.497,142.375 188.777,142.281 188.288 C 142.186 187.800,142.082 187.670,142.049 188.000 M81.467 191.160 C 81.320 192.567,81.226 194.996,81.257 196.559 C 81.303 198.801,81.387 198.345,81.655 194.400 C 82.020 189.012,81.903 186.987,81.467 191.160 M141.059 194.900 C 140.739 197.564,140.777 203.255,141.130 205.600 C 141.281 206.602,141.402 204.165,141.403 200.100 C 141.405 191.940,141.409 191.990,141.059 194.900 M367.761 200.000 C 367.761 203.410,367.822 204.805,367.897 203.100 C 367.972 201.395,367.972 198.605,367.897 196.900 C 367.822 195.195,367.761 196.590,367.761 200.000 M81.235 204.033 C 81.254 205.885,81.413 208.300,81.587 209.400 C 81.784 210.637,81.825 209.416,81.697 206.200 C 81.461 200.290,81.182 198.984,81.235 204.033 M292.162 213.000 C 292.162 216.520,292.224 217.906,292.298 216.081 C 292.372 214.256,292.372 211.376,292.297 209.681 C 292.222 207.986,292.161 209.480,292.162 213.000 M354.561 213.200 C 354.561 216.610,354.622 218.005,354.697 216.300 C 354.772 214.595,354.772 211.805,354.697 210.100 C 354.622 208.395,354.561 209.790,354.561 213.200 M141.646 210.000 C 141.665 210.330,141.824 211.050,142.000 211.600 L 142.320 212.600 142.354 211.600 C 142.373 211.050,142.213 210.330,142.000 210.000 C 141.655 209.467,141.616 209.467,141.646 210.000 M82.087 214.600 C 82.083 215.260,82.224 216.250,82.400 216.800 L 82.720 217.800 82.713 216.800 C 82.709 216.250,82.568 215.260,82.400 214.600 L 82.095 213.400 82.087 214.600 M83.072 221.000 C 83.199 222.100,83.369 223.075,83.451 223.167 C 83.732 223.482,83.520 220.999,83.180 220.000 C 82.951 219.326,82.916 219.651,83.072 221.000 M83.858 225.200 C 84.175 226.925,84.402 227.251,84.394 225.967 C 84.391 225.435,84.211 224.730,83.994 224.400 C 83.718 223.978,83.677 224.215,83.858 225.200 M146.800 225.650 C 146.800 225.998,148.037 228.400,148.217 228.400 C 148.304 228.400,148.261 228.085,148.121 227.700 C 147.833 226.906,146.800 225.303,146.800 225.650 M84.468 227.600 C 84.488 228.639,85.118 230.346,85.132 229.400 C 85.138 228.960,84.989 228.240,84.800 227.800 C 84.589 227.310,84.461 227.232,84.468 227.600 M85.606 232.233 C 85.609 232.655,85.795 233.270,86.018 233.600 C 86.315 234.038,86.352 233.876,86.156 233.000 C 85.827 231.529,85.598 231.210,85.606 232.233 M87.829 239.200 C 87.976 239.750,88.264 240.470,88.467 240.800 C 88.725 241.217,88.757 241.095,88.571 240.400 C 88.424 239.850,88.136 239.130,87.933 238.800 C 87.675 238.383,87.643 238.505,87.829 239.200 M241.781 242.100 L 240.200 243.800 241.900 242.219 C 242.835 241.349,243.600 240.584,243.600 240.519 C 243.600 240.216,243.252 240.519,241.781 242.100 M90.400 245.872 C 90.400 246.369,91.591 248.800,91.835 248.800 C 92.023 248.800,90.900 245.967,90.587 245.654 C 90.484 245.551,90.400 245.649,90.400 245.872 M197.900 259.495 C 199.055 259.576,200.945 259.576,202.100 259.495 C 203.255 259.414,202.310 259.348,200.000 259.348 C 197.690 259.348,196.745 259.414,197.900 259.495 M113.400 280.800 C 114.259 281.680,115.052 282.400,115.162 282.400 C 115.272 282.400,114.659 281.680,113.800 280.800 C 112.941 279.920,112.148 279.200,112.038 279.200 C 111.928 279.200,112.541 279.920,113.400 280.800 M119.000 286.400 C 120.083 287.500,121.060 288.400,121.170 288.400 C 121.280 288.400,120.483 287.500,119.400 286.400 C 118.317 285.300,117.340 284.400,117.230 284.400 C 117.120 284.400,117.917 285.300,119.000 286.400 M279.178 287.900 L 277.800 289.400 279.300 288.022 C 280.125 287.263,280.800 286.588,280.800 286.522 C 280.800 286.216,280.462 286.504,279.178 287.900 M193.907 318.290 C 194.626 318.379,195.706 318.377,196.307 318.286 C 196.908 318.195,196.320 318.122,195.000 318.124 C 193.680 318.126,193.188 318.201,193.907 318.290 M204.700 318.282 C 205.195 318.378,206.005 318.378,206.500 318.282 C 206.995 318.187,206.590 318.109,205.600 318.109 C 204.610 318.109,204.205 318.187,204.700 318.282 " stroke="none" fill="#9ebddb" fill-rule="evenodd"></path><path id="path4" d="M195.800 81.624 C 193.173 81.788,194.353 81.869,200.167 81.924 C 204.548 81.966,208.058 81.934,207.967 81.853 C 207.636 81.561,199.320 81.405,195.800 81.624 M185.400 82.409 C 184.710 82.590,185.644 82.631,187.600 82.506 C 189.470 82.387,191.075 82.225,191.167 82.145 C 191.481 81.871,186.600 82.095,185.400 82.409 M209.233 82.146 C 209.325 82.226,210.840 82.391,212.600 82.512 C 214.494 82.641,215.310 82.601,214.600 82.413 C 213.397 82.094,208.920 81.871,209.233 82.146 M180.000 83.213 C 179.354 83.429,179.780 83.466,181.200 83.319 C 182.410 83.194,183.475 83.026,183.567 82.946 C 183.887 82.665,180.991 82.883,180.000 83.213 M216.433 82.946 C 216.525 83.026,217.590 83.194,218.800 83.319 C 220.220 83.466,220.646 83.429,220.000 83.213 C 219.009 82.883,216.113 82.665,216.433 82.946 M175.800 84.000 C 174.781 84.438,175.832 84.438,177.200 84.000 C 178.004 83.743,178.043 83.677,177.400 83.668 C 176.960 83.662,176.240 83.811,175.800 84.000 M222.600 84.000 C 223.040 84.189,223.760 84.344,224.200 84.344 L 225.000 84.344 224.200 84.000 C 223.760 83.811,223.040 83.656,222.600 83.656 L 221.800 83.656 222.600 84.000 M172.200 84.800 L 171.400 85.144 172.200 85.144 C 172.640 85.144,173.360 84.989,173.800 84.800 L 174.600 84.456 173.800 84.456 C 173.360 84.456,172.640 84.611,172.200 84.800 M226.200 84.800 C 226.640 84.989,227.360 85.144,227.800 85.144 L 228.600 85.144 227.800 84.800 C 227.360 84.611,226.640 84.456,226.200 84.456 L 225.400 84.456 226.200 84.800 M169.000 85.600 C 168.496 85.817,168.422 85.944,168.800 85.944 C 169.130 85.944,169.760 85.789,170.200 85.600 C 170.704 85.383,170.778 85.256,170.400 85.256 C 170.070 85.256,169.440 85.411,169.000 85.600 M229.400 85.600 C 229.840 85.789,230.560 85.944,231.000 85.944 L 231.800 85.944 231.000 85.600 C 230.560 85.411,229.840 85.256,229.400 85.256 L 228.600 85.256 229.400 85.600 M166.200 86.400 L 165.400 86.744 166.200 86.766 C 166.640 86.778,167.270 86.613,167.600 86.400 C 168.395 85.886,167.396 85.886,166.200 86.400 M163.600 87.200 C 163.067 87.545,163.067 87.588,163.600 87.588 C 163.930 87.588,164.470 87.413,164.800 87.200 C 165.333 86.855,165.333 86.812,164.800 86.812 C 164.470 86.812,163.930 86.987,163.600 87.200 M237.600 88.000 C 237.930 88.213,238.470 88.388,238.800 88.388 C 239.333 88.388,239.333 88.345,238.800 88.000 C 238.470 87.787,237.930 87.612,237.600 87.612 C 237.067 87.612,237.067 87.655,237.600 88.000 M156.000 90.000 C 155.010 90.415,154.403 90.765,154.651 90.778 C 155.218 90.806,158.000 89.657,158.000 89.395 C 158.000 89.148,158.112 89.114,156.000 90.000 M150.400 92.400 C 149.630 92.822,149.113 93.174,149.251 93.183 C 149.665 93.211,152.400 92.005,152.400 91.795 C 152.400 91.446,151.825 91.620,150.400 92.400 M146.514 94.286 C 145.367 94.877,144.493 95.426,144.573 95.506 C 144.736 95.669,148.800 93.604,148.800 93.358 C 148.800 93.114,148.737 93.140,146.514 94.286 M251.200 93.363 C 251.200 93.438,252.505 94.173,254.100 94.994 C 255.695 95.816,257.810 96.930,258.800 97.469 C 259.790 98.009,260.166 98.124,259.637 97.725 C 257.986 96.483,251.200 92.974,251.200 93.363 M142.989 96.144 C 142.555 96.444,141.390 97.121,140.400 97.650 C 137.599 99.147,131.204 103.364,131.202 103.716 C 131.201 103.890,132.325 103.247,133.700 102.286 C 135.075 101.326,137.955 99.509,140.100 98.247 C 142.245 96.985,144.000 95.874,144.000 95.777 C 144.000 95.500,143.836 95.560,142.989 96.144 M261.000 98.681 C 261.791 99.432,271.287 105.665,271.047 105.276 C 270.764 104.818,263.094 99.567,261.600 98.809 C 261.050 98.530,260.780 98.473,261.000 98.681 M127.641 106.223 C 126.078 107.445,124.800 108.547,124.800 108.672 C 124.800 108.912,125.051 108.732,128.200 106.236 C 130.837 104.146,131.002 104.000,130.721 104.000 C 130.589 104.000,129.203 105.000,127.641 106.223 M271.600 105.859 C 271.600 106.055,272.029 106.481,272.554 106.807 C 275.374 108.558,286.269 118.884,289.612 122.974 C 290.595 124.177,291.557 125.170,291.749 125.181 C 292.218 125.207,287.285 119.667,283.802 116.256 C 278.592 111.154,271.600 105.196,271.600 105.859 M116.374 116.374 C 112.157 120.591,108.807 124.140,108.929 124.262 C 109.051 124.384,109.736 123.790,110.452 122.942 C 112.138 120.945,120.945 112.138,122.942 110.452 C 123.790 109.736,124.384 109.051,124.262 108.929 C 124.140 108.807,120.591 112.157,116.374 116.374 M106.501 127.300 C 105.419 128.675,104.387 130.070,104.208 130.400 C 103.761 131.225,104.317 130.621,106.236 128.200 C 108.721 125.065,108.912 124.800,108.683 124.800 C 108.565 124.800,107.584 125.925,106.501 127.300 M292.446 126.184 C 293.020 127.155,296.474 131.600,296.653 131.600 C 296.911 131.600,294.675 128.533,293.288 126.984 C 292.690 126.316,292.311 125.956,292.446 126.184 M100.890 135.063 C 99.509 137.180,98.441 138.974,98.516 139.049 C 98.591 139.124,99.847 137.389,101.307 135.193 C 102.767 132.997,103.835 131.203,103.681 131.206 C 103.526 131.210,102.270 132.945,100.890 135.063 M301.014 138.588 C 301.601 139.589,301.935 140.601,301.772 140.888 C 301.547 141.286,301.597 141.294,301.995 140.926 C 302.469 140.488,300.835 136.800,300.166 136.800 C 300.056 136.800,300.438 137.605,301.014 138.588 M97.867 139.900 C 96.862 141.571,95.701 144.022,96.209 143.400 C 96.977 142.460,98.499 139.600,98.232 139.600 C 98.130 139.600,97.966 139.735,97.867 139.900 M192.600 141.036 L 189.400 141.561 192.400 141.280 C 194.050 141.126,198.010 141.006,201.200 141.014 C 204.778 141.023,206.387 140.917,205.400 140.737 C 202.956 140.292,196.176 140.451,192.600 141.036 M207.900 141.482 C 208.395 141.578,209.205 141.578,209.700 141.482 C 210.195 141.387,209.790 141.309,208.800 141.309 C 207.810 141.309,207.405 141.387,207.900 141.482 M185.200 142.406 C 184.778 142.682,185.015 142.723,186.000 142.542 C 187.725 142.225,188.051 141.998,186.767 142.006 C 186.235 142.009,185.530 142.189,185.200 142.406 M212.433 142.143 C 212.525 142.221,213.230 142.401,214.000 142.542 C 214.985 142.723,215.222 142.682,214.800 142.406 C 214.258 142.050,212.037 141.803,212.433 142.143 M182.400 143.218 C 181.962 143.515,182.124 143.552,183.000 143.356 C 184.471 143.027,184.790 142.798,183.767 142.806 C 183.345 142.809,182.730 142.995,182.400 143.218 M215.633 142.944 C 215.725 143.023,216.340 143.208,217.000 143.356 C 217.876 143.552,218.038 143.515,217.600 143.218 C 217.060 142.853,215.232 142.598,215.633 142.944 M179.800 144.000 C 179.508 144.473,179.899 144.473,181.000 144.000 C 181.771 143.669,181.769 143.655,180.924 143.628 C 180.442 143.613,179.936 143.780,179.800 144.000 M93.986 147.101 C 93.145 148.787,93.140 148.800,93.347 148.800 C 93.605 148.800,94.842 146.308,94.669 146.136 C 94.595 146.062,94.288 146.496,93.986 147.101 M171.511 147.760 C 169.187 149.141,169.182 149.406,171.500 148.241 C 172.655 147.661,173.600 147.100,173.600 146.993 C 173.600 146.649,173.029 146.858,171.511 147.760 M226.620 147.135 C 227.219 147.663,231.600 150.028,231.600 149.823 C 231.600 149.602,226.870 146.800,226.499 146.800 C 226.356 146.800,226.411 146.951,226.620 147.135 M287.500 149.029 C 286.005 149.840,286.096 150.178,287.600 149.400 C 288.260 149.059,288.800 148.694,288.800 148.590 C 288.800 148.332,288.757 148.347,287.500 149.029 M163.932 152.700 C 159.237 156.449,152.960 162.923,151.874 165.136 C 151.666 165.560,151.777 165.516,152.181 165.014 C 155.935 160.353,161.201 155.102,165.014 152.219 C 165.446 151.893,165.690 151.620,165.555 151.613 C 165.420 151.606,164.690 152.095,163.932 152.700 M234.400 151.687 C 234.510 151.795,235.860 152.910,237.400 154.165 L 240.200 156.448 238.000 154.392 C 236.790 153.261,235.440 152.146,235.000 151.914 C 234.560 151.682,234.290 151.580,234.400 151.687 M240.400 156.479 C 240.400 156.817,243.276 159.658,243.446 159.487 C 243.523 159.411,242.869 158.648,241.993 157.793 C 241.117 156.937,240.400 156.346,240.400 156.479 M245.701 162.513 C 246.855 163.881,248.520 166.123,249.400 167.497 C 250.280 168.870,251.259 169.995,251.576 169.997 C 252.034 169.999,252.017 169.897,251.495 169.500 C 251.133 169.225,250.153 167.996,249.318 166.769 C 247.111 163.526,244.675 160.475,244.101 160.235 C 243.826 160.120,244.546 161.145,245.701 162.513 M87.000 164.000 C 86.850 164.473,86.817 164.950,86.927 165.060 C 87.037 165.170,87.250 164.873,87.400 164.400 C 87.550 163.927,87.583 163.450,87.473 163.340 C 87.363 163.230,87.150 163.527,87.000 164.000 M259.100 165.429 C 257.605 166.240,257.696 166.578,259.200 165.800 C 259.860 165.459,260.400 165.094,260.400 164.990 C 260.400 164.732,260.357 164.747,259.100 165.429 M86.229 166.629 C 86.081 167.215,86.038 167.772,86.132 167.866 C 86.227 167.960,86.424 167.558,86.571 166.971 C 86.719 166.385,86.762 165.828,86.668 165.734 C 86.573 165.640,86.376 166.042,86.229 166.629 M85.429 169.429 C 85.281 170.015,85.238 170.572,85.332 170.666 C 85.427 170.760,85.624 170.358,85.771 169.771 C 85.919 169.185,85.962 168.628,85.868 168.534 C 85.773 168.440,85.576 168.842,85.429 169.429 M147.828 171.461 C 147.256 172.484,146.869 173.402,146.967 173.501 C 147.066 173.599,147.611 172.762,148.180 171.640 C 149.473 169.088,149.225 168.962,147.828 171.461 M84.600 172.800 C 84.448 173.491,84.414 174.147,84.524 174.257 C 84.634 174.367,84.848 173.891,85.000 173.200 C 85.152 172.509,85.186 171.853,85.076 171.743 C 84.966 171.633,84.752 172.109,84.600 172.800 M83.800 176.400 C 83.648 177.091,83.607 177.741,83.709 177.842 C 83.811 177.944,84.009 177.453,84.150 176.750 C 84.483 175.083,84.160 174.760,83.800 176.400 M83.053 180.436 C 82.914 181.131,82.821 182.173,82.847 182.750 C 82.872 183.328,83.055 182.827,83.252 181.639 C 83.637 179.321,83.473 178.334,83.053 180.436 M143.867 179.867 C 143.720 180.013,143.611 180.508,143.625 180.967 C 143.649 181.733,143.682 181.723,144.034 180.842 C 144.426 179.863,144.344 179.389,143.867 179.867 M298.589 180.694 L 304.779 180.820 304.906 186.811 L 305.032 192.801 305.016 186.700 L 305.000 180.600 298.700 180.584 L 292.399 180.569 298.589 180.694 M345.119 180.698 C 346.944 180.772,349.824 180.772,351.519 180.697 C 353.214 180.622,351.720 180.561,348.200 180.562 C 344.680 180.562,343.294 180.624,345.119 180.698 M143.049 182.615 C 142.912 182.973,142.815 183.566,142.834 183.933 C 142.853 184.300,143.027 184.069,143.221 183.420 C 143.598 182.158,143.465 181.533,143.049 182.615 M82.272 185.804 C 82.127 186.682,82.030 188.210,82.056 189.200 C 82.093 190.603,82.180 190.339,82.451 188.000 C 82.828 184.753,82.701 183.205,82.272 185.804 M142.249 185.415 C 142.112 185.773,142.018 186.456,142.041 186.933 C 142.067 187.481,142.203 187.286,142.410 186.403 C 142.760 184.916,142.665 184.333,142.249 185.415 M140.896 193.400 C 140.154 199.293,140.715 210.848,141.795 211.928 C 142.036 212.169,141.978 211.598,141.206 206.123 C 140.680 202.395,140.689 197.466,141.229 193.987 C 141.465 192.466,141.600 190.811,141.529 190.310 C 141.458 189.810,141.173 191.200,140.896 193.400 M81.547 196.300 C 81.466 198.445,81.503 201.910,81.630 204.000 C 81.810 206.977,81.875 206.132,81.930 200.100 C 82.004 191.921,81.791 189.802,81.547 196.300 M354.502 193.200 C 354.639 193.701,355.744 193.803,361.233 193.816 L 367.800 193.832 361.417 193.706 C 356.967 193.617,354.929 193.431,354.687 193.089 C 354.436 192.736,354.385 192.767,354.502 193.200 M285.600 193.600 L 279.000 193.830 285.476 193.915 C 289.457 193.967,292.048 193.846,292.200 193.600 C 292.336 193.380,292.392 193.238,292.324 193.285 C 292.256 193.332,289.230 193.473,285.600 193.600 M305.461 193.700 C 305.563 193.865,308.427 194.000,311.824 194.000 L 318.000 194.000 318.000 200.000 L 318.000 206.000 311.824 206.000 C 308.427 206.000,305.563 206.135,305.461 206.300 C 305.358 206.465,308.183 206.510,311.737 206.400 L 318.200 206.200 318.200 200.000 L 318.200 193.800 311.737 193.600 C 308.183 193.490,305.358 193.535,305.461 193.700 M332.319 193.898 C 334.144 193.972,337.024 193.972,338.719 193.897 C 340.414 193.822,338.920 193.761,335.400 193.762 C 331.880 193.762,330.494 193.824,332.319 193.898 M328.584 200.100 L 328.600 206.200 334.900 206.216 L 341.201 206.231 335.011 206.106 L 328.821 205.980 328.694 199.989 L 328.568 193.999 328.584 200.100 M281.200 206.271 C 286.523 206.560,292.311 206.575,292.139 206.300 C 292.037 206.135,289.038 206.034,285.476 206.076 C 281.914 206.117,279.990 206.205,281.200 206.271 M354.667 206.267 C 354.520 206.413,354.403 206.728,354.406 206.967 C 354.410 207.231,354.533 207.210,354.723 206.911 C 354.942 206.567,356.935 206.385,361.417 206.300 L 367.800 206.178 361.367 206.089 C 357.828 206.040,354.813 206.120,354.667 206.267 M304.888 213.090 L 304.800 219.180 298.500 219.301 L 292.200 219.422 298.513 219.511 C 305.968 219.616,305.261 220.338,305.100 212.782 L 304.976 207.000 304.888 213.090 M82.047 211.233 C 82.073 212.425,82.238 213.940,82.413 214.600 C 82.601 215.310,82.641 214.494,82.512 212.600 C 82.257 208.892,81.978 208.070,82.047 211.233 M142.006 213.233 C 142.009 213.765,142.189 214.470,142.406 214.800 C 142.682 215.222,142.723 214.985,142.542 214.000 C 142.225 212.275,141.998 211.949,142.006 213.233 M142.806 216.233 C 142.809 216.655,142.995 217.270,143.218 217.600 C 143.515 218.038,143.552 217.876,143.356 217.000 C 143.027 215.529,142.798 215.210,142.806 216.233 M82.840 217.633 C 82.862 218.385,83.030 219.450,83.213 220.000 C 83.429 220.646,83.466 220.220,83.319 218.800 C 83.059 216.283,82.781 215.607,82.840 217.633 M143.628 219.076 C 143.613 219.558,143.780 220.064,144.000 220.200 C 144.473 220.492,144.473 220.101,144.000 219.000 C 143.669 218.229,143.655 218.231,143.628 219.076 M345.119 219.498 C 346.944 219.572,349.824 219.572,351.519 219.497 C 353.214 219.422,351.720 219.361,348.200 219.362 C 344.680 219.362,343.294 219.424,345.119 219.498 M83.646 222.800 C 83.627 223.350,83.787 224.070,84.000 224.400 C 84.494 225.164,84.494 224.342,84.000 222.800 L 83.680 221.800 83.646 222.800 M84.468 226.200 C 84.462 226.640,84.611 227.360,84.800 227.800 C 85.238 228.819,85.238 227.768,84.800 226.400 C 84.543 225.596,84.477 225.557,84.468 226.200 M85.256 229.600 C 85.256 229.930,85.411 230.560,85.600 231.000 C 85.817 231.504,85.944 231.578,85.944 231.200 C 85.944 230.870,85.789 230.240,85.600 229.800 C 85.383 229.296,85.256 229.222,85.256 229.600 M250.953 230.500 C 249.578 232.832,249.486 233.035,250.185 232.200 C 250.553 231.760,250.996 231.155,251.169 230.855 C 251.419 230.421,251.679 230.405,252.441 230.777 C 253.351 231.220,253.360 231.212,252.624 230.622 C 251.684 229.869,251.339 229.844,250.953 230.500 M86.056 232.400 C 86.056 232.730,86.211 233.360,86.400 233.800 C 86.617 234.304,86.744 234.378,86.744 234.000 C 86.744 233.670,86.589 233.040,86.400 232.600 C 86.183 232.096,86.056 232.022,86.056 232.400 M86.812 235.200 C 86.812 235.530,86.987 236.070,87.200 236.400 C 87.545 236.933,87.588 236.933,87.588 236.400 C 87.588 236.070,87.413 235.530,87.200 235.200 C 86.855 234.667,86.812 234.667,86.812 235.200 M155.625 239.831 C 156.381 240.728,157.081 241.397,157.180 241.317 C 157.279 241.238,156.660 240.504,155.805 239.687 L 154.250 238.200 155.625 239.831 M157.600 241.829 C 157.600 242.067,157.652 242.118,160.224 244.397 C 161.450 245.484,161.359 245.329,159.815 243.697 C 157.824 241.594,157.600 241.405,157.600 241.829 M280.800 247.164 C 281.350 247.614,281.980 247.983,282.200 247.985 C 282.628 247.988,281.905 247.434,280.600 246.760 C 280.069 246.485,280.136 246.621,280.800 247.164 M164.400 247.746 C 164.400 247.856,164.940 248.330,165.600 248.800 C 166.260 249.270,166.800 249.564,166.800 249.454 C 166.800 249.344,166.260 248.870,165.600 248.400 C 164.940 247.930,164.400 247.636,164.400 247.746 M234.200 248.635 L 233.000 249.666 234.400 248.763 C 236.196 247.604,236.201 247.600,235.767 247.602 C 235.565 247.603,234.860 248.068,234.200 248.635 M283.600 248.764 C 284.150 249.214,284.780 249.583,285.000 249.585 C 285.428 249.588,284.705 249.034,283.400 248.360 C 282.869 248.085,282.936 248.221,283.600 248.764 M92.500 249.900 C 94.627 254.225,95.348 255.586,95.456 255.477 C 95.622 255.311,92.786 249.600,92.537 249.600 C 92.436 249.600,92.419 249.735,92.500 249.900 M96.350 257.473 C 96.811 258.393,97.406 259.280,97.671 259.444 C 97.936 259.608,97.730 259.035,97.212 258.171 C 95.861 255.913,95.369 255.515,96.350 257.473 M192.821 259.221 C 193.355 259.560,196.342 259.781,195.967 259.455 C 195.875 259.375,194.999 259.208,194.021 259.082 C 192.870 258.935,192.446 258.984,192.821 259.221 M205.200 259.200 L 203.800 259.495 205.200 259.519 C 205.970 259.533,206.960 259.389,207.400 259.200 L 208.200 258.856 207.400 258.881 C 206.960 258.894,205.970 259.038,205.200 259.200 M100.209 263.426 C 100.581 264.101,101.241 265.091,101.676 265.626 L 102.467 266.600 101.791 265.374 C 101.419 264.699,100.759 263.709,100.324 263.174 L 99.533 262.200 100.209 263.426 M288.300 278.218 C 287.475 279.136,286.800 279.999,286.800 280.135 C 286.800 280.271,287.546 279.572,288.458 278.583 C 289.371 277.593,290.046 276.731,289.958 276.666 C 289.871 276.602,289.125 277.300,288.300 278.218 M113.000 280.000 C 114.083 281.100,115.060 282.000,115.170 282.000 C 115.280 282.000,114.483 281.100,113.400 280.000 C 112.317 278.900,111.340 278.000,111.230 278.000 C 111.120 278.000,111.917 278.900,113.000 280.000 M283.787 283.300 L 281.400 285.800 283.900 283.413 C 285.275 282.099,286.400 280.974,286.400 280.913 C 286.400 280.617,286.005 280.978,283.787 283.300 M120.086 286.998 C 121.343 288.298,122.429 289.281,122.500 289.181 C 122.571 289.082,121.543 288.017,120.215 286.817 L 117.800 284.633 120.086 286.998 M278.378 288.300 L 277.000 289.800 278.500 288.422 C 279.325 287.663,280.000 286.988,280.000 286.922 C 280.000 286.616,279.662 286.904,278.378 288.300 M124.144 290.709 C 124.460 291.221,126.800 292.953,126.800 292.675 C 126.800 292.576,126.139 291.991,125.332 291.375 C 124.524 290.759,123.989 290.459,124.144 290.709 M136.600 299.807 C 137.040 300.166,137.760 300.635,138.200 300.851 L 139.000 301.244 138.200 300.593 C 137.760 300.234,137.040 299.765,136.600 299.549 L 135.800 299.156 136.600 299.807 M261.500 300.629 C 260.005 301.440,260.096 301.778,261.600 301.000 C 262.260 300.659,262.800 300.294,262.800 300.190 C 262.800 299.932,262.757 299.947,261.500 300.629 M256.700 303.429 C 255.205 304.240,255.296 304.578,256.800 303.800 C 257.460 303.459,258.000 303.094,258.000 302.990 C 258.000 302.732,257.957 302.747,256.700 303.429 M225.600 315.200 C 224.776 315.464,224.741 315.526,225.400 315.554 C 225.840 315.573,226.470 315.413,226.800 315.200 C 227.501 314.747,227.014 314.747,225.600 315.200 M176.600 316.000 C 177.040 316.189,177.760 316.338,178.200 316.332 C 178.843 316.323,178.804 316.257,178.000 316.000 C 176.632 315.562,175.581 315.562,176.600 316.000 M222.000 316.000 C 221.176 316.264,221.141 316.326,221.800 316.354 C 222.240 316.373,222.870 316.213,223.200 316.000 C 223.901 315.547,223.414 315.547,222.000 316.000 M182.700 317.082 C 183.195 317.178,184.005 317.178,184.500 317.082 C 184.995 316.987,184.590 316.909,183.600 316.909 C 182.610 316.909,182.205 316.987,182.700 317.082 M215.700 317.076 C 216.085 317.176,216.715 317.176,217.100 317.076 C 217.485 316.975,217.170 316.893,216.400 316.893 C 215.630 316.893,215.315 316.975,215.700 317.076 M189.500 317.889 C 190.215 317.978,191.385 317.978,192.100 317.889 C 192.815 317.801,192.230 317.728,190.800 317.728 C 189.370 317.728,188.785 317.801,189.500 317.889 M207.491 317.889 C 208.201 317.977,209.461 317.979,210.291 317.892 C 211.121 317.805,210.540 317.733,209.000 317.731 C 207.460 317.729,206.781 317.800,207.491 317.889 M198.912 318.295 C 199.964 318.377,201.584 318.376,202.512 318.292 C 203.440 318.208,202.580 318.141,200.600 318.142 C 198.620 318.143,197.860 318.212,198.912 318.295 " stroke="none" fill="#b4cce7" fill-rule="evenodd"></path></g></svg>