<svg id="svg" version="1.1" xmlns="http://www.w3.org/2000/svg" xmlns:xlink="http://www.w3.org/1999/xlink" width="400" height="400" viewBox="0, 0, 400,400"><g id="svgg"><path id="path0" d="M127.000 148.979 C 122.207 149.519,119.043 150.049,116.400 150.756 C 111.441 152.083,109.941 152.521,107.800 153.272 C 102.924 154.980,97.359 157.675,91.800 161.020 C 90.260 161.947,88.501 162.704,87.890 162.703 C 87.280 162.701,86.470 163.039,86.090 163.453 C 85.711 163.867,84.921 164.451,84.337 164.751 C 83.364 165.249,82.764 165.728,79.531 168.585 C 78.943 169.104,78.568 169.635,78.698 169.765 C 78.827 169.894,78.678 170.005,78.367 170.012 C 78.055 170.019,77.350 170.572,76.800 171.243 C 76.250 171.913,74.675 173.614,73.300 175.023 C 71.925 176.432,70.800 177.678,70.800 177.792 C 70.800 177.906,70.080 178.741,69.200 179.648 C 68.320 180.555,67.600 181.545,67.600 181.848 C 67.600 182.152,67.459 182.400,67.286 182.400 C 67.114 182.400,66.657 182.933,66.272 183.585 C 65.887 184.237,65.342 185.002,65.061 185.285 C 64.781 185.568,64.125 186.655,63.605 187.700 C 63.084 188.745,62.510 189.600,62.329 189.600 C 62.148 189.600,62.000 189.960,62.000 190.400 C 62.000 190.840,61.820 191.200,61.600 191.200 C 61.380 191.200,61.200 191.538,61.200 191.951 C 61.200 192.364,60.939 192.918,60.620 193.183 C 60.302 193.448,59.830 194.325,59.572 195.132 C 59.314 195.939,58.945 196.771,58.752 196.980 C 58.558 197.189,58.396 197.639,58.391 197.980 C 58.386 198.321,58.030 199.050,57.600 199.600 C 57.170 200.150,56.814 200.994,56.809 201.476 C 56.804 201.958,56.620 202.464,56.400 202.600 C 56.180 202.736,56.000 203.557,56.000 204.424 C 56.000 205.291,55.820 206.000,55.600 206.000 C 55.380 206.000,55.200 206.360,55.200 206.800 C 55.200 207.240,55.020 207.600,54.800 207.600 C 54.580 207.600,54.400 208.320,54.400 209.200 C 54.400 210.080,54.220 210.800,54.000 210.800 C 53.780 210.800,53.600 211.214,53.600 211.720 C 53.600 212.226,53.423 212.817,53.207 213.033 C 52.990 213.250,52.787 214.636,52.755 216.113 C 52.723 217.591,52.540 218.800,52.348 218.800 C 52.157 218.800,52.000 220.859,52.000 223.376 C 52.000 225.996,51.829 228.058,51.600 228.200 C 51.078 228.523,51.078 235.877,51.600 236.200 C 51.823 236.338,52.000 238.182,52.000 240.357 C 52.000 242.507,52.126 244.393,52.281 244.548 C 52.435 244.702,52.625 246.037,52.703 247.514 C 52.781 248.991,53.014 250.371,53.222 250.580 C 53.430 250.789,53.600 251.453,53.600 252.056 C 53.600 252.659,53.780 253.264,54.000 253.400 C 54.220 253.536,54.400 254.177,54.400 254.824 C 54.400 255.471,54.580 256.000,54.800 256.000 C 55.020 256.000,55.200 256.450,55.200 257.000 C 55.200 257.550,55.380 258.000,55.600 258.000 C 55.820 258.000,56.003 258.495,56.006 259.100 C 56.012 260.235,56.842 262.975,57.326 263.459 C 57.477 263.610,57.600 264.063,57.600 264.467 C 57.600 264.870,57.780 265.200,58.000 265.200 C 58.220 265.200,58.400 265.538,58.400 265.951 C 58.400 266.364,58.670 266.926,59.000 267.200 C 59.330 267.474,59.600 268.070,59.600 268.525 C 59.600 269.244,62.537 274.650,63.226 275.200 C 63.364 275.310,63.593 275.850,63.734 276.400 C 63.876 276.950,64.533 278.009,65.196 278.754 C 65.858 279.499,66.400 280.236,66.400 280.392 C 66.400 280.548,66.850 281.199,67.400 281.838 C 67.949 282.477,68.399 283.149,68.400 283.331 C 68.400 283.514,69.075 284.324,69.900 285.131 C 70.725 285.939,71.655 287.095,71.967 287.699 C 72.279 288.304,72.612 288.721,72.706 288.627 C 72.930 288.403,76.800 292.396,76.800 292.851 C 76.800 293.043,76.978 293.200,77.195 293.200 C 77.804 293.200,79.200 294.515,79.200 295.089 C 79.200 295.370,79.427 295.600,79.704 295.600 C 79.981 295.600,80.432 295.960,80.707 296.400 C 80.982 296.840,81.431 297.200,81.705 297.200 C 81.979 297.200,82.686 297.712,83.277 298.338 L 84.351 299.476 103.576 280.225 C 114.149 269.636,122.798 260.709,122.796 260.386 C 122.794 260.064,121.984 259.445,120.996 259.010 C 120.008 258.576,119.200 258.081,119.200 257.910 C 119.200 257.740,118.930 257.600,118.600 257.600 C 118.270 257.600,118.000 257.420,118.000 257.200 C 118.000 256.980,117.795 256.800,117.545 256.800 C 117.003 256.800,111.200 251.036,111.200 250.498 C 111.200 250.292,110.840 249.798,110.400 249.400 C 109.960 249.002,109.600 248.449,109.600 248.171 C 109.600 247.894,109.462 247.607,109.294 247.533 C 108.797 247.317,106.306 241.609,105.842 239.626 C 104.575 234.205,105.526 223.136,107.570 219.514 C 108.247 218.316,108.800 216.988,108.800 216.563 C 108.800 216.139,109.340 215.345,110.000 214.800 C 110.660 214.255,111.200 213.672,111.200 213.504 C 111.200 213.011,116.525 207.561,117.400 207.158 C 118.592 206.610,120.855 205.215,121.946 204.357 C 122.475 203.941,123.246 203.600,123.659 203.600 C 124.073 203.600,124.768 203.420,125.205 203.200 C 125.642 202.980,126.358 202.620,126.795 202.400 C 127.232 202.180,128.132 202.000,128.795 202.000 C 129.458 202.000,130.000 201.820,130.000 201.600 C 130.000 201.380,130.992 201.200,132.205 201.200 C 133.418 201.200,134.792 200.975,135.258 200.700 C 135.935 200.300,136.141 200.300,136.286 200.700 C 136.402 201.022,137.299 201.200,138.810 201.200 C 140.098 201.200,141.264 201.380,141.400 201.600 C 141.536 201.820,142.267 202.000,143.024 202.000 C 143.781 202.000,144.400 202.141,144.400 202.313 C 144.400 202.485,145.255 202.860,146.300 203.146 C 148.213 203.671,150.030 204.412,150.400 204.819 C 150.895 205.362,153.200 206.828,153.200 206.599 C 153.200 206.458,153.448 206.581,153.751 206.871 C 154.054 207.162,154.710 207.670,155.209 208.000 C 156.747 209.017,160.710 213.200,160.136 213.200 C 159.994 213.200,160.277 213.546,160.765 213.970 C 161.253 214.393,161.643 214.888,161.631 215.070 C 161.591 215.690,162.053 216.800,162.352 216.800 C 162.516 216.800,162.898 217.430,163.200 218.200 C 163.502 218.970,163.851 219.614,163.975 219.631 C 164.099 219.647,164.514 219.721,164.898 219.795 C 165.353 219.882,166.952 218.534,169.498 215.916 C 171.644 213.710,174.538 210.801,175.929 209.452 C 177.320 208.103,181.413 204.030,185.024 200.400 C 188.635 196.770,192.087 193.301,192.695 192.691 C 193.303 192.081,196.005 189.426,198.700 186.792 C 201.395 184.158,203.600 181.906,203.600 181.787 C 203.600 181.297,202.160 179.314,200.924 178.101 C 200.196 177.386,199.600 176.639,199.600 176.441 C 199.600 175.862,196.774 173.200,196.160 173.200 C 195.852 173.200,195.600 172.924,195.600 172.587 C 195.600 171.805,193.016 169.200,192.240 169.200 C 191.918 169.200,191.540 168.840,191.400 168.400 C 191.260 167.960,190.980 167.600,190.777 167.600 C 190.573 167.600,189.891 167.060,189.260 166.400 C 188.629 165.740,187.909 165.200,187.660 165.200 C 187.411 165.200,186.982 164.840,186.707 164.400 C 186.432 163.960,186.082 163.600,185.929 163.600 C 185.776 163.600,184.504 162.835,183.102 161.900 C 178.694 158.959,178.849 159.047,176.100 157.932 C 175.385 157.642,174.800 157.269,174.800 157.102 C 174.800 156.936,174.522 156.800,174.183 156.800 C 173.844 156.800,173.180 156.440,172.708 156.000 C 172.236 155.560,171.512 155.200,171.101 155.200 C 170.689 155.200,170.464 155.020,170.600 154.800 C 170.744 154.567,170.345 154.400,169.647 154.400 C 168.987 154.400,168.336 154.220,168.200 154.000 C 168.064 153.780,167.513 153.600,166.976 153.600 C 166.439 153.600,166.000 153.420,166.000 153.200 C 166.000 152.980,165.640 152.800,165.200 152.800 C 164.760 152.800,164.400 152.620,164.400 152.400 C 164.400 152.180,163.860 152.000,163.200 152.000 C 162.540 152.000,162.000 151.864,162.000 151.697 C 162.000 151.219,158.973 150.400,157.206 150.400 C 156.323 150.400,155.600 150.246,155.600 150.058 C 155.600 149.871,154.385 149.735,152.900 149.756 C 151.415 149.778,148.670 149.567,146.800 149.287 C 141.599 148.509,132.444 148.367,127.000 148.979 " stroke="none" fill="#fbbb04" fill-rule="evenodd"></path><path id="path1" d="M122.800 260.353 C 122.800 261.024,117.767 266.303,103.815 280.266 L 84.831 299.267 85.797 300.233 C 86.329 300.765,87.002 301.200,87.294 301.200 C 87.585 301.200,88.083 301.560,88.400 302.000 C 88.717 302.440,89.188 302.800,89.446 302.800 C 89.704 302.800,90.493 303.340,91.200 304.000 C 91.907 304.660,92.815 305.200,93.219 305.200 C 93.622 305.200,94.058 305.370,94.187 305.579 C 94.648 306.325,99.796 308.800,100.887 308.800 C 101.499 308.800,102.000 308.980,102.000 309.200 C 102.000 309.420,102.360 309.600,102.800 309.600 C 103.240 309.600,103.600 309.780,103.600 310.000 C 103.600 310.220,103.960 310.400,104.400 310.400 C 104.840 310.400,105.200 310.580,105.200 310.800 C 105.200 311.020,105.560 311.200,106.000 311.200 C 106.440 311.200,106.800 311.380,106.800 311.600 C 106.800 311.820,107.340 312.000,108.000 312.000 C 108.660 312.000,109.200 312.180,109.200 312.400 C 109.200 312.620,110.010 312.800,111.000 312.800 C 111.990 312.800,112.800 312.980,112.800 313.200 C 112.800 313.420,113.520 313.600,114.400 313.600 C 115.280 313.600,116.000 313.780,116.000 314.000 C 116.000 314.220,116.529 314.400,117.176 314.400 C 117.823 314.400,118.464 314.580,118.600 314.800 C 118.736 315.020,119.647 315.200,120.624 315.200 C 121.601 315.200,122.400 315.380,122.400 315.600 C 122.400 315.830,123.640 316.000,125.320 316.000 C 126.926 316.000,128.421 316.181,128.642 316.402 C 128.907 316.667,141.105 316.770,164.422 316.702 L 199.800 316.600 199.903 289.700 L 200.006 262.800 165.003 262.800 C 141.934 262.800,130.000 262.664,130.000 262.400 C 130.000 262.180,129.471 262.000,128.824 262.000 C 128.177 262.000,127.536 261.820,127.400 261.600 C 127.264 261.380,126.713 261.200,126.176 261.200 C 125.639 261.200,125.200 261.020,125.200 260.800 C 125.200 260.580,124.876 260.400,124.480 260.400 C 124.084 260.400,123.544 260.184,123.280 259.920 C 122.907 259.547,122.800 259.643,122.800 260.353 " stroke="none" fill="#34ab54" fill-rule="evenodd"></path><path id="path2" d="M191.200 77.214 C 191.200 77.394,189.715 77.638,187.900 77.756 C 182.800 78.088,177.603 78.683,175.400 79.187 C 174.300 79.439,172.815 79.744,172.100 79.866 C 171.385 79.988,170.800 80.248,170.800 80.444 C 170.800 80.640,170.260 80.800,169.600 80.800 C 168.940 80.800,168.400 80.980,168.400 81.200 C 168.400 81.420,167.871 81.600,167.224 81.600 C 166.577 81.600,165.936 81.780,165.800 82.000 C 165.664 82.220,164.843 82.400,163.976 82.400 C 163.109 82.400,162.400 82.580,162.400 82.800 C 162.400 83.020,161.961 83.200,161.424 83.200 C 160.887 83.200,160.336 83.380,160.200 83.600 C 160.064 83.820,159.603 84.000,159.176 84.000 C 158.749 84.000,158.400 84.180,158.400 84.400 C 158.400 84.620,158.040 84.800,157.600 84.800 C 157.160 84.800,156.800 84.980,156.800 85.200 C 156.800 85.420,156.440 85.600,156.000 85.600 C 155.560 85.600,155.200 85.780,155.200 86.000 C 155.200 86.220,154.480 86.400,153.600 86.400 C 152.720 86.400,152.000 86.580,152.000 86.800 C 152.000 87.020,151.764 87.200,151.475 87.200 C 151.187 87.200,150.564 87.560,150.092 88.000 C 149.620 88.440,148.900 88.800,148.492 88.800 C 148.084 88.800,147.364 89.160,146.892 89.600 C 146.420 90.040,145.688 90.400,145.266 90.400 C 144.843 90.400,144.270 90.674,143.992 91.010 C 143.714 91.345,143.395 91.528,143.284 91.417 C 143.172 91.306,142.748 91.599,142.341 92.068 C 141.933 92.538,141.600 92.793,141.600 92.636 C 141.600 92.298,138.262 94.059,138.067 94.500 C 137.993 94.665,137.705 94.800,137.426 94.800 C 137.147 94.800,136.354 95.340,135.663 96.000 C 134.972 96.660,134.208 97.200,133.965 97.200 C 133.395 97.200,131.279 98.685,130.000 99.985 C 129.450 100.543,128.505 101.255,127.900 101.568 C 127.295 101.880,126.800 102.285,126.800 102.468 C 126.800 102.650,126.530 102.800,126.200 102.800 C 125.870 102.800,125.600 103.100,125.600 103.467 C 125.600 103.833,125.493 104.026,125.362 103.896 C 125.232 103.765,124.183 104.590,123.032 105.729 C 121.882 106.868,120.009 108.593,118.870 109.561 C 117.732 110.530,116.800 111.595,116.800 111.928 C 116.800 112.261,116.685 112.418,116.545 112.278 C 116.272 112.005,112.800 115.346,112.800 115.881 C 112.800 116.056,112.170 116.703,111.400 117.317 C 110.630 117.931,110.000 118.604,110.000 118.812 C 110.000 119.169,109.226 120.230,108.100 121.416 C 107.825 121.706,107.600 122.153,107.600 122.411 C 107.600 122.668,107.060 123.383,106.400 124.000 C 105.740 124.617,105.195 125.274,105.189 125.460 C 105.182 125.647,104.483 126.580,103.634 127.534 C 102.786 128.487,101.666 130.107,101.146 131.134 C 100.626 132.160,99.886 133.349,99.501 133.775 C 99.115 134.202,98.800 134.787,98.800 135.075 C 98.800 135.364,98.664 135.600,98.498 135.600 C 98.332 135.600,97.777 136.680,97.265 138.000 C 96.753 139.320,96.169 140.400,95.967 140.400 C 95.765 140.400,95.600 140.760,95.600 141.200 C 95.600 141.640,95.435 142.000,95.233 142.000 C 95.031 142.000,94.557 142.855,94.179 143.900 C 93.801 144.945,93.156 146.532,92.746 147.426 C 92.336 148.321,92.000 149.356,92.000 149.726 C 92.000 150.097,91.820 150.400,91.600 150.400 C 91.380 150.400,91.200 150.760,91.200 151.200 C 91.200 151.640,91.020 152.000,90.800 152.000 C 90.580 152.000,90.400 152.720,90.400 153.600 C 90.400 154.480,90.220 155.200,90.000 155.200 C 89.780 155.200,89.600 155.740,89.600 156.400 C 89.600 157.060,89.420 157.600,89.200 157.600 C 88.980 157.600,88.800 157.960,88.800 158.400 C 88.800 158.840,88.620 159.200,88.400 159.200 C 88.180 159.200,88.000 159.681,88.000 160.269 C 88.000 160.856,87.722 161.644,87.383 162.019 C 86.141 163.392,88.893 162.770,91.800 161.020 C 101.685 155.071,109.944 151.919,121.600 149.647 C 128.950 148.215,142.991 148.227,149.756 149.672 C 152.645 150.290,154.598 149.901,155.965 148.437 C 156.601 147.757,157.240 147.200,157.386 147.200 C 157.532 147.200,158.529 146.300,159.600 145.200 C 160.671 144.100,161.790 143.200,162.086 143.200 C 162.381 143.200,162.883 142.840,163.200 142.400 C 163.517 141.960,164.015 141.600,164.306 141.600 C 164.597 141.600,165.320 141.150,165.913 140.600 C 166.507 140.050,167.264 139.596,167.596 139.591 C 167.928 139.586,168.650 139.230,169.200 138.800 C 169.750 138.370,170.425 138.014,170.700 138.009 C 170.975 138.004,171.200 137.820,171.200 137.600 C 171.200 137.380,171.425 137.196,171.700 137.191 C 171.975 137.186,172.650 136.830,173.200 136.400 C 173.750 135.970,174.785 135.614,175.500 135.609 C 176.215 135.604,176.800 135.420,176.800 135.200 C 176.800 134.980,177.160 134.800,177.600 134.800 C 178.040 134.800,178.400 134.620,178.400 134.400 C 178.400 134.180,178.839 134.000,179.376 134.000 C 179.913 134.000,180.464 133.820,180.600 133.600 C 180.736 133.380,181.197 133.200,181.624 133.200 C 182.051 133.200,182.400 133.020,182.400 132.800 C 182.400 132.580,183.289 132.400,184.376 132.400 C 185.463 132.400,186.464 132.220,186.600 132.000 C 186.736 131.780,187.726 131.600,188.800 131.600 C 189.874 131.600,190.864 131.420,191.000 131.200 C 191.136 130.980,192.587 130.800,194.224 130.800 C 195.941 130.800,197.200 130.631,197.200 130.400 C 197.200 130.171,198.400 130.000,200.000 130.000 C 201.600 130.000,202.800 130.171,202.800 130.400 C 202.800 130.627,203.973 130.800,205.520 130.800 C 207.016 130.800,208.411 130.963,208.620 131.161 C 208.980 131.504,209.909 131.654,215.300 132.244 C 216.565 132.383,217.600 132.655,217.600 132.848 C 217.600 133.042,217.949 133.200,218.376 133.200 C 218.803 133.200,219.264 133.380,219.400 133.600 C 219.536 133.820,220.087 134.000,220.624 134.000 C 221.161 134.000,221.601 134.135,221.603 134.300 C 221.608 134.784,223.664 135.600,224.880 135.600 C 225.496 135.600,226.000 135.780,226.000 136.000 C 226.000 136.220,226.270 136.400,226.600 136.400 C 226.930 136.400,227.200 136.580,227.200 136.800 C 227.200 137.020,227.374 137.200,227.586 137.200 C 227.798 137.200,228.824 137.740,229.864 138.400 C 230.905 139.060,231.999 139.600,232.296 139.600 C 232.592 139.600,233.320 140.050,233.913 140.600 C 234.507 141.150,235.269 141.600,235.608 141.600 C 235.946 141.600,236.483 141.960,236.800 142.400 C 237.117 142.840,237.682 143.200,238.055 143.200 C 238.428 143.200,238.802 143.406,238.886 143.658 C 239.078 144.234,276.800 106.530,276.800 105.763 C 276.800 105.453,276.548 105.200,276.239 105.200 C 275.931 105.200,274.806 104.303,273.739 103.206 C 272.673 102.110,271.663 101.210,271.496 101.206 C 271.329 101.203,270.628 100.660,269.937 100.000 C 269.246 99.340,268.438 98.800,268.141 98.800 C 267.843 98.800,267.600 98.632,267.600 98.427 C 267.600 98.222,267.256 97.945,266.837 97.812 C 266.417 97.678,265.476 97.048,264.746 96.410 C 264.015 95.772,262.604 94.845,261.609 94.350 C 260.614 93.854,259.562 93.213,259.272 92.925 C 258.982 92.637,258.307 92.291,257.772 92.157 C 257.237 92.023,256.800 91.753,256.800 91.557 C 256.800 91.360,256.530 91.200,256.200 91.200 C 255.870 91.200,255.600 91.020,255.600 90.800 C 255.600 90.580,255.010 90.400,254.288 90.400 C 253.435 90.400,252.775 90.120,252.400 89.600 C 252.083 89.160,251.503 88.800,251.112 88.800 C 250.720 88.800,250.400 88.620,250.400 88.400 C 250.400 88.180,250.122 88.000,249.783 88.000 C 249.444 88.000,248.780 87.640,248.308 87.200 C 247.808 86.734,246.896 86.400,246.125 86.400 C 245.396 86.400,244.800 86.220,244.800 86.000 C 244.800 85.780,244.440 85.600,244.000 85.600 C 243.560 85.600,243.200 85.420,243.200 85.200 C 243.200 84.980,242.795 84.796,242.300 84.791 C 241.805 84.786,240.950 84.430,240.400 84.000 C 239.850 83.570,239.006 83.214,238.524 83.209 C 238.042 83.204,237.536 83.020,237.400 82.800 C 237.264 82.580,236.443 82.400,235.576 82.400 C 234.709 82.400,234.000 82.220,234.000 82.000 C 234.000 81.780,233.460 81.600,232.800 81.600 C 232.140 81.600,231.600 81.440,231.600 81.244 C 231.600 81.048,230.970 80.778,230.200 80.644 C 229.430 80.510,228.170 80.290,227.400 80.156 C 226.630 80.022,226.000 79.771,226.000 79.598 C 226.000 79.196,223.547 78.828,219.000 78.549 C 217.020 78.428,215.229 78.165,215.020 77.964 C 214.811 77.764,213.326 77.600,211.720 77.600 C 210.114 77.600,208.800 77.437,208.800 77.239 C 208.800 77.034,204.977 76.879,200.000 76.882 C 195.160 76.884,191.200 77.034,191.200 77.214 M175.660 209.442 C 175.362 209.778,175.199 210.132,175.295 210.229 C 175.392 210.326,175.798 210.044,176.198 209.602 C 176.597 209.161,176.761 208.807,176.562 208.815 C 176.363 208.824,175.957 209.105,175.660 209.442 " stroke="none" fill="#eb4434" fill-rule="evenodd"></path><path id="path3" d="M258.340 125.711 L 239.680 144.507 241.027 145.854 C 241.767 146.594,242.520 147.200,242.698 147.200 C 242.877 147.200,243.288 147.593,243.612 148.074 C 244.313 149.116,246.953 152.158,248.497 153.703 C 249.104 154.310,249.600 154.905,249.600 155.025 C 249.600 155.145,250.139 155.819,250.798 156.522 C 251.457 157.225,251.997 158.025,251.998 158.300 C 251.999 158.575,252.180 158.800,252.400 158.800 C 252.620 158.800,252.800 159.096,252.800 159.457 C 252.800 159.818,253.340 160.629,254.000 161.260 C 254.660 161.891,255.200 162.675,255.200 163.003 C 255.200 163.332,255.380 163.600,255.600 163.600 C 255.820 163.600,256.000 164.140,256.000 164.800 C 256.000 165.460,256.180 166.000,256.400 166.000 C 256.620 166.000,256.800 166.360,256.800 166.800 C 256.800 167.240,256.980 167.600,257.200 167.600 C 257.420 167.600,257.600 167.960,257.600 168.400 C 257.600 168.840,257.752 169.200,257.937 169.200 C 258.122 169.200,258.592 170.325,258.983 171.700 C 259.373 173.075,260.031 175.318,260.446 176.684 C 260.861 178.050,261.200 179.535,261.200 179.984 C 261.200 180.433,261.380 180.800,261.600 180.800 C 261.820 180.800,262.000 181.610,262.000 182.600 C 262.000 183.590,262.180 184.400,262.400 184.400 C 262.653 184.400,262.800 187.279,262.800 192.237 C 262.800 199.738,262.834 200.084,263.600 200.284 C 264.040 200.399,264.400 200.652,264.400 200.847 C 264.400 201.041,265.660 201.200,267.200 201.200 C 268.800 201.200,270.000 201.371,270.000 201.600 C 270.000 201.820,270.540 202.000,271.200 202.000 C 271.860 202.000,272.400 202.180,272.400 202.400 C 272.400 202.620,272.940 202.800,273.600 202.800 C 274.260 202.800,274.800 202.980,274.800 203.200 C 274.800 203.420,275.340 203.600,276.000 203.600 C 276.660 203.600,277.200 203.737,277.200 203.905 C 277.200 204.073,277.546 204.388,277.970 204.605 C 282.164 206.756,287.879 211.602,289.168 214.100 C 289.480 214.705,289.885 215.200,290.068 215.200 C 290.250 215.200,290.400 215.545,290.400 215.967 C 290.400 216.388,290.541 216.793,290.713 216.867 C 291.179 217.065,293.231 221.299,293.406 222.424 C 293.986 226.143,294.144 226.800,294.453 226.800 C 294.644 226.800,294.800 229.140,294.800 232.000 C 294.800 235.200,294.646 237.200,294.400 237.200 C 294.180 237.200,294.000 237.557,294.000 237.994 C 294.000 239.914,291.814 246.210,290.804 247.200 C 290.399 247.597,289.600 249.198,289.600 249.613 C 289.600 250.166,287.761 252.000,287.206 252.000 C 286.969 252.000,286.656 252.311,286.510 252.691 C 286.170 253.577,283.756 256.000,283.213 256.000 C 282.986 256.000,282.800 256.180,282.800 256.400 C 282.800 256.620,282.570 256.800,282.288 256.800 C 282.007 256.800,281.517 257.160,281.200 257.600 C 280.883 258.040,280.303 258.400,279.912 258.400 C 279.520 258.400,279.200 258.563,279.200 258.763 C 279.200 258.962,278.210 259.437,277.000 259.818 C 275.790 260.198,274.800 260.665,274.800 260.855 C 274.800 261.045,274.361 261.200,273.824 261.200 C 273.287 261.200,272.736 261.380,272.600 261.600 C 272.464 261.820,271.823 262.000,271.176 262.000 C 270.529 262.000,270.000 262.180,270.000 262.400 C 270.000 262.664,258.069 262.800,235.006 262.800 L 200.011 262.800 199.906 289.800 L 199.800 316.800 235.476 316.800 C 258.829 316.800,271.238 316.662,271.400 316.400 C 271.536 316.180,272.987 316.000,274.624 316.000 C 276.341 316.000,277.600 315.831,277.600 315.600 C 277.600 315.380,278.399 315.200,279.376 315.200 C 280.353 315.200,281.264 315.020,281.400 314.800 C 281.536 314.580,282.177 314.400,282.824 314.400 C 283.471 314.400,284.000 314.220,284.000 314.000 C 284.000 313.780,284.540 313.600,285.200 313.600 C 285.860 313.600,286.400 313.420,286.400 313.200 C 286.400 312.980,287.289 312.800,288.376 312.800 C 289.463 312.800,290.464 312.620,290.600 312.400 C 290.736 312.180,291.276 312.000,291.800 312.000 C 292.324 312.000,292.864 311.820,293.000 311.600 C 293.136 311.380,293.597 311.200,294.024 311.200 C 294.451 311.200,294.800 311.020,294.800 310.800 C 294.800 310.580,295.160 310.400,295.600 310.400 C 296.040 310.400,296.400 310.220,296.400 310.000 C 296.400 309.780,296.760 309.600,297.200 309.600 C 297.640 309.600,298.000 309.420,298.000 309.200 C 298.000 308.980,298.470 308.800,299.045 308.800 C 299.619 308.800,301.284 308.143,302.745 307.340 C 304.205 306.537,306.120 305.522,307.000 305.084 C 307.880 304.646,308.891 303.953,309.247 303.544 C 309.603 303.135,310.148 302.800,310.459 302.800 C 310.769 302.800,311.283 302.440,311.600 302.000 C 311.917 301.560,312.457 301.200,312.800 301.200 C 313.143 301.200,313.683 300.840,314.000 300.400 C 314.317 299.960,314.777 299.600,315.022 299.600 C 315.267 299.600,315.949 299.060,316.537 298.400 C 317.125 297.740,317.783 297.200,317.999 297.200 C 318.510 297.200,320.000 295.921,320.000 295.483 C 320.000 295.107,321.016 294.000,321.361 294.000 C 321.652 294.000,327.600 288.160,327.600 287.875 C 327.600 287.753,328.500 286.729,329.600 285.600 C 330.700 284.471,331.600 283.377,331.600 283.170 C 331.600 282.962,332.140 282.228,332.800 281.537 C 333.460 280.846,334.000 280.121,334.000 279.924 C 334.000 279.727,334.360 279.180,334.800 278.708 C 335.240 278.236,335.600 277.521,335.600 277.121 C 335.600 276.720,336.140 275.828,336.800 275.137 C 337.460 274.446,338.000 273.638,338.000 273.341 C 338.000 273.043,338.180 272.800,338.400 272.800 C 338.620 272.800,338.800 272.567,338.800 272.281 C 338.800 271.996,339.426 270.601,340.191 269.181 C 340.956 267.762,341.586 266.285,341.591 265.900 C 341.596 265.515,341.780 265.200,342.000 265.200 C 342.220 265.200,342.400 264.480,342.400 263.600 C 342.400 262.720,342.580 262.000,342.800 262.000 C 343.020 262.000,343.200 261.460,343.200 260.800 C 343.200 260.140,343.380 259.600,343.600 259.600 C 343.820 259.600,344.000 259.240,344.000 258.800 C 344.000 258.360,344.180 258.000,344.400 258.000 C 344.620 258.000,344.800 257.550,344.800 257.000 C 344.800 256.450,344.980 256.000,345.200 256.000 C 345.420 256.000,345.600 255.471,345.600 254.824 C 345.600 254.177,345.780 253.536,346.000 253.400 C 346.220 253.264,346.400 251.993,346.400 250.576 C 346.400 249.125,346.575 248.000,346.800 248.000 C 347.020 248.000,347.200 247.100,347.200 246.000 C 347.200 244.900,347.380 244.000,347.600 244.000 C 347.840 244.000,348.000 242.400,348.000 240.000 C 348.000 237.600,348.160 236.000,348.400 236.000 C 348.640 236.000,348.800 234.400,348.800 232.000 C 348.800 229.600,348.640 228.000,348.400 228.000 C 348.160 228.000,348.000 226.400,348.000 224.000 C 348.000 221.600,347.840 220.000,347.600 220.000 C 347.380 220.000,347.200 219.100,347.200 218.000 C 347.200 216.900,347.020 216.000,346.800 216.000 C 346.575 216.000,346.400 214.875,346.400 213.424 C 346.400 212.007,346.220 210.736,346.000 210.600 C 345.780 210.464,345.600 209.733,345.600 208.976 C 345.600 208.219,345.420 207.600,345.200 207.600 C 344.980 207.600,344.800 207.240,344.800 206.800 C 344.800 206.360,344.620 206.000,344.400 206.000 C 344.180 206.000,344.000 205.460,344.000 204.800 C 344.000 204.140,343.820 203.600,343.600 203.600 C 343.380 203.600,343.200 203.240,343.200 202.800 C 343.200 202.360,343.020 202.000,342.800 202.000 C 342.580 202.000,342.400 201.280,342.400 200.400 C 342.400 199.520,342.220 198.800,342.000 198.800 C 341.780 198.800,341.600 198.502,341.600 198.138 C 341.600 197.775,340.970 196.350,340.200 194.973 C 339.430 193.597,338.800 192.184,338.800 191.835 C 338.800 191.486,338.620 191.200,338.400 191.200 C 338.180 191.200,338.000 190.904,338.000 190.543 C 338.000 190.182,337.460 189.371,336.800 188.740 C 336.140 188.109,335.600 187.254,335.600 186.839 C 335.600 186.424,335.060 185.507,334.400 184.800 C 333.740 184.093,333.200 183.304,333.200 183.046 C 333.200 182.788,332.840 182.317,332.400 182.000 C 331.960 181.683,331.600 181.215,331.600 180.960 C 331.600 180.705,330.700 179.553,329.600 178.400 C 328.500 177.247,327.600 176.229,327.600 176.138 C 327.600 175.780,324.801 173.200,324.413 173.200 C 324.186 173.200,324.000 172.948,324.000 172.640 C 324.000 171.912,321.288 169.200,320.560 169.200 C 320.252 169.200,320.000 168.970,320.000 168.689 C 320.000 168.208,318.642 166.800,318.177 166.800 C 318.060 166.800,317.514 166.350,316.964 165.800 C 316.414 165.250,315.815 164.800,315.632 164.800 C 314.738 164.800,312.000 161.720,312.000 160.715 C 312.000 160.128,311.820 159.536,311.600 159.400 C 311.380 159.264,311.200 158.803,311.200 158.376 C 311.200 157.949,311.020 157.600,310.800 157.600 C 310.580 157.600,310.400 157.060,310.400 156.400 C 310.400 155.740,310.220 155.200,310.000 155.200 C 309.780 155.200,309.600 154.840,309.600 154.400 C 309.600 153.960,309.420 153.600,309.200 153.600 C 308.980 153.600,308.800 152.952,308.800 152.161 C 308.800 151.270,308.114 149.312,307.000 147.021 C 306.010 144.986,305.200 143.023,305.200 142.660 C 305.200 142.297,305.020 142.000,304.800 142.000 C 304.580 142.000,304.400 141.640,304.400 141.200 C 304.400 140.760,304.242 140.400,304.049 140.400 C 303.855 140.400,303.473 139.860,303.200 139.200 C 302.927 138.540,302.545 138.000,302.351 138.000 C 302.158 138.000,302.000 137.640,302.000 137.200 C 302.000 136.760,301.820 136.400,301.600 136.400 C 301.380 136.400,301.200 136.166,301.200 135.880 C 301.200 135.144,300.259 133.207,299.900 133.203 C 299.735 133.201,299.600 132.942,299.600 132.627 C 299.600 132.312,299.240 131.940,298.800 131.800 C 298.360 131.660,298.000 131.324,298.000 131.053 C 298.000 130.338,297.052 128.407,296.700 128.403 C 296.535 128.401,296.400 128.210,296.400 127.978 C 296.400 127.746,295.861 126.981,295.202 126.278 C 294.543 125.575,294.003 124.815,294.002 124.588 C 294.001 124.362,293.640 123.917,293.200 123.600 C 292.760 123.283,292.400 122.785,292.400 122.494 C 292.400 122.202,291.942 121.505,291.381 120.945 C 290.821 120.385,289.915 119.250,289.368 118.424 C 288.821 117.597,287.930 116.684,287.387 116.393 C 286.844 116.103,286.400 115.626,286.400 115.335 C 286.400 114.875,284.589 113.006,279.311 108.018 C 277.458 106.266,278.606 105.297,258.340 125.711 " stroke="none" fill="#4484f4" fill-rule="evenodd"></path><path id="path4" d="M258.254 124.868 C 247.943 135.193,239.626 143.760,239.771 143.905 C 239.917 144.050,248.500 135.689,258.845 125.325 C 269.190 114.960,277.507 106.394,277.327 106.288 C 277.147 106.182,268.564 114.543,258.254 124.868 " stroke="none" fill="#92649c" fill-rule="evenodd"></path></g></svg>