<?xml version="1.0" standalone="no"?>
<!DOCTYPE svg PUBLIC "-//W3C//DTD SVG 20010904//EN"
 "http://www.w3.org/TR/2001/REC-SVG-20010904/DTD/svg10.dtd">
<svg version="1.0" xmlns="http://www.w3.org/2000/svg"
 width="500.000000pt" height="500.000000pt" viewBox="0 0 500.000000 500.000000"
 preserveAspectRatio="xMidYMid meet">

<g transform="translate(0.000000,500.000000) scale(0.100000,-0.100000)"
fill="#000000" stroke="none">
<path d="M2810 4118 c-35 -46 -98 -123 -139 -173 -82 -98 -429 -455 -443 -455
-17 0 -6 21 45 85 72 90 193 294 256 434 29 62 50 115 48 117 -1 2 -75 -81
-164 -184 -225 -262 -342 -383 -538 -555 -240 -211 -288 -268 -424 -504 -22
-39 -63 -96 -91 -126 -27 -30 -50 -57 -50 -60 0 -3 14 -7 31 -9 50 -5 58 -29
29 -86 -35 -65 -182 -209 -265 -258 -70 -41 -70 -41 -69 -85 1 -100 101 -224
239 -295 89 -46 150 -68 164 -60 5 3 0 25 -12 49 -53 104 -12 230 121 369 56
58 119 108 246 192 225 149 261 179 331 272 114 153 263 290 395 366 87 49
232 109 313 128 62 15 118 20 228 20 170 0 261 -19 373 -78 175 -92 278 -275
264 -470 -21 -291 -379 -618 -933 -852 -276 -116 -461 -234 -628 -398 -137
-135 -239 -315 -257 -452 -10 -78 -3 -250 11 -250 4 0 10 24 14 53 11 76 51
191 93 266 46 83 176 219 281 295 146 105 343 207 631 326 200 82 276 117 427
195 171 89 221 120 338 214 l90 73 42 -48 c26 -30 46 -44 52 -39 4 6 28 81 51
168 24 86 47 157 52 157 5 0 40 -16 79 -36 39 -19 72 -34 74 -32 2 2 -14 77
-36 168 -21 91 -39 171 -39 178 0 9 25 12 90 12 50 0 90 3 90 8 0 4 -49 74
-110 157 -71 97 -105 152 -97 156 7 3 42 14 80 24 37 9 67 23 67 29 0 7 -25
28 -55 47 -31 18 -97 60 -147 93 l-92 58 29 27 c17 14 46 38 65 53 19 15 31
30 28 34 -4 3 -89 22 -189 40 -100 19 -184 36 -186 38 -2 2 22 36 53 75 31 40
55 74 53 75 -2 2 -88 -6 -191 -17 -103 -12 -190 -18 -194 -15 -4 4 5 39 20 78
14 39 26 75 26 80 0 5 -60 -16 -132 -46 -73 -31 -155 -64 -181 -75 l-49 -19 7
75 7 76 -53 -32 c-183 -108 -248 -141 -326 -169 -47 -17 -92 -29 -99 -28 -8 2
13 44 57 113 39 61 100 169 136 240 69 136 134 275 129 275 -1 0 -31 -37 -66
-82z m-1022 -1110 c4 -21 -63 -95 -128 -143 -60 -44 -83 -45 -44 -2 17 17 54
63 83 100 53 67 82 82 89 45z"/>
</g>
</svg>
