<svg id="svg" version="1.1" xmlns="http://www.w3.org/2000/svg" xmlns:xlink="http://www.w3.org/1999/xlink" width="400" height="400" viewBox="0, 0, 400,400"><g id="svgg"><path id="path0" d="M69.787 62.078 C 68.474 63.440,67.748 64.295,68.173 63.978 C 69.374 63.079,72.700 59.600,72.357 59.600 C 72.257 59.600,71.101 60.715,69.787 62.078 M62.200 69.600 C 61.117 70.700,60.403 71.582,60.615 71.559 C 60.991 71.520,64.680 67.600,64.341 67.600 C 64.247 67.600,63.283 68.500,62.200 69.600 M338.451 74.687 C 338.753 75.064,339.515 75.919,340.145 76.587 C 340.775 77.254,341.846 78.606,342.527 79.591 C 343.207 80.576,343.991 81.656,344.268 81.991 C 349.011 87.719,360.377 106.264,365.215 116.167 C 373.914 133.977,378.841 150.341,382.206 172.600 C 384.807 189.802,384.021 215.773,380.355 233.800 C 378.319 243.811,373.585 260.352,372.313 261.900 C 371.693 262.654,279.889 262.631,279.263 261.877 C 276.664 258.744,268.975 233.320,266.388 219.300 C 266.174 218.145,265.810 216.165,265.577 214.900 C 259.061 179.451,265.092 140.645,280.925 116.157 C 284.013 111.381,284.494 109.543,283.515 106.275 C 281.921 100.953,277.156 100.113,259.400 102.022 C 195.420 108.902,148.340 148.522,123.844 216.100 C 118.836 229.915,115.761 242.579,113.477 258.800 L 112.998 262.200 69.027 262.302 C 26.502 262.400,25.033 262.428,24.352 263.159 C 23.590 263.977,23.738 264.476,24.639 264.130 C 25.046 263.973,25.200 264.255,25.200 265.157 C 25.200 265.841,25.380 266.400,25.600 266.400 C 25.820 266.400,26.000 266.771,26.000 267.224 C 26.000 267.744,25.830 267.942,25.538 267.762 C 25.243 267.579,25.185 267.653,25.379 267.965 C 25.545 268.234,25.933 268.358,26.240 268.240 C 26.642 268.086,26.800 268.360,26.800 269.213 C 26.800 269.866,26.980 270.400,27.200 270.400 C 27.420 270.400,27.600 270.760,27.600 271.200 C 27.600 271.640,27.780 272.000,28.000 272.000 C 28.220 272.000,28.400 272.281,28.400 272.624 C 28.400 272.967,28.220 273.136,28.000 273.000 C 27.780 272.864,27.600 273.033,27.600 273.376 C 27.600 273.733,27.942 274.000,28.400 274.000 C 28.898 274.000,29.198 274.265,29.194 274.700 C 29.189 275.298,29.131 275.313,28.800 274.800 C 28.469 274.287,28.411 274.302,28.406 274.900 C 28.402 275.335,28.702 275.600,29.200 275.600 C 29.658 275.600,30.000 275.867,30.000 276.224 C 30.000 276.567,29.820 276.736,29.600 276.600 C 29.380 276.464,29.200 276.543,29.200 276.776 C 29.200 277.009,29.530 277.200,29.933 277.200 C 30.337 277.200,30.763 277.296,30.880 277.413 C 30.998 277.531,51.402 277.618,76.223 277.607 L 121.352 277.587 123.041 276.597 C 125.264 275.294,126.248 273.608,126.774 270.200 C 128.026 262.082,128.698 258.108,129.227 255.700 C 130.516 249.828,131.404 246.156,132.443 242.400 C 132.899 240.750,133.419 238.860,133.598 238.200 C 148.188 184.378,176.411 148.604,219.731 129.025 C 223.908 127.137,231.638 124.548,239.600 122.371 C 245.530 120.750,259.099 118.400,262.533 118.400 C 264.790 118.400,264.787 118.367,262.833 122.492 C 245.169 159.771,244.725 210.158,261.616 260.510 C 265.394 271.771,266.794 274.453,269.939 276.448 L 271.757 277.600 317.978 277.606 C 346.774 277.610,364.426 277.757,364.800 277.996 C 365.492 278.438,364.386 280.793,359.258 289.800 C 340.532 322.691,310.372 350.474,276.467 366.066 C 275.000 366.740,272.900 367.706,271.800 368.211 C 246.767 379.714,207.154 385.789,179.200 382.413 C 159.190 379.997,144.247 376.388,129.300 370.363 C 128.805 370.163,127.995 369.838,127.500 369.641 C 126.484 369.235,124.732 368.490,121.800 367.215 C 113.390 363.558,100.410 356.063,89.400 348.505 C 81.660 343.192,79.924 341.934,78.664 340.731 C 78.010 340.105,77.383 339.683,77.273 339.794 C 77.162 339.904,77.506 340.378,78.036 340.846 C 81.794 344.164,88.841 350.123,90.000 350.962 C 90.770 351.520,92.030 352.433,92.800 352.991 C 93.570 353.548,95.280 354.808,96.600 355.791 C 106.974 363.511,120.184 371.293,130.400 375.703 C 131.170 376.035,132.700 376.715,133.800 377.214 C 137.128 378.723,147.137 382.453,150.400 383.400 C 177.330 391.216,202.657 393.594,227.277 390.619 C 229.985 390.291,233.190 389.918,234.400 389.789 C 235.610 389.659,237.320 389.399,238.200 389.209 C 239.080 389.020,240.880 388.652,242.200 388.391 C 252.700 386.318,269.381 381.458,274.541 378.969 C 275.646 378.436,276.707 378.000,276.900 378.000 C 277.674 378.000,293.881 370.110,298.000 367.728 C 298.990 367.155,300.348 366.376,301.018 365.996 C 302.896 364.932,313.510 357.800,316.200 355.796 C 317.520 354.813,319.050 353.695,319.600 353.312 C 334.388 343.021,356.333 318.480,365.983 301.442 C 367.141 299.398,368.127 297.676,369.329 295.600 C 370.453 293.658,374.815 284.903,376.603 281.000 C 379.748 274.137,383.226 264.613,385.004 258.000 C 385.389 256.570,386.027 254.230,386.422 252.800 C 392.755 229.902,394.182 196.868,389.832 173.859 C 388.466 166.633,386.454 158.109,384.955 153.200 C 384.653 152.210,384.129 150.336,383.791 149.036 C 383.453 147.736,382.926 146.116,382.619 145.436 C 382.313 144.756,381.659 143.030,381.166 141.600 C 380.674 140.170,380.120 138.829,379.935 138.620 C 379.751 138.411,379.594 137.961,379.587 137.620 C 379.581 137.279,379.041 135.925,378.387 134.610 C 377.734 133.296,377.200 132.089,377.200 131.928 C 377.200 131.512,374.440 125.496,372.920 122.600 C 372.689 122.160,372.144 121.080,371.708 120.200 C 370.460 117.680,368.348 113.901,367.539 112.738 C 367.133 112.154,366.800 111.559,366.800 111.416 C 366.800 111.104,359.238 99.836,356.185 95.600 C 354.996 93.950,353.704 92.150,353.314 91.600 C 351.646 89.249,346.115 82.591,343.013 79.198 C 341.906 77.987,340.440 76.322,339.755 75.498 C 338.552 74.051,337.339 73.295,338.451 74.687 M55.605 318.182 C 57.246 320.131,57.630 320.504,57.812 320.322 C 57.907 320.226,57.226 319.440,56.298 318.574 C 55.187 317.537,54.950 317.403,55.605 318.182 M69.800 333.200 C 71.550 334.960,73.071 336.400,73.181 336.400 C 73.291 336.400,71.950 334.960,70.200 333.200 C 68.450 331.440,66.929 330.000,66.819 330.000 C 66.709 330.000,68.050 331.440,69.800 333.200 " stroke="none" fill="#1d556e" fill-rule="evenodd"></path><path id="path1" d="M195.793 11.140 C 195.716 11.218,192.266 11.446,188.126 11.647 C 179.917 12.046,174.738 12.521,173.237 13.011 C 172.472 13.262,172.341 13.211,172.596 12.763 C 172.856 12.307,172.815 12.295,172.379 12.700 C 172.082 12.975,171.167 13.200,170.344 13.200 C 169.521 13.200,168.754 13.351,168.640 13.536 C 168.525 13.721,167.484 13.906,166.325 13.947 C 165.167 13.988,164.044 14.196,163.829 14.411 C 163.615 14.625,162.591 14.800,161.553 14.800 C 160.516 14.800,159.607 14.972,159.533 15.182 C 159.460 15.393,158.712 15.611,157.872 15.666 C 157.031 15.722,156.256 15.910,156.148 16.084 C 156.041 16.258,155.254 16.400,154.400 16.400 C 153.546 16.400,152.736 16.580,152.600 16.800 C 152.464 17.020,151.769 17.200,151.056 17.200 C 150.343 17.200,149.581 17.379,149.362 17.598 C 149.144 17.816,148.433 18.029,147.782 18.070 C 147.132 18.111,146.402 18.292,146.160 18.472 C 145.917 18.652,145.255 18.837,144.688 18.884 C 144.121 18.931,143.745 19.112,143.852 19.285 C 143.960 19.458,143.585 19.600,143.019 19.600 C 142.116 19.600,139.585 20.533,137.505 21.633 C 137.123 21.835,136.536 22.000,136.200 22.000 C 135.864 22.000,135.232 22.180,134.795 22.400 C 134.358 22.620,133.642 22.980,133.205 23.200 C 132.768 23.420,132.091 23.600,131.699 23.600 C 131.049 23.600,128.189 24.839,124.262 26.823 C 123.416 27.250,122.381 27.600,121.962 27.600 C 121.543 27.600,121.199 27.735,121.197 27.900 C 121.193 28.259,119.256 29.200,118.520 29.200 C 118.234 29.200,118.000 29.380,118.000 29.600 C 118.000 29.820,117.584 30.000,117.075 30.000 C 116.567 30.000,115.764 30.360,115.292 30.800 C 114.820 31.240,114.243 31.600,114.011 31.600 C 113.505 31.600,112.043 32.405,111.287 33.100 C 110.988 33.375,110.520 33.600,110.248 33.600 C 109.976 33.600,108.684 34.246,107.376 35.035 C 106.069 35.824,104.623 36.512,104.161 36.562 C 103.700 36.613,102.890 37.062,102.361 37.561 C 101.833 38.059,100.197 39.173,98.726 40.036 C 97.256 40.899,95.816 41.829,95.526 42.102 C 95.237 42.376,94.508 42.854,93.907 43.164 C 93.305 43.474,92.495 44.024,92.107 44.385 C 91.718 44.747,90.050 45.970,88.400 47.104 C 86.750 48.237,84.950 49.529,84.400 49.973 C 83.850 50.418,83.186 50.786,82.924 50.791 C 82.662 50.796,82.319 51.008,82.162 51.262 C 81.974 51.565,82.069 51.624,82.438 51.433 C 82.747 51.273,82.460 51.604,81.800 52.169 C 81.140 52.734,80.451 53.197,80.269 53.198 C 80.087 53.199,79.277 53.893,78.469 54.739 C 77.661 55.585,76.100 56.982,75.000 57.843 C 73.900 58.704,72.280 60.182,71.400 61.127 C 69.234 63.453,60.729 71.949,60.427 72.088 C 60.294 72.150,59.768 72.740,59.257 73.400 C 58.746 74.060,57.355 75.638,56.164 76.906 C 54.974 78.174,53.998 79.344,53.995 79.506 C 53.992 79.668,53.272 80.573,52.395 81.517 C 51.518 82.462,50.799 83.362,50.798 83.517 C 50.797 83.673,50.257 84.375,49.598 85.078 C 48.939 85.781,48.400 86.515,48.400 86.709 C 48.400 86.902,47.950 87.483,47.400 88.000 C 46.850 88.517,46.400 89.074,46.400 89.238 C 46.400 89.646,41.912 96.167,41.517 96.333 C 41.343 96.407,41.200 96.694,41.200 96.972 C 41.200 97.250,40.840 97.893,40.400 98.400 C 39.960 98.907,39.600 99.565,39.600 99.861 C 39.600 100.158,39.449 100.400,39.264 100.400 C 39.080 100.400,38.586 101.104,38.168 101.964 C 37.750 102.824,37.266 103.441,37.094 103.334 C 36.921 103.228,36.827 103.289,36.885 103.470 C 37.064 104.031,35.926 106.402,35.581 106.188 C 35.402 106.078,35.125 106.198,34.966 106.455 C 34.785 106.748,34.850 106.816,35.138 106.638 C 35.991 106.111,35.610 107.095,34.700 107.770 C 34.205 108.137,34.070 108.312,34.400 108.160 C 34.887 107.935,34.906 107.984,34.500 108.421 C 34.225 108.718,34.000 109.284,34.000 109.680 C 34.000 110.076,33.826 110.400,33.613 110.400 C 33.399 110.400,33.319 110.645,33.434 110.944 C 33.549 111.243,33.183 112.034,32.621 112.702 C 32.060 113.369,31.600 114.089,31.600 114.302 C 31.600 114.514,31.082 115.748,30.450 117.044 C 29.817 118.340,28.935 120.210,28.490 121.200 C 28.044 122.190,27.115 124.260,26.424 125.800 C 25.733 127.340,24.995 128.913,24.784 129.295 C 24.573 129.677,24.400 130.341,24.400 130.771 C 24.400 131.201,24.220 131.664,24.000 131.800 C 23.780 131.936,23.600 132.301,23.600 132.612 C 23.600 132.922,23.112 134.217,22.515 135.488 C 21.919 136.760,21.373 138.427,21.301 139.194 C 21.230 139.961,20.998 140.762,20.786 140.974 C 20.574 141.186,20.400 141.774,20.400 142.280 C 20.400 142.786,20.240 143.200,20.044 143.200 C 19.848 143.200,19.595 143.785,19.481 144.500 C 19.287 145.718,18.947 147.017,17.937 150.400 C 17.706 151.170,17.428 152.476,17.317 153.303 C 17.206 154.129,16.955 154.905,16.758 155.026 C 16.561 155.148,16.400 155.957,16.400 156.824 C 16.400 157.691,16.220 158.400,16.000 158.400 C 15.780 158.400,15.600 159.285,15.600 160.367 C 15.600 161.448,15.436 162.393,15.236 162.467 C 15.037 162.540,14.772 163.590,14.649 164.800 C 14.526 166.010,14.232 167.990,13.995 169.200 C 13.759 170.410,13.463 172.660,13.338 174.200 C 13.213 175.740,12.976 177.180,12.812 177.400 C 12.648 177.620,12.475 179.867,12.429 182.393 C 12.382 184.919,12.198 187.169,12.019 187.393 C 11.654 187.851,11.723 205.539,12.097 207.400 C 12.230 208.060,12.373 210.537,12.416 212.905 C 12.458 215.273,12.652 217.309,12.846 217.429 C 13.041 217.549,13.200 218.861,13.200 220.344 C 13.200 221.827,13.364 223.211,13.565 223.420 C 13.765 223.629,14.025 224.790,14.141 226.000 C 14.257 227.210,14.550 229.280,14.792 230.600 C 15.033 231.920,15.333 233.720,15.457 234.600 C 15.581 235.480,15.844 236.371,16.041 236.580 C 16.238 236.789,16.400 237.608,16.400 238.400 C 16.400 239.192,16.575 240.015,16.790 240.230 C 17.004 240.444,17.229 241.452,17.290 242.469 C 17.350 243.486,17.535 244.236,17.700 244.136 C 17.865 244.035,18.027 244.458,18.061 245.076 C 18.155 246.807,18.181 246.909,18.914 248.361 C 19.291 249.110,19.600 250.205,19.600 250.795 C 19.600 251.384,19.731 251.998,19.892 252.158 C 20.052 252.319,20.831 254.464,21.623 256.925 L 23.063 261.400 67.188 261.502 C 115.088 261.612,112.398 261.746,112.402 259.251 C 112.404 257.891,113.469 250.948,114.434 246.000 C 115.124 242.466,117.170 234.145,118.468 229.600 C 120.619 222.067,124.175 211.923,126.391 206.999 C 126.836 206.009,127.577 204.345,128.038 203.300 C 139.617 177.040,150.291 160.863,167.180 143.984 C 195.058 116.119,229.151 101.780,270.430 100.556 C 280.571 100.255,283.675 101.484,284.614 106.172 C 285.077 108.486,285.218 108.679,286.790 109.150 C 292.732 110.930,293.971 117.434,289.553 123.662 C 289.139 124.246,288.800 124.812,288.800 124.921 C 288.800 125.029,288.107 126.262,287.260 127.659 C 271.640 153.430,267.146 191.172,275.026 230.400 C 277.489 242.663,283.114 260.976,284.533 261.357 C 285.829 261.704,370.924 261.636,371.473 261.287 C 372.858 260.406,378.824 238.545,380.393 228.600 C 380.636 227.060,380.925 225.260,381.037 224.600 C 381.934 219.281,383.178 203.586,383.191 197.413 C 383.216 186.333,381.447 170.769,378.734 158.200 C 373.954 136.048,366.098 116.804,354.567 99.000 C 353.712 97.680,352.774 96.153,352.482 95.608 C 352.190 95.062,351.410 93.892,350.748 93.008 C 350.086 92.123,348.342 89.713,346.872 87.651 C 342.103 80.960,337.793 75.305,335.430 72.638 C 334.863 71.999,334.400 71.298,334.400 71.081 C 334.400 70.864,333.860 70.171,333.200 69.540 C 332.540 68.909,332.000 68.527,332.000 68.691 C 332.000 68.855,331.358 68.037,330.574 66.872 C 329.790 65.708,328.873 64.650,328.537 64.521 C 327.897 64.275,322.902 59.333,321.801 57.855 C 321.450 57.385,321.292 57.270,321.450 57.600 C 321.769 58.266,320.503 57.317,318.792 55.607 C 318.237 55.053,317.272 54.240,316.646 53.800 C 314.680 52.416,310.800 49.087,310.800 48.783 C 310.800 48.622,310.215 48.211,309.500 47.869 C 308.785 47.526,307.840 46.966,307.400 46.623 C 304.997 44.752,301.128 42.000,300.901 42.000 C 300.756 42.000,300.017 41.415,299.259 40.700 C 298.500 39.985,298.006 39.622,298.160 39.894 C 298.314 40.166,297.005 39.508,295.250 38.431 C 293.496 37.354,291.982 36.551,291.887 36.646 C 291.792 36.741,291.486 36.545,291.208 36.210 C 290.930 35.874,290.476 35.600,290.200 35.600 C 289.924 35.600,289.397 35.195,289.030 34.700 C 288.663 34.205,288.472 34.025,288.605 34.300 C 288.738 34.575,288.771 34.800,288.679 34.800 C 288.532 34.800,284.096 32.553,281.800 31.315 C 281.360 31.078,279.740 30.289,278.200 29.562 C 276.660 28.834,274.922 27.916,274.338 27.520 C 273.754 27.124,273.029 26.800,272.727 26.800 C 272.425 26.800,271.137 26.260,269.865 25.600 C 268.593 24.940,267.203 24.400,266.776 24.400 C 266.349 24.400,266.000 24.220,266.000 24.000 C 266.000 23.780,265.548 23.600,264.995 23.600 C 264.442 23.600,263.677 23.441,263.295 23.247 C 262.913 23.052,262.150 22.718,261.600 22.503 C 261.050 22.289,259.818 21.728,258.862 21.257 C 257.906 20.786,256.817 20.400,256.442 20.400 C 256.067 20.400,255.518 20.175,255.221 19.900 C 254.784 19.494,254.742 19.512,255.000 20.000 C 255.258 20.488,255.216 20.506,254.779 20.100 C 254.482 19.825,253.854 19.600,253.381 19.600 C 252.909 19.600,251.920 19.299,251.184 18.932 C 249.802 18.243,247.708 17.690,245.100 17.325 C 244.275 17.210,243.600 16.974,243.600 16.800 C 243.600 16.626,242.835 16.371,241.900 16.232 C 237.742 15.617,237.182 15.495,236.974 15.158 C 236.852 14.961,236.144 14.800,235.400 14.800 C 234.656 14.800,233.963 14.663,233.859 14.496 C 233.756 14.329,232.533 14.135,231.141 14.067 C 229.750 13.998,228.429 13.805,228.206 13.638 C 227.982 13.471,226.900 13.288,225.800 13.232 C 224.700 13.175,223.620 12.990,223.400 12.821 C 223.180 12.651,221.835 12.476,220.412 12.432 C 218.988 12.388,217.638 12.216,217.412 12.049 C 217.185 11.883,214.930 11.699,212.400 11.640 C 209.870 11.581,205.130 11.413,201.866 11.266 C 198.603 11.120,195.870 11.063,195.793 11.140 M257.000 128.651 C 252.999 129.443,247.981 130.641,243.000 131.993 C 238.029 133.342,226.499 137.732,220.890 140.410 C 186.614 156.777,160.112 189.954,145.010 235.400 C 140.208 249.849,136.553 265.683,135.235 277.742 C 134.843 281.330,133.591 283.573,131.194 284.981 C 129.816 285.791,129.261 285.802,82.400 286.006 C 56.330 286.120,34.955 286.255,34.900 286.306 C 34.608 286.579,34.894 287.360,35.672 288.411 C 36.151 289.060,36.424 289.710,36.278 289.856 C 36.132 290.001,36.270 290.319,36.584 290.560 C 36.899 290.802,37.211 291.263,37.278 291.585 C 37.345 291.907,38.615 294.012,40.100 296.262 C 41.585 298.512,42.800 300.543,42.800 300.776 C 42.800 301.009,42.950 301.200,43.132 301.200 C 43.315 301.200,43.720 301.695,44.032 302.300 C 44.344 302.905,44.703 303.490,44.830 303.600 C 45.588 304.257,47.125 306.998,46.921 307.329 C 46.786 307.546,46.864 307.607,47.094 307.465 C 47.324 307.323,47.810 307.835,48.175 308.604 C 48.539 309.372,48.930 310.000,49.042 310.000 C 49.155 310.000,49.134 309.775,48.995 309.500 C 48.856 309.225,49.204 309.540,49.769 310.200 C 50.334 310.860,50.797 311.605,50.798 311.855 C 50.799 312.105,51.338 312.735,51.996 313.255 C 52.654 313.775,53.198 314.380,53.205 314.600 C 53.212 314.820,54.744 316.606,56.609 318.569 C 58.474 320.532,60.000 322.268,60.000 322.428 C 60.000 322.700,69.746 332.507,72.389 334.894 C 73.055 335.495,73.600 336.164,73.600 336.381 C 73.600 336.598,73.859 336.675,74.176 336.554 C 74.502 336.429,74.977 336.694,75.272 337.167 C 75.558 337.625,75.928 338.000,76.093 338.000 C 76.258 338.000,79.140 340.007,82.497 342.461 C 91.059 348.720,99.960 354.699,104.200 357.042 C 104.640 357.285,106.530 358.371,108.400 359.455 C 111.766 361.405,119.137 365.119,123.000 366.809 C 127.002 368.561,127.433 368.736,129.400 369.411 C 130.500 369.789,131.940 370.331,132.600 370.617 C 134.149 371.287,141.933 373.798,145.685 374.838 C 147.288 375.282,149.230 375.828,150.000 376.050 C 151.608 376.513,153.283 376.919,156.400 377.600 C 157.610 377.864,159.320 378.243,160.200 378.441 C 179.773 382.854,204.697 383.585,225.600 380.360 C 231.959 379.379,233.871 378.993,241.600 377.126 C 256.989 373.409,268.520 369.321,279.818 363.578 C 306.415 350.058,326.399 333.697,344.038 311.000 C 351.728 301.105,360.742 287.277,360.139 286.301 C 360.036 286.135,342.188 285.999,320.476 285.998 C 274.624 285.995,276.775 286.239,273.957 280.716 C 273.359 279.544,272.674 278.957,271.081 278.253 C 266.512 276.232,261.988 267.202,257.929 252.000 C 257.723 251.230,257.395 250.060,257.200 249.400 C 253.830 238.005,251.630 227.626,249.994 215.400 C 248.802 206.490,248.363 199.418,248.345 188.800 C 248.321 174.617,248.945 167.908,251.617 153.600 C 252.562 148.541,255.160 139.723,257.971 132.038 C 258.647 130.190,259.200 128.615,259.200 128.538 C 259.200 128.374,258.120 128.430,257.000 128.651 " stroke="none" fill="#6393eb" fill-rule="evenodd"></path><path id="path2" d="M197.500 11.089 C 198.215 11.178,199.385 11.178,200.100 11.089 C 200.815 11.001,200.230 10.928,198.800 10.928 C 197.370 10.928,196.785 11.001,197.500 11.089 M313.798 51.537 C 314.234 52.052,314.953 52.659,315.396 52.886 C 316.245 53.321,316.121 53.187,314.203 51.594 C 313.048 50.635,313.034 50.633,313.798 51.537 M332.418 68.605 C 332.408 68.828,332.850 69.348,333.400 69.761 C 333.950 70.174,334.400 70.729,334.400 70.994 C 334.400 71.259,334.863 71.999,335.430 72.638 C 337.757 75.264,341.965 80.780,346.884 87.651 C 348.360 89.713,350.245 92.345,351.072 93.500 C 352.733 95.819,353.145 96.182,352.207 94.500 C 348.963 88.679,332.484 67.115,332.418 68.605 M352.867 96.300 C 353.327 97.336,356.528 102.005,356.676 101.857 C 356.864 101.669,353.216 96.000,352.908 96.000 C 352.812 96.000,352.793 96.135,352.867 96.300 M266.882 100.696 C 268.358 100.773,270.878 100.773,272.482 100.697 C 274.087 100.621,272.880 100.558,269.800 100.558 C 266.720 100.557,265.407 100.619,266.882 100.696 M278.000 100.774 C 285.165 102.220,286.610 108.467,281.682 116.686 C 259.932 152.965,257.764 199.700,275.498 250.000 C 279.592 261.612,279.588 261.606,282.800 261.547 C 284.010 261.525,284.702 261.428,284.339 261.332 C 283.127 261.010,277.261 241.524,275.026 230.400 C 267.146 191.172,271.640 153.430,287.260 127.659 C 288.107 126.262,288.800 125.029,288.800 124.921 C 288.800 124.812,289.139 124.246,289.553 123.662 C 293.971 117.434,292.732 110.930,286.790 109.150 C 285.218 108.679,285.077 108.486,284.614 106.172 C 284.084 103.527,280.247 100.342,277.716 100.446 C 276.708 100.488,276.736 100.519,278.000 100.774 M262.100 101.076 C 262.485 101.176,263.115 101.176,263.500 101.076 C 263.885 100.975,263.570 100.893,262.800 100.893 C 262.030 100.893,261.715 100.975,262.100 101.076 M254.800 101.588 C 254.250 101.757,255.240 101.805,257.000 101.693 C 258.760 101.582,260.275 101.425,260.367 101.345 C 260.684 101.068,255.795 101.281,254.800 101.588 M249.200 102.407 C 248.579 102.611,249.109 102.651,250.600 102.512 C 251.920 102.389,253.075 102.224,253.167 102.144 C 253.489 101.865,250.188 102.084,249.200 102.407 M357.253 103.300 C 357.517 103.795,358.392 105.280,359.196 106.600 C 360.001 107.920,361.346 110.310,362.185 111.911 C 363.024 113.512,363.783 114.751,363.870 114.663 C 364.149 114.385,357.392 102.400,356.957 102.400 C 356.855 102.400,356.988 102.805,357.253 103.300 M244.600 103.076 C 244.160 103.176,241.888 103.680,239.551 104.196 C 234.165 105.384,228.716 106.850,228.922 107.055 C 229.009 107.142,230.862 106.735,233.040 106.151 C 235.218 105.567,239.430 104.586,242.400 103.970 C 245.370 103.354,247.260 102.859,246.600 102.871 C 245.940 102.883,245.040 102.975,244.600 103.076 M226.600 107.600 C 226.096 107.817,226.022 107.944,226.400 107.944 C 226.730 107.944,227.360 107.789,227.800 107.600 C 228.304 107.383,228.378 107.256,228.000 107.256 C 227.670 107.256,227.040 107.411,226.600 107.600 M224.000 108.400 C 223.467 108.745,223.467 108.788,224.000 108.788 C 224.330 108.788,224.870 108.613,225.200 108.400 C 225.733 108.055,225.733 108.012,225.200 108.012 C 224.870 108.012,224.330 108.187,224.000 108.400 M216.000 111.356 C 208.502 114.428,198.497 119.430,198.948 119.881 C 199.031 119.965,200.237 119.367,201.626 118.553 C 204.910 116.628,211.171 113.683,216.421 111.593 C 218.720 110.678,220.675 109.855,220.767 109.765 C 221.212 109.325,219.837 109.784,216.000 111.356 M258.800 119.618 C 255.662 119.985,251.254 120.666,248.800 121.162 C 247.810 121.362,246.010 121.713,244.800 121.941 C 243.590 122.168,241.250 122.732,239.600 123.192 C 237.950 123.652,235.626 124.297,234.436 124.626 C 187.329 137.629,152.379 176.977,134.798 236.800 C 134.314 238.450,133.769 240.250,133.588 240.800 C 133.287 241.713,131.271 249.938,130.401 253.800 C 129.840 256.290,129.290 259.145,128.783 262.200 C 128.527 263.740,128.157 265.864,127.959 266.920 C 127.762 267.976,127.596 269.596,127.591 270.520 C 127.572 273.909,124.740 277.423,121.247 278.394 C 120.318 278.652,104.071 278.796,75.887 278.798 C 37.293 278.800,31.947 278.872,31.745 279.398 C 31.619 279.727,32.165 281.345,32.958 282.993 C 33.751 284.642,34.400 286.183,34.400 286.419 C 34.400 286.667,34.610 286.711,34.900 286.524 C 35.175 286.346,56.640 286.110,82.600 286.000 C 129.265 285.802,129.816 285.791,131.194 284.981 C 133.591 283.573,134.843 281.330,135.235 277.742 C 137.030 261.316,142.709 239.887,150.378 220.600 C 151.743 217.167,157.891 204.548,160.122 200.600 C 169.018 184.859,175.626 175.923,186.173 165.372 C 201.836 149.704,217.789 140.099,239.994 132.966 C 244.463 131.530,245.078 131.356,249.000 130.418 C 256.291 128.673,259.200 128.143,259.200 128.557 C 259.200 128.682,258.907 129.515,258.550 130.409 C 258.192 131.302,257.983 132.116,258.084 132.217 C 258.185 132.318,258.768 130.916,259.381 129.100 C 260.271 126.461,262.536 121.151,263.476 119.500 C 263.672 119.156,262.491 119.186,258.800 119.618 M195.138 121.908 C 193.453 122.949,191.653 124.127,191.138 124.527 C 190.513 125.011,190.667 124.974,191.600 124.414 C 192.370 123.952,194.215 122.852,195.700 121.969 C 197.185 121.087,198.400 120.283,198.400 120.182 C 198.400 119.895,198.368 119.913,195.138 121.908 M366.454 120.200 C 366.465 120.795,368.734 125.471,368.769 124.972 C 368.786 124.736,368.271 123.476,367.623 122.172 C 366.976 120.867,366.450 119.980,366.454 120.200 M187.846 126.596 C 186.772 127.339,185.692 128.165,185.446 128.430 C 185.201 128.695,186.125 128.161,187.500 127.241 C 188.875 126.322,190.000 125.487,190.000 125.385 C 190.000 125.111,189.963 125.132,187.846 126.596 M369.628 127.638 C 369.613 127.770,370.155 129.390,370.834 131.238 C 371.512 133.087,372.716 136.569,373.508 138.975 C 374.301 141.382,375.010 143.171,375.083 142.952 C 375.234 142.499,371.684 131.937,370.461 129.200 C 370.018 128.210,369.644 127.507,369.628 127.638 M183.200 130.049 C 181.806 131.271,181.805 131.272,183.088 130.419 C 183.796 129.948,184.482 129.391,184.612 129.181 C 184.997 128.557,184.677 128.754,183.200 130.049 M177.600 134.286 C 175.510 135.970,171.010 140.134,167.600 143.540 L 161.400 149.731 167.210 144.165 C 170.405 141.104,174.438 137.430,176.172 136.000 C 180.199 132.677,181.852 131.223,181.600 131.224 C 181.490 131.224,179.690 132.602,177.600 134.286 M256.891 134.900 C 256.210 136.784,256.304 137.294,257.026 135.630 C 257.353 134.877,257.566 134.099,257.501 133.902 C 257.435 133.705,257.160 134.154,256.891 134.900 M254.840 141.040 C 254.610 141.873,254.494 142.627,254.582 142.715 C 254.670 142.803,254.930 142.193,255.160 141.360 C 255.390 140.527,255.506 139.773,255.418 139.685 C 255.330 139.597,255.070 140.207,254.840 141.040 M375.200 143.974 C 375.200 144.252,375.726 146.307,376.370 148.540 C 377.013 150.773,378.042 154.915,378.655 157.745 C 379.268 160.574,379.839 162.684,379.922 162.434 C 380.107 161.880,378.380 154.192,376.725 148.200 C 375.533 143.883,375.200 142.961,375.200 143.974 M252.056 151.495 C 251.758 152.840,251.609 154.179,251.725 154.470 C 251.842 154.762,251.951 154.532,251.968 153.960 C 251.986 153.388,252.195 152.361,252.433 151.678 C 252.671 150.995,252.806 150.124,252.732 149.743 C 252.659 149.361,252.354 150.150,252.056 151.495 M159.755 151.700 C 157.857 153.702,154.649 157.600,154.900 157.600 C 154.996 157.600,156.543 155.890,158.338 153.800 C 161.835 149.729,162.356 148.956,159.755 151.700 M251.059 156.271 C 250.581 158.762,250.321 160.988,250.531 160.790 C 250.813 160.524,251.633 155.500,251.428 155.295 C 251.345 155.211,251.179 155.651,251.059 156.271 M150.534 163.100 C 144.807 170.828,139.658 179.102,135.852 186.692 C 132.992 192.395,133.675 191.643,136.845 185.600 C 141.061 177.562,145.622 170.290,151.052 162.946 C 152.251 161.326,153.141 160.000,153.031 160.000 C 152.921 160.000,151.798 161.395,150.534 163.100 M250.109 162.800 C 250.109 163.790,250.187 164.195,250.282 163.700 C 250.378 163.205,250.378 162.395,250.282 161.900 C 250.187 161.405,250.109 161.810,250.109 162.800 M380.087 164.400 C 380.091 164.950,380.232 165.940,380.400 166.600 L 380.705 167.800 380.713 166.600 C 380.717 165.940,380.576 164.950,380.400 164.400 L 380.080 163.400 380.087 164.400 M249.073 170.160 C 248.915 172.118,248.863 173.796,248.956 173.889 C 249.203 174.136,249.712 168.263,249.522 167.362 C 249.433 166.943,249.231 168.202,249.073 170.160 M380.893 169.200 C 380.895 170.965,381.491 173.588,381.530 172.000 C 381.543 171.450,381.405 170.280,381.223 169.400 L 380.892 167.800 380.893 169.200 M381.680 174.800 C 381.668 175.570,381.803 177.010,381.980 178.000 C 382.276 179.667,382.301 179.697,382.320 178.400 C 382.332 177.630,382.197 176.190,382.020 175.200 C 381.724 173.533,381.699 173.503,381.680 174.800 M248.553 179.800 C 248.553 182.440,248.618 183.468,248.697 182.084 C 248.775 180.701,248.774 178.541,248.695 177.284 C 248.616 176.028,248.552 177.160,248.553 179.800 M382.513 183.000 C 382.508 184.320,382.632 186.750,382.788 188.400 L 383.071 191.400 383.089 188.600 C 383.098 187.060,382.975 184.630,382.814 183.200 L 382.522 180.600 382.513 183.000 M248.120 187.600 C 248.120 188.810,248.195 189.305,248.287 188.700 C 248.378 188.095,248.378 187.105,248.287 186.500 C 248.195 185.895,248.120 186.390,248.120 187.600 M248.553 197.800 C 248.553 200.440,248.618 201.468,248.697 200.084 C 248.775 198.701,248.774 196.541,248.695 195.284 C 248.616 194.028,248.552 195.160,248.553 197.800 M131.265 196.217 C 130.595 197.688,130.723 198.002,131.447 196.665 C 131.786 196.040,131.988 195.454,131.896 195.363 C 131.805 195.271,131.521 195.656,131.265 196.217 M127.400 204.661 C 127.064 205.465,126.882 206.215,126.995 206.328 C 127.108 206.441,127.200 206.435,127.200 206.316 C 127.200 206.196,127.472 205.446,127.805 204.649 C 128.138 203.852,128.321 203.200,128.211 203.200 C 128.101 203.200,127.736 203.858,127.400 204.661 M248.909 204.800 C 248.909 205.790,248.987 206.195,249.082 205.700 C 249.178 205.205,249.178 204.395,249.082 203.900 C 248.987 203.405,248.909 203.810,248.909 204.800 M382.657 208.534 C 382.480 211.358,382.421 213.755,382.527 213.860 C 382.791 214.124,383.313 206.089,383.129 204.600 C 383.047 203.940,382.835 205.710,382.657 208.534 M126.036 207.700 C 125.847 208.195,125.221 209.756,124.646 211.169 C 124.071 212.582,123.610 213.932,123.622 214.169 C 123.634 214.406,123.976 213.790,124.382 212.800 C 126.187 208.399,126.774 206.800,126.584 206.800 C 126.472 206.800,126.225 207.205,126.036 207.700 M249.324 209.000 C 249.326 210.320,249.401 210.812,249.490 210.093 C 249.579 209.374,249.577 208.294,249.486 207.693 C 249.395 207.092,249.322 207.680,249.324 209.000 M250.114 215.800 C 250.117 216.900,250.195 217.303,250.287 216.695 C 250.379 216.086,250.377 215.186,250.282 214.695 C 250.187 214.203,250.111 214.700,250.114 215.800 M122.491 216.900 C 121.810 218.784,121.904 219.294,122.626 217.630 C 122.953 216.877,123.166 216.099,123.101 215.902 C 123.035 215.705,122.760 216.154,122.491 216.900 M381.800 218.400 C 381.643 219.966,381.604 221.337,381.714 221.447 C 381.824 221.557,382.043 220.366,382.200 218.800 C 382.357 217.234,382.396 215.863,382.286 215.753 C 382.176 215.643,381.957 216.834,381.800 218.400 M250.909 221.200 C 250.909 222.190,250.987 222.595,251.082 222.100 C 251.178 221.605,251.178 220.795,251.082 220.300 C 250.987 219.805,250.909 220.210,250.909 221.200 M120.044 224.244 C 119.580 225.724,119.270 227.004,119.356 227.089 C 119.441 227.175,119.891 226.035,120.356 224.556 C 120.820 223.076,121.130 221.796,121.044 221.711 C 120.959 221.625,120.509 222.765,120.044 224.244 M380.985 224.585 C 380.830 225.823,380.793 226.927,380.903 227.037 C 381.013 227.147,381.230 226.223,381.385 224.985 C 381.539 223.746,381.576 222.643,381.466 222.533 C 381.356 222.423,381.139 223.346,380.985 224.585 M251.693 226.000 C 251.693 226.770,251.775 227.085,251.876 226.700 C 251.976 226.315,251.976 225.685,251.876 225.300 C 251.775 224.915,251.693 225.230,251.693 226.000 M118.846 228.067 C 118.821 228.434,118.696 229.064,118.570 229.467 C 118.352 230.162,118.363 230.163,118.797 229.487 C 119.048 229.096,119.173 228.466,119.073 228.087 C 118.911 227.468,118.888 227.466,118.846 228.067 M380.200 229.600 C 380.045 230.728,380.008 231.741,380.118 231.851 C 380.228 231.961,380.445 231.128,380.600 230.000 C 380.755 228.872,380.792 227.859,380.682 227.749 C 380.572 227.639,380.355 228.472,380.200 229.600 M252.428 230.233 C 252.444 230.875,252.616 231.760,252.810 232.200 C 253.047 232.734,253.086 232.402,252.927 231.200 C 252.646 229.080,252.388 228.580,252.428 230.233 M117.631 232.431 C 117.347 233.540,117.190 234.523,117.283 234.617 C 117.376 234.710,117.685 233.878,117.969 232.769 C 118.253 231.660,118.410 230.677,118.317 230.583 C 118.224 230.490,117.915 231.322,117.631 232.431 M379.400 234.000 C 379.246 234.910,379.211 235.744,379.321 235.854 C 379.431 235.964,379.646 235.310,379.800 234.400 C 379.954 233.490,379.989 232.656,379.879 232.546 C 379.769 232.436,379.554 233.090,379.400 234.000 M253.245 233.800 C 253.240 234.240,253.485 235.500,253.791 236.600 C 254.096 237.700,254.350 238.240,254.355 237.800 C 254.360 237.360,254.115 236.100,253.809 235.000 C 253.504 233.900,253.250 233.360,253.245 233.800 M378.600 237.600 C 378.448 238.291,378.414 238.947,378.524 239.057 C 378.634 239.167,378.848 238.691,379.000 238.000 C 379.152 237.309,379.186 236.653,379.076 236.543 C 378.966 236.433,378.752 236.909,378.600 237.600 M377.778 240.978 C 377.627 241.781,377.594 242.527,377.704 242.637 C 377.814 242.747,378.027 242.181,378.178 241.378 C 378.328 240.575,378.362 239.828,378.252 239.718 C 378.142 239.608,377.928 240.175,377.778 240.978 M114.640 244.840 C 114.493 245.757,114.452 246.585,114.547 246.680 C 114.642 246.776,114.846 246.110,115.000 245.200 C 115.154 244.290,115.196 243.462,115.093 243.360 C 114.990 243.257,114.787 243.923,114.640 244.840 M255.606 243.833 C 255.609 244.255,255.795 244.870,256.018 245.200 C 256.315 245.638,256.352 245.476,256.156 244.600 C 255.827 243.129,255.598 242.810,255.606 243.833 M376.616 245.833 C 375.148 251.333,371.944 260.988,371.478 261.321 C 371.143 261.559,371.179 261.613,371.600 261.500 C 372.494 261.260,377.894 244.682,377.481 243.444 C 377.412 243.236,377.023 244.311,376.616 245.833 M256.406 246.633 C 256.409 247.055,256.595 247.670,256.818 248.000 C 257.115 248.438,257.152 248.276,256.956 247.400 C 256.627 245.929,256.398 245.610,256.406 246.633 M113.855 249.055 C 113.713 250.086,113.674 251.008,113.769 251.102 C 113.863 251.196,114.065 250.439,114.218 249.418 C 114.371 248.398,114.410 247.476,114.304 247.371 C 114.198 247.265,113.996 248.023,113.855 249.055 M257.206 249.433 C 257.209 249.855,257.395 250.470,257.618 250.800 C 257.915 251.238,257.952 251.076,257.756 250.200 C 257.427 248.729,257.198 248.410,257.206 249.433 M113.046 253.846 C 112.900 255.093,112.859 256.193,112.957 256.290 C 113.054 256.388,113.261 255.454,113.415 254.215 C 113.570 252.977,113.610 251.877,113.505 251.771 C 113.399 251.666,113.193 252.599,113.046 253.846 M258.006 252.233 C 258.009 252.655,258.195 253.270,258.418 253.600 C 258.715 254.038,258.752 253.876,258.556 253.000 C 258.227 251.529,257.998 251.210,258.006 252.233 M112.514 258.600 C 112.517 259.700,112.595 260.103,112.687 259.495 C 112.779 258.886,112.777 257.986,112.682 257.495 C 112.587 257.003,112.511 257.500,112.514 258.600 M262.020 264.218 C 261.847 267.835,267.564 276.697,271.070 278.248 C 272.559 278.906,273.358 279.556,273.828 280.488 C 274.675 282.168,276.664 284.282,278.200 285.134 C 279.290 285.739,283.093 285.818,319.800 286.000 C 355.435 286.176,360.184 286.271,360.067 286.800 C 359.993 287.130,360.023 287.310,360.132 287.200 C 360.581 286.748,364.000 279.769,364.000 279.304 C 364.000 278.902,354.865 278.800,318.815 278.800 C 274.158 278.800,273.604 278.790,271.426 277.975 C 268.138 276.745,266.328 274.470,263.969 268.600 C 262.908 265.960,262.031 263.988,262.020 264.218 M358.986 288.900 L 358.352 290.200 359.167 289.200 C 359.952 288.237,360.208 287.600,359.810 287.600 C 359.706 287.600,359.335 288.185,358.986 288.900 M357.386 291.700 L 356.752 293.000 357.567 292.000 C 358.352 291.037,358.608 290.400,358.210 290.400 C 358.106 290.400,357.735 290.985,357.386 291.700 M355.177 295.300 C 354.467 296.455,353.621 297.805,353.297 298.300 C 352.973 298.795,352.793 299.200,352.897 299.200 C 353.105 299.200,355.584 295.538,356.349 294.100 C 357.257 292.394,356.466 293.205,355.177 295.300 M349.567 303.700 C 335.543 323.092,323.404 335.219,304.220 349.000 C 299.600 352.319,298.572 353.134,300.200 352.185 C 303.882 350.040,314.352 342.005,321.600 335.761 C 330.789 327.845,343.227 313.736,350.744 302.700 C 352.760 299.741,351.905 300.467,349.567 303.700 M76.694 338.788 C 77.650 339.678,84.310 344.512,90.000 348.446 C 93.803 351.075,98.910 354.318,105.952 358.577 C 110.218 361.157,119.195 365.738,119.462 365.472 C 119.559 365.374,117.875 364.424,115.719 363.360 C 113.564 362.296,110.270 360.539,108.400 359.455 C 106.530 358.371,104.640 357.285,104.200 357.042 C 99.960 354.699,91.059 348.720,82.497 342.461 C 76.717 338.236,74.801 337.023,76.694 338.788 M295.259 354.985 C 292.611 356.672,292.059 357.223,294.200 356.043 C 295.816 355.151,297.969 353.617,297.600 353.619 C 297.490 353.620,296.436 354.235,295.259 354.985 M291.100 357.429 C 290.495 357.757,290.000 358.110,290.000 358.213 C 290.000 358.599,290.632 358.357,291.600 357.600 C 292.789 356.670,292.611 356.609,291.100 357.429 M288.300 359.029 C 287.695 359.357,287.200 359.710,287.200 359.813 C 287.200 360.199,287.832 359.957,288.800 359.200 C 289.989 358.270,289.811 358.209,288.300 359.029 M283.859 361.446 C 282.352 362.219,281.194 362.927,281.286 363.019 C 281.469 363.203,286.800 360.452,286.800 360.173 C 286.800 359.930,286.886 359.892,283.859 361.446 M120.000 365.795 C 120.000 366.088,122.895 367.238,123.105 367.029 C 123.205 366.929,122.615 366.566,121.794 366.223 C 120.168 365.544,120.000 365.504,120.000 365.795 M273.955 366.399 C 268.449 369.309,255.385 373.679,242.200 377.023 C 237.580 378.194,234.163 379.163,234.607 379.176 C 239.178 379.311,276.000 367.395,276.000 365.781 C 276.000 365.451,275.416 365.627,273.955 366.399 M123.600 367.395 C 123.600 367.688,126.495 368.838,126.705 368.629 C 126.805 368.529,126.215 368.166,125.394 367.823 C 123.768 367.144,123.600 367.104,123.600 367.395 M127.600 369.200 C 127.930 369.413,128.470 369.588,128.800 369.588 C 129.333 369.588,129.333 369.545,128.800 369.200 C 128.470 368.987,127.930 368.812,127.600 368.812 C 127.067 368.812,127.067 368.855,127.600 369.200 M129.774 369.957 C 129.924 370.201,130.315 370.400,130.643 370.400 C 130.971 370.400,131.984 370.760,132.894 371.200 C 133.805 371.640,134.789 372.000,135.081 372.000 C 135.372 372.000,135.923 372.170,136.305 372.378 C 138.820 373.747,159.711 379.278,161.954 379.168 C 162.769 379.129,161.249 378.642,158.400 378.032 C 154.933 377.290,152.714 376.780,151.200 376.378 C 146.102 375.026,134.287 371.356,132.600 370.601 C 130.641 369.724,129.464 369.456,129.774 369.957 M163.800 379.600 C 164.460 379.768,165.450 379.909,166.000 379.913 L 167.000 379.920 166.000 379.600 C 165.450 379.424,164.460 379.283,163.800 379.287 L 162.600 379.295 163.800 379.600 M230.400 379.600 L 229.400 379.920 230.400 379.913 C 230.950 379.909,231.940 379.768,232.600 379.600 L 233.800 379.295 232.600 379.287 C 231.940 379.283,230.950 379.424,230.400 379.600 M168.600 380.400 C 169.260 380.568,170.340 380.705,171.000 380.705 L 172.200 380.705 171.000 380.400 C 170.340 380.232,169.260 380.095,168.600 380.095 L 167.400 380.095 168.600 380.400 M225.400 380.400 L 224.200 380.705 225.400 380.705 C 226.060 380.705,227.140 380.568,227.800 380.400 L 229.000 380.095 227.800 380.095 C 227.140 380.095,226.060 380.232,225.400 380.400 M174.200 381.223 C 175.080 381.405,176.430 381.544,177.200 381.531 L 178.600 381.508 177.000 381.177 C 176.120 380.995,174.770 380.856,174.000 380.869 L 172.600 380.892 174.200 381.223 M219.200 381.200 L 217.800 381.495 219.200 381.524 C 219.970 381.541,221.320 381.405,222.200 381.223 L 223.800 380.892 222.200 380.899 C 221.320 380.902,219.970 381.038,219.200 381.200 M181.400 382.018 C 182.500 382.190,184.480 382.318,185.800 382.304 L 188.200 382.278 185.600 381.986 C 184.170 381.825,182.190 381.697,181.200 381.700 L 179.400 381.707 181.400 382.018 M210.200 382.000 L 207.800 382.266 210.200 382.293 C 211.520 382.308,213.590 382.184,214.800 382.017 L 217.000 381.713 214.800 381.724 C 213.590 381.730,211.520 381.854,210.200 382.000 M194.520 382.698 C 196.455 382.772,199.515 382.771,201.320 382.697 C 203.124 382.623,201.540 382.563,197.800 382.564 C 194.060 382.564,192.584 382.625,194.520 382.698 " stroke="none" fill="#5b84d3" fill-rule="evenodd"></path><path id="path3" d="M334.800 70.925 C 334.800 70.994,335.385 71.579,336.100 72.225 L 337.400 73.400 336.225 72.100 C 335.130 70.888,334.800 70.616,334.800 70.925 M338.000 74.925 C 338.000 74.994,338.573 75.579,339.274 76.225 L 340.549 77.400 339.574 76.122 C 338.747 75.037,338.000 74.469,338.000 74.925 M342.227 80.200 C 343.600 82.000,343.868 82.003,342.704 80.205 C 342.207 79.438,341.656 78.808,341.480 78.805 C 341.303 78.802,341.640 79.430,342.227 80.200 M343.848 82.500 C 344.182 83.065,346.760 86.389,347.339 87.000 C 348.051 87.752,347.078 86.236,345.477 84.100 C 344.036 82.176,343.133 81.290,343.848 82.500 M350.800 92.400 C 351.270 93.060,351.744 93.600,351.854 93.600 C 351.964 93.600,351.670 93.060,351.200 92.400 C 350.730 91.740,350.256 91.200,350.146 91.200 C 350.036 91.200,350.330 91.740,350.800 92.400 M352.749 95.400 C 352.965 95.840,353.434 96.560,353.793 97.000 L 354.444 97.800 354.051 97.000 C 353.835 96.560,353.366 95.840,353.007 95.400 L 352.356 94.600 352.749 95.400 M264.700 101.082 C 265.195 101.178,266.005 101.178,266.500 101.082 C 266.995 100.987,266.590 100.909,265.600 100.909 C 264.610 100.909,264.205 100.987,264.700 101.082 M260.900 101.476 C 261.285 101.576,261.915 101.576,262.300 101.476 C 262.685 101.375,262.370 101.293,261.600 101.293 C 260.830 101.293,260.515 101.375,260.900 101.476 M230.600 106.800 C 230.096 107.017,230.022 107.144,230.400 107.144 C 230.730 107.144,231.360 106.989,231.800 106.800 C 232.304 106.583,232.378 106.456,232.000 106.456 C 231.670 106.456,231.040 106.611,230.600 106.800 M227.800 107.600 C 227.296 107.817,227.222 107.944,227.600 107.944 C 227.930 107.944,228.560 107.789,229.000 107.600 C 229.504 107.383,229.578 107.256,229.200 107.256 C 228.870 107.256,228.240 107.411,227.800 107.600 M284.314 109.957 C 284.170 111.457,283.560 112.833,281.698 115.857 C 278.635 120.832,273.548 130.964,273.618 131.949 C 273.628 132.087,274.791 129.803,276.202 126.873 C 277.613 123.944,280.063 119.390,281.645 116.753 C 284.239 112.429,285.786 108.000,284.702 108.000 C 284.592 108.000,284.417 108.880,284.314 109.957 M259.400 119.218 C 257.898 119.434,258.176 119.465,260.520 119.342 C 263.519 119.184,263.624 119.208,263.220 119.963 C 262.583 121.152,262.745 121.545,263.400 120.400 C 264.400 118.652,264.052 118.549,259.400 119.218 M253.200 120.000 L 251.400 120.280 253.000 120.293 C 253.880 120.300,255.140 120.168,255.800 120.000 C 257.400 119.593,255.819 119.593,253.200 120.000 M248.400 120.847 C 244.603 121.590,243.420 121.909,244.294 121.954 C 245.122 121.997,247.284 121.574,250.200 120.800 C 251.800 120.376,250.655 120.405,248.400 120.847 M261.752 123.100 C 261.374 123.925,260.995 124.735,260.909 124.900 C 260.823 125.065,260.845 125.200,260.958 125.200 C 261.070 125.200,261.471 124.525,261.848 123.700 C 262.226 122.875,262.605 122.065,262.691 121.900 C 262.777 121.735,262.755 121.600,262.642 121.600 C 262.530 121.600,262.129 122.275,261.752 123.100 M241.200 122.400 C 240.396 122.657,240.357 122.723,241.000 122.732 C 241.440 122.738,242.160 122.589,242.600 122.400 C 243.619 121.962,242.568 121.962,241.200 122.400 M237.000 123.468 C 228.949 125.957,227.203 126.536,227.342 126.676 C 227.429 126.762,229.188 126.304,231.250 125.656 C 233.313 125.009,236.170 124.116,237.600 123.672 C 239.030 123.228,239.930 122.861,239.600 122.857 C 239.270 122.853,238.100 123.128,237.000 123.468 M221.923 128.546 C 220.231 129.247,218.701 129.966,218.523 130.144 C 218.224 130.443,219.932 129.815,224.400 127.982 C 225.390 127.576,225.930 127.250,225.600 127.257 C 225.270 127.265,223.615 127.845,221.923 128.546 M216.400 131.000 C 215.850 131.314,215.580 131.572,215.800 131.572 C 216.020 131.572,216.650 131.314,217.200 131.000 C 217.750 130.686,218.020 130.428,217.800 130.428 C 217.580 130.428,216.950 130.686,216.400 131.000 M212.889 132.661 C 211.729 133.239,210.842 133.775,210.919 133.852 C 211.082 134.016,215.200 132.007,215.200 131.764 C 215.200 131.516,215.155 131.533,212.889 132.661 M208.700 134.827 C 207.875 135.263,207.200 135.708,207.200 135.818 C 207.200 135.927,207.920 135.649,208.800 135.200 C 209.680 134.751,210.400 134.297,210.400 134.192 C 210.400 133.930,210.397 133.931,208.700 134.827 M176.575 135.700 L 175.400 137.000 176.700 135.825 C 177.415 135.179,178.000 134.594,178.000 134.525 C 178.000 134.216,177.670 134.488,176.575 135.700 M203.358 137.951 C 189.891 146.051,178.139 156.219,169.784 167.000 C 167.606 169.811,169.016 168.336,173.062 163.571 C 180.991 154.233,192.246 144.909,203.900 138.022 C 206.383 136.555,207.156 135.997,206.700 136.001 C 206.645 136.001,205.141 136.879,203.358 137.951 M271.058 138.104 C 270.128 140.540,270.280 141.004,271.236 138.647 C 271.672 137.573,271.958 136.624,271.872 136.538 C 271.786 136.452,271.420 137.157,271.058 138.104 M173.578 138.300 L 172.200 139.800 173.700 138.422 C 174.525 137.663,175.200 136.988,175.200 136.922 C 175.200 136.616,174.862 136.904,173.578 138.300 M166.394 145.100 L 161.400 150.200 166.500 145.206 C 169.305 142.459,171.600 140.164,171.600 140.106 C 171.600 139.819,171.033 140.363,166.394 145.100 M375.256 142.800 C 375.256 143.130,375.411 143.760,375.600 144.200 C 375.817 144.704,375.944 144.778,375.944 144.400 C 375.944 144.070,375.789 143.440,375.600 143.000 C 375.383 142.496,375.256 142.422,375.256 142.800 M269.049 143.815 C 268.912 144.173,268.815 144.766,268.834 145.133 C 268.853 145.500,269.027 145.269,269.221 144.620 C 269.598 143.358,269.465 142.733,269.049 143.815 M268.249 146.615 C 268.112 146.973,268.015 147.566,268.034 147.933 C 268.053 148.300,268.227 148.069,268.421 147.420 C 268.798 146.158,268.665 145.533,268.249 146.615 M253.029 148.629 C 252.881 149.215,252.838 149.772,252.932 149.866 C 253.027 149.960,253.224 149.558,253.371 148.971 C 253.519 148.385,253.562 147.828,253.468 147.734 C 253.373 147.640,253.176 148.042,253.029 148.629 M266.656 152.884 C 266.521 153.388,266.427 154.160,266.446 154.600 C 266.465 155.040,266.645 154.698,266.846 153.840 C 267.236 152.178,267.070 151.340,266.656 152.884 M265.856 156.484 C 265.721 156.988,265.630 157.940,265.653 158.600 C 265.681 159.428,265.797 159.184,266.026 157.813 C 266.376 155.723,266.274 154.926,265.856 156.484 M264.909 163.200 C 264.909 164.190,264.987 164.595,265.082 164.100 C 265.178 163.605,265.178 162.795,265.082 162.300 C 264.987 161.805,264.909 162.210,264.909 163.200 M264.128 169.600 C 264.128 171.030,264.201 171.615,264.289 170.900 C 264.378 170.185,264.378 169.015,264.289 168.300 C 264.201 167.585,264.128 168.170,264.128 169.600 M165.411 172.421 C 162.100 176.519,156.174 185.476,153.070 191.073 C 148.555 199.217,140.571 216.713,140.908 217.725 C 140.982 217.946,141.375 217.244,141.782 216.164 C 147.501 200.980,157.879 182.130,166.041 172.100 C 167.160 170.725,167.988 169.600,167.883 169.600 C 167.777 169.600,166.664 170.870,165.411 172.421 M263.709 174.400 C 263.709 175.390,263.787 175.795,263.882 175.300 C 263.978 174.805,263.978 173.995,263.882 173.500 C 263.787 173.005,263.709 173.410,263.709 174.400 M248.920 176.000 C 248.920 177.210,248.995 177.705,249.087 177.100 C 249.178 176.495,249.178 175.505,249.087 174.900 C 248.995 174.295,248.920 174.790,248.920 176.000 M263.369 184.800 C 263.369 189.310,263.427 191.155,263.498 188.900 C 263.570 186.645,263.570 182.955,263.498 180.700 C 263.427 178.445,263.369 180.290,263.369 184.800 M382.493 179.600 C 382.493 180.370,382.575 180.685,382.676 180.300 C 382.776 179.915,382.776 179.285,382.676 178.900 C 382.575 178.515,382.493 178.830,382.493 179.600 M139.800 180.000 C 139.459 180.660,139.269 181.200,139.379 181.200 C 139.489 181.200,139.859 180.660,140.200 180.000 C 140.541 179.340,140.731 178.800,140.621 178.800 C 140.511 178.800,140.141 179.340,139.800 180.000 M382.909 183.600 C 382.909 184.590,382.987 184.995,383.082 184.500 C 383.178 184.005,383.178 183.195,383.082 182.700 C 382.987 182.205,382.909 182.610,382.909 183.600 M137.400 184.400 C 137.059 185.060,136.869 185.600,136.979 185.600 C 137.089 185.600,137.459 185.060,137.800 184.400 C 138.141 183.740,138.331 183.200,138.221 183.200 C 138.111 183.200,137.741 183.740,137.400 184.400 M248.551 188.800 C 248.551 191.330,248.616 192.365,248.696 191.100 C 248.775 189.835,248.775 187.765,248.696 186.500 C 248.616 185.235,248.551 186.270,248.551 188.800 M383.368 197.400 C 383.368 201.800,383.426 203.655,383.498 201.521 C 383.570 199.388,383.570 195.788,383.499 193.521 C 383.427 191.255,383.368 193.000,383.368 197.400 M263.720 195.600 C 263.720 196.810,263.795 197.305,263.887 196.700 C 263.978 196.095,263.978 195.105,263.887 194.500 C 263.795 193.895,263.720 194.390,263.720 195.600 M264.128 200.800 C 264.128 202.230,264.201 202.815,264.289 202.100 C 264.378 201.385,264.378 200.215,264.289 199.500 C 264.201 198.785,264.128 199.370,264.128 200.800 M248.914 201.400 C 248.917 202.500,248.995 202.903,249.087 202.295 C 249.179 201.686,249.177 200.786,249.082 200.295 C 248.987 199.803,248.911 200.300,248.914 201.400 M249.301 205.400 C 249.305 206.280,249.387 206.593,249.483 206.095 C 249.579 205.598,249.575 204.878,249.475 204.495 C 249.375 204.113,249.296 204.520,249.301 205.400 M264.909 207.600 C 264.909 208.590,264.987 208.995,265.082 208.500 C 265.178 208.005,265.178 207.195,265.082 206.700 C 264.987 206.205,264.909 206.610,264.909 207.600 M249.693 210.400 C 249.693 211.170,249.775 211.485,249.876 211.100 C 249.976 210.715,249.976 210.085,249.876 209.700 C 249.775 209.315,249.693 209.630,249.693 210.400 M382.901 211.400 C 382.905 212.280,382.987 212.593,383.083 212.095 C 383.179 211.598,383.175 210.878,383.075 210.495 C 382.975 210.113,382.896 210.520,382.901 211.400 M265.701 213.000 C 265.705 213.880,265.787 214.193,265.883 213.695 C 265.979 213.198,265.975 212.478,265.875 212.095 C 265.775 211.713,265.696 212.120,265.701 213.000 M382.501 215.400 C 382.505 216.280,382.587 216.593,382.683 216.095 C 382.779 215.598,382.775 214.878,382.675 214.495 C 382.575 214.113,382.496 214.520,382.501 215.400 M266.493 217.600 C 266.493 218.370,266.575 218.685,266.676 218.300 C 266.776 217.915,266.776 217.285,266.676 216.900 C 266.575 216.515,266.493 216.830,266.493 217.600 M139.858 220.104 C 138.928 222.540,139.080 223.004,140.036 220.647 C 140.472 219.573,140.758 218.624,140.672 218.538 C 140.586 218.452,140.220 219.157,139.858 220.104 M267.228 221.433 C 267.244 222.075,267.416 222.960,267.610 223.400 C 267.847 223.934,267.886 223.602,267.727 222.400 C 267.446 220.280,267.188 219.780,267.228 221.433 M137.841 225.876 C 137.269 227.596,136.814 229.182,136.830 229.401 C 136.847 229.621,137.385 228.283,138.026 226.429 C 138.668 224.576,139.123 222.989,139.037 222.904 C 138.952 222.819,138.414 224.156,137.841 225.876 M268.028 225.233 C 268.044 225.765,268.219 226.560,268.419 227.000 C 268.671 227.558,268.707 227.315,268.538 226.200 C 268.255 224.343,267.987 223.836,268.028 225.233 M136.040 231.440 C 135.810 232.273,135.694 233.027,135.782 233.115 C 135.870 233.203,136.130 232.593,136.360 231.760 C 136.590 230.927,136.706 230.173,136.618 230.085 C 136.530 229.997,136.270 230.607,136.040 231.440 M269.668 231.800 C 269.662 232.240,269.811 232.960,270.000 233.400 C 270.438 234.419,270.438 233.368,270.000 232.000 C 269.743 231.196,269.677 231.157,269.668 231.800 M270.431 234.738 C 270.390 235.458,271.632 239.701,271.827 239.506 C 271.911 239.422,271.638 238.194,271.221 236.777 C 270.803 235.359,270.447 234.442,270.431 234.738 M134.440 236.640 C 134.210 237.473,134.094 238.227,134.182 238.315 C 134.270 238.403,134.530 237.793,134.760 236.960 C 134.990 236.127,135.106 235.373,135.018 235.285 C 134.930 235.197,134.670 235.807,134.440 236.640 M254.456 238.000 C 254.456 238.330,254.611 238.960,254.800 239.400 C 255.017 239.904,255.144 239.978,255.144 239.600 C 255.144 239.270,254.989 238.640,254.800 238.200 C 254.583 237.696,254.456 237.622,254.456 238.000 M116.229 239.029 C 116.081 239.615,116.038 240.172,116.132 240.266 C 116.227 240.360,116.424 239.958,116.571 239.371 C 116.719 238.785,116.762 238.228,116.668 238.134 C 116.573 238.040,116.376 238.442,116.229 239.029 M133.646 239.267 C 133.621 239.634,133.496 240.264,133.370 240.667 C 133.152 241.362,133.163 241.363,133.597 240.687 C 133.848 240.296,133.973 239.666,133.873 239.287 C 133.711 238.668,133.688 238.666,133.646 239.267 M272.040 240.138 C 271.975 240.693,273.260 244.874,273.440 244.693 C 273.532 244.602,273.263 243.463,272.843 242.164 C 272.423 240.864,272.062 239.952,272.040 240.138 M132.186 244.653 C 132.048 245.284,131.769 246.322,131.567 246.960 C 131.365 247.598,131.214 248.498,131.232 248.960 C 131.250 249.422,131.602 248.457,132.015 246.816 C 132.427 245.175,132.692 243.758,132.602 243.669 C 132.512 243.579,132.325 244.022,132.186 244.653 M274.400 247.902 C 274.400 248.402,276.389 253.725,276.668 253.971 C 276.811 254.097,276.835 253.930,276.722 253.600 C 276.609 253.270,276.116 251.785,275.626 250.300 C 274.826 247.876,274.400 247.043,274.400 247.902 M130.449 251.800 C 130.416 252.240,130.296 253.050,130.183 253.600 L 129.977 254.600 130.406 253.619 C 130.642 253.079,130.761 252.269,130.672 251.819 C 130.513 251.021,130.507 251.021,130.449 251.800 M276.800 254.523 C 276.800 255.019,279.275 261.006,279.684 261.500 C 280.011 261.895,289.760 262.000,325.969 262.000 C 372.559 262.000,372.828 261.992,372.788 260.620 C 372.781 260.389,372.592 260.515,372.368 260.900 C 371.937 261.640,281.287 262.025,280.135 261.292 C 279.879 261.129,279.098 259.557,278.400 257.798 C 277.191 254.752,276.800 253.952,276.800 254.523 M112.893 257.600 C 112.893 258.370,112.975 258.685,113.076 258.300 C 113.176 257.915,113.176 257.285,113.076 256.900 C 112.975 256.515,112.893 256.830,112.893 257.600 M128.893 260.000 C 128.893 260.770,128.975 261.085,129.076 260.700 C 129.176 260.315,129.176 259.685,129.076 259.300 C 128.975 258.915,128.893 259.230,128.893 260.000 M112.432 260.895 C 112.395 261.696,24.450 262.212,23.200 261.419 C 22.741 261.128,22.702 261.154,23.034 261.533 C 23.560 262.133,111.933 262.227,112.532 261.628 C 112.729 261.431,112.794 261.029,112.677 260.735 C 112.531 260.371,112.453 260.422,112.432 260.895 M128.101 264.600 C 128.105 265.480,128.187 265.793,128.283 265.295 C 128.379 264.798,128.375 264.078,128.275 263.695 C 128.175 263.313,128.096 263.720,128.101 264.600 M127.437 268.100 C 127.321 269.035,127.157 270.430,127.074 271.200 C 126.990 271.970,126.793 272.960,126.635 273.400 C 126.471 273.860,126.592 273.775,126.920 273.200 C 127.234 272.650,127.595 270.895,127.722 269.300 C 127.973 266.156,127.780 265.345,127.437 268.100 M267.600 275.347 C 268.370 276.182,269.360 277.055,269.800 277.287 C 270.240 277.519,270.510 277.625,270.400 277.522 C 267.842 275.143,266.328 273.967,267.600 275.347 M124.551 275.977 C 121.891 278.488,123.761 278.395,75.800 278.404 C 33.446 278.412,30.318 278.496,31.004 279.607 C 31.235 279.981,31.400 279.943,31.675 279.451 C 32.009 278.856,35.795 278.800,75.920 278.798 C 104.082 278.796,120.318 278.652,121.247 278.394 C 123.017 277.902,125.115 276.509,125.908 275.300 C 126.732 274.043,126.451 274.183,124.551 275.977 M272.715 278.472 C 273.092 278.621,293.785 278.756,318.700 278.772 C 361.563 278.798,364.000 278.838,364.006 279.500 C 364.011 280.094,364.069 280.110,364.389 279.603 C 365.119 278.450,363.792 278.412,318.101 278.307 C 292.762 278.248,272.338 278.322,272.715 278.472 M361.780 284.040 C 361.211 285.162,360.813 286.147,360.895 286.229 C 360.977 286.311,361.527 285.393,362.118 284.189 C 362.708 282.985,363.106 282.000,363.002 282.000 C 362.898 282.000,362.348 282.918,361.780 284.040 M329.191 328.700 L 325.800 332.200 329.300 328.809 C 332.551 325.659,332.982 325.200,332.691 325.200 C 332.631 325.200,331.056 326.775,329.191 328.700 M318.975 338.100 L 317.800 339.400 319.100 338.225 C 319.815 337.579,320.400 336.994,320.400 336.925 C 320.400 336.616,320.070 336.888,318.975 338.100 M148.200 376.400 C 148.640 376.589,149.270 376.744,149.600 376.744 C 149.978 376.744,149.904 376.617,149.400 376.400 C 148.960 376.211,148.330 376.056,148.000 376.056 C 147.622 376.056,147.696 376.183,148.200 376.400 M151.000 377.200 C 151.440 377.389,152.160 377.538,152.600 377.532 C 153.243 377.523,153.204 377.457,152.400 377.200 C 151.032 376.762,149.981 376.762,151.000 377.200 M165.700 380.276 C 166.085 380.376,166.715 380.376,167.100 380.276 C 167.485 380.175,167.170 380.093,166.400 380.093 C 165.630 380.093,165.315 380.175,165.700 380.276 M177.700 381.876 C 178.085 381.976,178.715 381.976,179.100 381.876 C 179.485 381.775,179.170 381.693,178.400 381.693 C 177.630 381.693,177.315 381.775,177.700 381.876 M217.300 381.876 C 217.685 381.976,218.315 381.976,218.700 381.876 C 219.085 381.775,218.770 381.693,218.000 381.693 C 217.230 381.693,216.915 381.775,217.300 381.876 M180.900 382.276 C 181.285 382.376,181.915 382.376,182.300 382.276 C 182.685 382.175,182.370 382.093,181.600 382.093 C 180.830 382.093,180.515 382.175,180.900 382.276 M213.700 382.276 C 214.085 382.376,214.715 382.376,215.100 382.276 C 215.485 382.175,215.170 382.093,214.400 382.093 C 213.630 382.093,213.315 382.175,213.700 382.276 M187.500 382.689 C 188.215 382.778,189.385 382.778,190.100 382.689 C 190.815 382.601,190.230 382.528,188.800 382.528 C 187.370 382.528,186.785 382.601,187.500 382.689 M205.491 382.689 C 206.201 382.777,207.461 382.779,208.291 382.692 C 209.121 382.605,208.540 382.533,207.000 382.531 C 205.460 382.529,204.781 382.600,205.491 382.689 M196.691 383.089 C 197.401 383.177,198.661 383.179,199.491 383.092 C 200.321 383.005,199.740 382.933,198.200 382.931 C 196.660 382.929,195.981 383.000,196.691 383.089 " stroke="none" fill="#487abb" fill-rule="evenodd"></path><path id="path4" d="M325.400 61.600 C 326.483 62.700,327.460 63.600,327.570 63.600 C 327.680 63.600,326.883 62.700,325.800 61.600 C 324.717 60.500,323.740 59.600,323.630 59.600 C 323.520 59.600,324.317 60.500,325.400 61.600 M344.627 83.000 C 346.000 84.800,346.268 84.803,345.104 83.005 C 344.607 82.238,344.056 81.608,343.880 81.605 C 343.703 81.602,344.040 82.230,344.627 83.000 M349.422 89.868 C 352.666 94.697,353.749 96.187,353.007 94.800 C 352.290 93.460,346.661 85.162,346.330 84.957 C 346.134 84.836,347.525 87.046,349.422 89.868 M354.349 97.400 C 354.565 97.840,355.034 98.560,355.393 99.000 L 356.044 99.800 355.651 99.000 C 355.435 98.560,354.966 97.840,354.607 97.400 L 353.956 96.600 354.349 97.400 M265.000 101.217 C 263.680 101.372,265.210 101.408,268.400 101.297 C 271.590 101.187,274.275 101.030,274.367 100.948 C 274.636 100.708,267.611 100.910,265.000 101.217 M278.498 101.439 C 280.745 102.130,283.014 104.243,283.401 106.005 C 283.552 106.694,283.771 107.163,283.886 107.047 C 285.260 105.674,280.213 100.746,277.516 100.828 C 276.957 100.845,277.340 101.083,278.498 101.439 M256.400 102.000 L 255.000 102.295 256.400 102.324 C 257.170 102.341,258.520 102.205,259.400 102.023 L 261.000 101.692 259.400 101.699 C 258.520 101.702,257.170 101.838,256.400 102.000 M250.600 102.800 L 249.400 103.105 250.600 103.105 C 251.260 103.105,252.340 102.968,253.000 102.800 L 254.200 102.495 253.000 102.495 C 252.340 102.495,251.260 102.632,250.600 102.800 M245.600 103.600 C 244.628 103.911,244.633 103.920,245.800 103.920 C 246.460 103.920,247.450 103.776,248.000 103.600 C 248.972 103.289,248.967 103.280,247.800 103.280 C 247.140 103.280,246.150 103.424,245.600 103.600 M241.600 104.400 L 240.600 104.720 241.600 104.720 C 242.150 104.720,243.050 104.576,243.600 104.400 L 244.600 104.080 243.600 104.080 C 243.050 104.080,242.150 104.224,241.600 104.400 M234.600 106.032 C 220.976 109.662,209.804 114.078,200.068 119.682 C 198.236 120.737,196.658 121.600,196.562 121.600 C 196.266 121.600,192.000 124.501,192.000 124.703 C 192.000 124.807,192.405 124.627,192.900 124.303 C 204.675 116.600,221.691 109.533,237.500 105.780 C 239.095 105.402,240.400 105.026,240.400 104.946 C 240.400 104.616,238.768 104.922,234.600 106.032 M359.149 105.400 C 359.365 105.840,359.834 106.560,360.193 107.000 L 360.844 107.800 360.451 107.000 C 360.235 106.560,359.766 105.840,359.407 105.400 L 358.756 104.600 359.149 105.400 M284.000 108.951 C 284.000 110.706,283.127 112.750,280.925 116.157 C 276.674 122.732,267.939 142.872,268.915 143.848 C 269.023 143.956,269.471 142.910,269.911 141.522 C 272.338 133.862,277.406 122.827,281.707 115.842 C 283.957 112.187,285.372 107.600,284.250 107.600 C 284.112 107.600,284.000 108.208,284.000 108.951 M257.400 118.864 C 250.141 119.957,251.432 120.129,259.727 119.173 C 264.331 118.642,264.307 118.631,263.200 120.800 C 262.729 121.723,262.432 122.565,262.539 122.672 C 262.739 122.872,264.400 119.372,264.400 118.749 C 264.400 118.317,260.617 118.380,257.400 118.864 M248.400 120.400 C 247.428 120.711,247.433 120.720,248.600 120.720 C 249.260 120.720,250.250 120.576,250.800 120.400 C 251.772 120.089,251.767 120.080,250.600 120.080 C 249.940 120.080,248.950 120.224,248.400 120.400 M244.600 121.200 C 243.871 121.513,243.888 121.544,244.800 121.544 C 245.350 121.544,246.160 121.389,246.600 121.200 C 247.329 120.887,247.312 120.856,246.400 120.856 C 245.850 120.856,245.040 121.011,244.600 121.200 M240.800 121.997 C 240.250 122.180,239.260 122.458,238.600 122.614 C 237.940 122.771,237.580 122.962,237.800 123.040 C 238.020 123.117,239.460 122.841,241.000 122.426 C 242.540 122.012,243.350 121.670,242.800 121.668 C 242.250 121.665,241.350 121.813,240.800 121.997 M235.400 123.600 L 234.600 123.944 235.400 123.966 C 235.840 123.978,236.470 123.813,236.800 123.600 C 237.595 123.086,236.596 123.086,235.400 123.600 M232.400 124.400 C 231.605 124.914,232.604 124.914,233.800 124.400 L 234.600 124.056 233.800 124.034 C 233.360 124.022,232.730 124.187,232.400 124.400 M188.396 126.908 C 171.365 138.771,157.684 152.903,145.874 170.832 C 141.937 176.809,136.643 185.976,136.950 186.283 C 137.047 186.380,137.988 184.871,139.042 182.930 C 150.671 161.507,168.023 141.794,187.290 128.118 C 191.069 125.436,191.908 124.776,191.500 124.808 C 191.445 124.812,190.048 125.757,188.396 126.908 M230.000 125.200 C 229.467 125.545,229.467 125.588,230.000 125.588 C 230.330 125.588,230.870 125.413,231.200 125.200 C 231.733 124.855,231.733 124.812,231.200 124.812 C 230.870 124.812,230.330 124.987,230.000 125.200 M226.600 126.400 C 225.720 126.807,225.270 127.141,225.600 127.141 C 225.930 127.141,226.920 126.807,227.800 126.400 C 228.680 125.993,229.130 125.659,228.800 125.659 C 228.470 125.659,227.480 125.993,226.600 126.400 M260.174 127.443 C 260.040 127.859,259.585 129.079,259.165 130.153 C 258.744 131.228,258.409 132.308,258.421 132.553 C 258.432 132.799,258.979 131.672,259.636 130.049 C 260.294 128.426,260.739 127.005,260.625 126.892 C 260.512 126.778,260.309 127.026,260.174 127.443 M222.400 127.878 C 221.630 128.214,220.570 128.655,220.045 128.856 C 219.519 129.058,219.174 129.307,219.277 129.411 C 219.447 129.581,224.368 127.742,224.767 127.360 C 225.150 126.992,223.699 127.310,222.400 127.878 M216.062 130.652 C 214.886 131.205,214.003 131.737,214.101 131.834 C 214.294 132.028,218.800 130.049,218.800 129.771 C 218.800 129.453,218.207 129.644,216.062 130.652 M210.000 133.639 C 190.969 143.906,180.320 152.942,165.965 171.000 C 155.185 184.560,146.065 201.452,139.066 220.824 C 136.884 226.863,134.261 235.594,134.544 235.877 C 134.656 235.989,134.956 235.298,135.210 234.340 C 147.135 189.524,175.391 152.019,211.100 133.608 C 213.444 132.400,214.013 131.986,213.300 132.010 C 213.135 132.016,211.650 132.749,210.000 133.639 M257.415 135.015 C 257.030 136.024,256.804 136.937,256.913 137.046 C 257.021 137.155,257.400 136.393,257.754 135.354 C 258.590 132.899,258.325 132.634,257.415 135.015 M255.787 139.787 C 255.401 141.014,255.175 142.108,255.284 142.218 C 255.394 142.327,255.776 141.389,256.133 140.133 C 256.978 137.165,256.699 136.886,255.787 139.787 M254.673 143.353 C 254.523 143.745,254.411 144.366,254.425 144.733 C 254.442 145.175,254.581 145.074,254.837 144.434 C 255.049 143.903,255.161 143.282,255.085 143.054 C 255.009 142.827,254.824 142.961,254.673 143.353 M268.229 145.429 C 268.081 146.015,268.051 146.584,268.161 146.694 C 268.271 146.804,268.481 146.415,268.629 145.829 C 268.776 145.242,268.806 144.673,268.696 144.563 C 268.586 144.453,268.376 144.842,268.229 145.429 M253.849 146.215 C 253.712 146.573,253.616 147.256,253.636 147.733 C 253.662 148.347,253.785 148.208,254.059 147.256 C 254.457 145.872,254.294 145.058,253.849 146.215 M267.400 148.400 C 267.248 149.091,267.214 149.747,267.324 149.857 C 267.434 149.967,267.648 149.491,267.800 148.800 C 267.952 148.109,267.986 147.453,267.876 147.343 C 267.766 147.233,267.552 147.709,267.400 148.400 M252.617 151.884 C 248.154 172.205,247.559 196.853,251.002 218.708 C 251.868 224.207,252.149 225.832,252.852 229.400 C 253.921 234.822,254.881 238.852,255.063 238.671 C 255.145 238.588,254.767 236.462,254.223 233.945 C 248.039 205.345,247.618 175.551,253.059 151.653 C 253.378 150.252,253.563 149.030,253.470 148.937 C 253.377 148.844,252.993 150.170,252.617 151.884 M377.668 150.400 C 377.688 151.439,378.318 153.146,378.332 152.200 C 378.338 151.760,378.189 151.040,378.000 150.600 C 377.789 150.110,377.661 150.032,377.668 150.400 M266.600 151.600 C 266.448 152.291,266.414 152.947,266.524 153.057 C 266.634 153.167,266.848 152.691,267.000 152.000 C 267.152 151.309,267.186 150.653,267.076 150.543 C 266.966 150.433,266.752 150.909,266.600 151.600 M265.822 155.022 C 265.672 155.825,265.638 156.572,265.748 156.682 C 265.858 156.792,266.072 156.225,266.222 155.422 C 266.373 154.619,266.406 153.873,266.296 153.763 C 266.186 153.653,265.973 154.219,265.822 155.022 M264.982 159.382 C 264.829 160.402,264.802 161.335,264.922 161.455 C 265.042 161.575,265.265 160.839,265.418 159.818 C 265.571 158.798,265.598 157.865,265.478 157.745 C 265.358 157.625,265.135 158.361,264.982 159.382 M264.185 164.585 C 264.030 165.823,264.000 166.934,264.119 167.052 C 264.237 167.170,264.461 166.254,264.615 165.015 C 264.770 163.777,264.800 162.666,264.681 162.548 C 264.563 162.430,264.339 163.346,264.185 164.585 M263.399 171.681 C 263.246 173.516,263.192 175.464,263.280 176.009 C 263.368 176.554,263.586 175.145,263.765 172.878 C 263.943 170.611,263.997 168.663,263.883 168.550 C 263.769 168.436,263.551 169.845,263.399 171.681 M382.501 177.000 C 382.505 177.880,382.587 178.193,382.683 177.695 C 382.779 177.198,382.775 176.478,382.675 176.095 C 382.575 175.713,382.496 176.120,382.501 177.000 M262.950 184.200 C 262.951 186.620,263.016 187.558,263.096 186.285 C 263.176 185.012,263.175 183.032,263.094 181.885 C 263.014 180.738,262.949 181.780,262.950 184.200 M383.337 186.600 C 383.339 188.360,383.409 189.030,383.493 188.089 C 383.578 187.149,383.577 185.709,383.491 184.889 C 383.405 184.070,383.336 184.840,383.337 186.600 M263.230 195.433 C 263.246 196.955,263.414 199.010,263.602 200.000 C 263.836 201.226,263.875 200.396,263.725 197.400 C 263.476 192.420,263.185 191.265,263.230 195.433 M131.441 197.023 C 130.036 200.091,130.156 200.347,131.646 197.460 C 132.310 196.173,132.770 195.036,132.668 194.934 C 132.566 194.832,132.014 195.772,131.441 197.023 M383.728 197.600 C 383.728 199.030,383.801 199.615,383.889 198.900 C 383.978 198.185,383.978 197.015,383.889 196.300 C 383.801 195.585,383.728 196.170,383.728 197.600 M128.244 204.044 C 127.657 205.400,127.246 206.579,127.331 206.665 C 127.417 206.750,127.968 205.711,128.556 204.356 C 129.143 203.000,129.554 201.821,129.469 201.735 C 129.383 201.650,128.832 202.689,128.244 204.044 M264.070 204.200 C 264.057 204.860,264.195 206.120,264.377 207.000 L 264.708 208.600 264.707 207.000 C 264.706 206.120,264.568 204.860,264.400 204.200 L 264.095 203.000 264.070 204.200 M383.337 208.200 C 383.339 209.960,383.409 210.630,383.493 209.689 C 383.578 208.749,383.577 207.309,383.491 206.489 C 383.405 205.670,383.336 206.440,383.337 208.200 M264.887 210.400 C 264.883 211.170,265.024 212.250,265.200 212.800 C 265.648 214.199,265.648 211.961,265.200 210.200 L 264.895 209.000 264.887 210.400 M382.893 214.000 C 382.893 214.770,382.975 215.085,383.076 214.700 C 383.176 214.315,383.176 213.685,383.076 213.300 C 382.975 212.915,382.893 213.230,382.893 214.000 M124.170 213.843 C 124.034 214.259,123.650 215.320,123.318 216.200 C 121.780 220.277,119.814 226.631,117.996 233.400 C 116.967 237.231,116.773 238.057,115.498 244.000 C 114.475 248.774,113.912 252.075,113.075 258.200 L 112.584 261.800 68.192 262.006 C 43.776 262.119,23.755 262.254,23.700 262.306 C 23.645 262.358,23.600 262.670,23.600 263.000 C 23.600 263.776,24.247 263.777,24.544 263.002 C 24.745 262.477,30.165 262.391,68.887 262.302 L 113.000 262.200 113.495 258.600 C 115.429 244.544,118.484 231.560,122.778 219.144 C 123.866 215.998,124.681 213.347,124.588 213.254 C 124.495 213.161,124.307 213.426,124.170 213.843 M265.680 215.200 C 265.680 215.750,265.824 216.650,266.000 217.200 L 266.320 218.200 266.320 217.200 C 266.320 216.650,266.176 215.750,266.000 215.200 L 265.680 214.200 265.680 215.200 M382.501 218.200 C 382.505 219.080,382.587 219.393,382.683 218.895 C 382.779 218.398,382.775 217.678,382.675 217.295 C 382.575 216.913,382.496 217.320,382.501 218.200 M266.456 219.600 C 266.456 220.150,266.611 220.960,266.800 221.400 C 267.113 222.129,267.144 222.112,267.144 221.200 C 267.144 220.650,266.989 219.840,266.800 219.400 C 266.487 218.671,266.456 218.688,266.456 219.600 M267.268 223.400 C 267.274 223.840,267.424 224.650,267.600 225.200 L 267.920 226.200 267.932 225.200 C 267.938 224.650,267.789 223.840,267.600 223.400 L 267.256 222.600 267.268 223.400 M268.000 226.800 C 268.000 230.443,277.355 259.577,279.263 261.877 C 280.035 262.806,371.726 262.632,372.432 261.700 C 372.882 261.104,372.878 261.075,372.401 261.500 C 371.555 262.254,280.289 262.230,279.663 261.476 C 278.139 259.639,271.755 240.704,269.389 231.000 C 268.352 226.745,268.000 225.681,268.000 226.800 M133.873 236.953 C 133.723 237.345,133.611 237.966,133.625 238.333 C 133.642 238.775,133.781 238.674,134.037 238.034 C 134.249 237.503,134.361 236.882,134.285 236.654 C 134.209 236.427,134.024 236.561,133.873 236.953 M133.073 239.753 C 132.923 240.145,132.811 240.766,132.825 241.133 C 132.842 241.575,132.981 241.474,133.237 240.834 C 133.449 240.303,133.561 239.682,133.485 239.454 C 133.409 239.227,133.224 239.361,133.073 239.753 M255.246 240.000 C 255.227 240.550,255.387 241.270,255.600 241.600 C 256.094 242.364,256.094 241.542,255.600 240.000 L 255.280 239.000 255.246 240.000 M132.229 243.029 C 132.081 243.615,132.051 244.184,132.161 244.294 C 132.271 244.404,132.481 244.015,132.629 243.429 C 132.776 242.842,132.806 242.273,132.696 242.163 C 132.586 242.053,132.376 242.442,132.229 243.029 M256.046 243.200 C 256.027 243.750,256.187 244.470,256.400 244.800 C 256.894 245.564,256.894 244.742,256.400 243.200 L 256.080 242.200 256.046 243.200 M131.400 246.000 C 131.248 246.691,131.214 247.347,131.324 247.457 C 131.434 247.567,131.648 247.091,131.800 246.400 C 131.952 245.709,131.986 245.053,131.876 244.943 C 131.766 244.833,131.552 245.309,131.400 246.000 M256.834 246.200 C 256.822 246.640,256.987 247.270,257.200 247.600 C 257.714 248.395,257.714 247.396,257.200 246.200 L 256.856 245.400 256.834 246.200 M130.578 249.378 C 130.427 250.181,130.404 250.937,130.526 251.060 C 130.648 251.182,130.872 250.625,131.022 249.822 C 131.173 249.019,131.196 248.263,131.074 248.140 C 130.952 248.018,130.728 248.575,130.578 249.378 M257.634 249.000 C 257.622 249.440,257.787 250.070,258.000 250.400 C 258.514 251.195,258.514 250.196,258.000 249.000 L 257.656 248.200 257.634 249.000 M258.434 251.800 C 258.422 252.240,258.587 252.870,258.800 253.200 C 259.314 253.995,259.314 252.996,258.800 251.800 L 258.456 251.000 258.434 251.800 M129.778 252.978 C 129.627 253.781,129.594 254.527,129.704 254.637 C 129.814 254.747,130.027 254.181,130.178 253.378 C 130.328 252.575,130.362 251.828,130.252 251.718 C 130.142 251.608,129.928 252.175,129.778 252.978 M259.212 254.400 C 259.212 254.730,259.387 255.270,259.600 255.600 C 259.945 256.133,259.988 256.133,259.988 255.600 C 259.988 255.270,259.813 254.730,259.600 254.400 C 259.255 253.867,259.212 253.867,259.212 254.400 M129.089 256.000 C 128.936 256.550,128.825 257.450,128.842 258.000 C 128.868 258.861,128.926 258.814,129.258 257.660 C 129.470 256.924,129.581 256.024,129.506 255.660 C 129.408 255.194,129.286 255.293,129.089 256.000 M128.182 260.982 C 128.029 262.002,128.002 262.935,128.122 263.055 C 128.242 263.175,128.465 262.439,128.618 261.418 C 128.771 260.398,128.798 259.465,128.678 259.345 C 128.558 259.225,128.335 259.961,128.182 260.982 M262.412 264.000 C 262.412 264.330,262.587 264.870,262.800 265.200 C 263.145 265.733,263.188 265.733,263.188 265.200 C 263.188 264.870,263.013 264.330,262.800 264.000 C 262.455 263.467,262.412 263.467,262.412 264.000 M24.400 264.776 C 24.400 265.203,24.580 265.664,24.800 265.800 C 25.027 265.940,25.200 265.604,25.200 265.024 C 25.200 264.461,25.020 264.000,24.800 264.000 C 24.580 264.000,24.400 264.349,24.400 264.776 M127.382 265.782 C 127.229 266.802,127.202 267.735,127.322 267.855 C 127.442 267.975,127.665 267.239,127.818 266.218 C 127.971 265.198,127.998 264.265,127.878 264.145 C 127.758 264.025,127.535 264.761,127.382 265.782 M25.200 266.976 C 25.200 267.293,25.380 267.664,25.600 267.800 C 25.820 267.936,26.000 267.677,26.000 267.224 C 26.000 266.771,25.820 266.400,25.600 266.400 C 25.380 266.400,25.200 266.659,25.200 266.976 M26.134 268.627 C 26.002 268.972,26.098 269.458,26.347 269.707 C 26.684 270.044,26.800 269.884,26.800 269.080 C 26.800 267.877,26.501 267.673,26.134 268.627 M126.695 270.952 C 126.306 273.533,125.107 275.386,123.041 276.597 L 121.352 277.587 76.260 277.607 C 51.459 277.618,30.983 277.513,30.757 277.373 C 30.175 277.014,29.772 277.532,30.257 278.017 C 30.832 278.592,119.255 278.541,121.343 277.965 C 124.564 277.075,127.481 273.155,127.129 270.188 C 127.014 269.213,126.936 269.350,126.695 270.952 M264.807 270.104 C 264.753 272.395,269.280 277.223,272.164 277.949 C 273.439 278.270,286.938 278.400,319.110 278.400 C 343.946 278.400,364.379 278.512,364.516 278.650 C 364.653 278.787,364.400 279.616,363.953 280.491 C 363.507 281.367,363.303 281.984,363.501 281.861 C 364.397 281.307,365.366 278.350,364.774 277.976 C 364.439 277.763,344.998 277.610,317.978 277.606 L 271.757 277.600 269.978 276.468 C 267.871 275.127,267.550 274.763,265.999 271.950 C 265.348 270.767,264.811 269.937,264.807 270.104 M348.000 306.800 C 347.530 307.460,347.236 308.000,347.346 308.000 C 347.456 308.000,347.930 307.460,348.400 306.800 C 348.870 306.140,349.164 305.600,349.054 305.600 C 348.944 305.600,348.470 306.140,348.000 306.800 M340.175 316.900 L 339.000 318.200 340.300 317.025 C 341.015 316.379,341.600 315.794,341.600 315.725 C 341.600 315.416,341.270 315.688,340.175 316.900 M335.375 322.500 L 334.200 323.800 335.500 322.625 C 336.712 321.530,336.984 321.200,336.675 321.200 C 336.606 321.200,336.021 321.785,335.375 322.500 M303.000 350.635 L 301.800 351.666 303.100 350.806 C 303.815 350.333,304.400 349.868,304.400 349.773 C 304.400 349.473,304.231 349.578,303.000 350.635 M144.200 375.600 C 144.640 375.789,145.270 375.944,145.600 375.944 C 145.978 375.944,145.904 375.817,145.400 375.600 C 144.960 375.411,144.330 375.256,144.000 375.256 C 143.622 375.256,143.696 375.383,144.200 375.600 M149.800 377.200 C 150.240 377.389,150.870 377.544,151.200 377.544 C 151.578 377.544,151.504 377.417,151.000 377.200 C 150.560 377.011,149.930 376.856,149.600 376.856 C 149.222 376.856,149.296 376.983,149.800 377.200 M153.200 377.946 C 154.693 378.438,157.570 378.860,156.600 378.445 C 156.160 378.256,154.990 377.993,154.000 377.859 C 152.816 377.700,152.542 377.729,153.200 377.946 M166.100 380.676 C 166.485 380.776,167.115 380.776,167.500 380.676 C 167.885 380.575,167.570 380.493,166.800 380.493 C 166.030 380.493,165.715 380.575,166.100 380.676 M168.900 381.076 C 169.285 381.176,169.915 381.176,170.300 381.076 C 170.685 380.975,170.370 380.893,169.600 380.893 C 168.830 380.893,168.515 380.975,168.900 381.076 M174.505 381.887 C 175.114 381.979,176.014 381.977,176.505 381.882 C 176.997 381.787,176.500 381.711,175.400 381.714 C 174.300 381.717,173.897 381.795,174.505 381.887 M219.700 381.876 C 220.085 381.976,220.715 381.976,221.100 381.876 C 221.485 381.775,221.170 381.693,220.400 381.693 C 219.630 381.693,219.315 381.775,219.700 381.876 M178.500 382.276 C 178.885 382.376,179.515 382.376,179.900 382.276 C 180.285 382.175,179.970 382.093,179.200 382.093 C 178.430 382.093,178.115 382.175,178.500 382.276 M216.100 382.276 C 216.485 382.376,217.115 382.376,217.500 382.276 C 217.885 382.175,217.570 382.093,216.800 382.093 C 216.030 382.093,215.715 382.175,216.100 382.276 M182.291 382.689 C 183.001 382.777,184.261 382.779,185.091 382.692 C 185.921 382.605,185.340 382.533,183.800 382.531 C 182.260 382.529,181.581 382.600,182.291 382.689 M210.707 382.690 C 211.426 382.779,212.506 382.777,213.107 382.686 C 213.708 382.595,213.120 382.522,211.800 382.524 C 210.480 382.526,209.988 382.601,210.707 382.690 M190.512 383.095 C 191.564 383.177,193.184 383.176,194.112 383.092 C 195.040 383.008,194.180 382.941,192.200 382.942 C 190.220 382.943,189.460 383.012,190.512 383.095 M202.512 383.095 C 203.564 383.177,205.184 383.176,206.112 383.092 C 207.040 383.008,206.180 382.941,204.200 382.942 C 202.220 382.943,201.460 383.012,202.512 383.095 " stroke="none" fill="#3c71ac" fill-rule="evenodd"></path></g></svg>